<?xml version="1.0" standalone="no"?>
<!DOCTYPE svg PUBLIC "-//W3C//DTD SVG 1.1//EN" "http://www.w3.org/Graphics/SVG/1.1/DTD/svg11.dtd" >
<svg xmlns="http://www.w3.org/2000/svg" xmlns:xlink="http://www.w3.org/1999/xlink" version="1.1">
<metadata>
Created by FontForge 20201107 at Sat Apr 19 10:25:19 2025
 By 
Copyright (c) 2016 Swiss Typefaces Sarl. All rights reserved. |DCNT
</metadata>
<defs>
<font id="SuisseIntl-Light" horiz-adv-x="0" >
  <font-face 
    font-family="Suisse Intl Light"
    font-weight="300"
    font-stretch="normal"
    units-per-em="2048"
    panose-1="2 11 5 4 0 0 0 0 0 0"
    ascent="1536"
    descent="-512"
    x-height="1102"
    cap-height="1485"
    bbox="-401 -1266 5761 2271"
    underline-thickness="143"
    underline-position="-224"
    unicode-range="U+0020-FEFC"
  />
<missing-glyph horiz-adv-x="1024" 
d="M0 0v1485h1024v-1485h-1024zM489 741l-450 684v-1366zM532 741l453 -682v1366zM512 709l-444 -670h886zM68 1446l444 -672l442 672h-886z" />
    <glyph glyph-name="uniFC43" unicode="&#xfedf;&#xfef0;" horiz-adv-x="1796" arabic-form="isolated" 
d="M1489 1485h123v-1094q0 -185 -96 -289q-50 -56 -142 -84q-51 -104 -102 -174q-201 -284 -598 -284q-572 0 -572 540q0 209 93 484h112q-92 -234 -92 -453q0 -438 481 -438q211 0 357 98q116 75 186 209h-25h-311l23 133h288q142 0 208.5 62t66.5 190v1100z" />
    <glyph glyph-name="uniFC86" unicode="&#xfee0;&#xfef0;" horiz-adv-x="1863" arabic-form="final" 
d="M1466 1485h123v-1100q0 -128 66.5 -190t208.5 -62q20 0 20 -20v-90q0 -23 -20 -23q-208 0 -303 102q-16 16 -31 37l-39 -37q-45 -39 -72 -55l-41 -20q-52 -106 -106 -183q-201 -284 -598 -284q-572 0 -572 540q0 209 93 484h112q-92 -234 -92 -453q0 -438 481 -438
q211 0 357 98q116 75 186 209h-25h-311l23 133h288q85 0 158 31q67 28 113 74q-19 71 -19 153v1094z" />
    <glyph glyph-name="uniFEF5" unicode="&#xfedf;&#xfe82;" horiz-adv-x="1191" arabic-form="isolated" 
d="M772 1587h123v-485q0 -157 -43 -293l-31 -82l76 -68q113 -103 163 -187t50 -171q0 -143 -93 -222t-269 -79h-639l-58 133q373 221 535 424q44 58 84 127l-576 524l8 21h164l461 -416q45 128 45 289v485zM719 551q-89 -124 -225 -236q-107 -89 -265 -182h557
q92 0 146.5 44t54.5 118q0 103 -117 207l-114 102q-11 -19 -37 -53zM141 1552q46 0 126 -37.5t126 -37.5q35 0 83 14.5t81 38.5l-2 -115q-67 -51 -158 -51q-49 0 -120 38t-111 38q-41 0 -66.5 -21.5t-31.5 -58.5h-103q0 75 46.5 133.5t129.5 58.5z" />
    <glyph glyph-name="uniFEF6" unicode="&#xfee0;&#xfe82;" horiz-adv-x="1380" arabic-form="final" 
d="M983 1485h123v-1100q0 -128 66 -190t208 -62q21 0 21 -20v-90q0 -23 -21 -23q-208 0 -303 102l-4 4q-52 -23 -96 -36q-213 -70 -422 -70q-283 0 -494 70v123q206 -60 494 -60h16q0 61 -2 88q-3 56 -12 113q-7 51 -27 136.5t-72 301.5t-106 457h133q23 -105 50 -225.5
t41.5 -185.5t31.5 -140t25.5 -115t17 -83t13.5 -71.5t8 -54.5q11 -90 2 -219q83 5 166 19q95 16 176 45q-33 76 -33 192v1094zM295 1559q46 0 126 -38t126 -38q35 0 83 14.5t81 38.5l-2 -115q-67 -51 -158 -51q-48 0 -120.5 38t-111.5 38q-41 0 -66.5 -21.5t-31.5 -58.5
h-102q0 75 46.5 134t129.5 59z" />
    <glyph glyph-name="uniFEF7" unicode="&#xfedf;&#xfe84;" horiz-adv-x="1191" arabic-form="isolated" 
d="M772 1587h123v-485q0 -157 -43 -293l-31 -82l76 -68q113 -103 163 -187t50 -171q0 -143 -93 -222t-269 -79h-639l-58 133q373 221 535 424q44 58 84 127l-576 524l8 21h164l461 -416q45 128 45 289v485zM719 551q-89 -124 -225 -236q-107 -89 -265 -182h557
q92 0 146.5 44t54.5 118q0 103 -117 207l-114 102q-11 -19 -37 -53zM260 1462h203l-31 -102h-321q-76 0 -154 -25v99q76 28 149 28l-18 23q-31 48 -31 94q0 79 53.5 128.5t133.5 49.5q55 0 141 -39v-102q-69 29 -125 29q-46 0 -72 -25t-26 -64t28.5 -66.5t69.5 -27.5z" />
    <glyph glyph-name="uniFEF8" unicode="&#xfee0;&#xfe84;" horiz-adv-x="1380" arabic-form="final" 
d="M983 1485h123v-1100q0 -128 66 -190t208 -62q21 0 21 -20v-90q0 -23 -21 -23q-208 0 -303 102l-4 4q-52 -23 -96 -36q-213 -70 -422 -70q-283 0 -494 70v123q206 -60 494 -60h16q0 61 -2 88q-3 56 -12 113q-7 51 -27 136.5t-72 301.5t-106 457h133q23 -105 50 -225.5
t41.5 -185.5t31.5 -140t25.5 -115t17 -83t13.5 -71.5t8 -54.5q11 -90 2 -219q83 5 166 19q95 16 176 45q-33 76 -33 192v1094zM446 1462h203l-31 -102h-321q-76 0 -154 -25v99q57 19 80 22q27 6 68 6l-19 23q-28 48 -28 94q0 79 53 128.5t133 49.5q55 0 141 -39v-102
q-69 29 -125 29q-46 0 -72 -25t-26 -64t28.5 -66.5t69.5 -27.5z" />
    <glyph glyph-name="uniFEF9" unicode="&#xfedf;&#xfe88;" horiz-adv-x="1191" arabic-form="isolated" 
d="M772 1587h123v-485q0 -157 -43 -293l-31 -82l76 -68q113 -103 163 -187t50 -171q0 -143 -93 -222t-269 -79h-639l-58 133q373 221 535 424q44 58 84 127l-576 524l8 21h164l461 -416q45 128 45 289v485zM719 551q-89 -124 -225 -236q-107 -89 -265 -182h557
q92 0 146.5 44t54.5 118q0 103 -117 207l-114 102q-11 -19 -37 -53zM655 -412h203l-31 -102h-321q-76 0 -154 -25v99q76 28 150 28l-19 25q-30 47 -30 92q0 79 53 128.5t133 49.5q55 0 141 -39v-102q-69 29 -125 29q-46 0 -72 -24.5t-26 -63.5t28.5 -67t69.5 -28z" />
    <glyph glyph-name="uniFEFA" unicode="&#xfee0;&#xfe88;" horiz-adv-x="1380" arabic-form="final" 
d="M983 1485h123v-1100q0 -128 66 -190t208 -62q21 0 21 -20v-90q0 -23 -21 -23q-208 0 -303 102l-4 4q-52 -23 -96 -36q-213 -70 -422 -70q-283 0 -494 70v123q206 -60 494 -60h16q0 61 -2 88q-3 56 -12 113q-7 51 -27 136.5t-72 301.5t-106 457h133q23 -105 50 -225.5
t41.5 -185.5t31.5 -140t25.5 -115t17 -83t13.5 -71.5t8 -54.5q11 -90 2 -219q83 5 166 19q95 16 176 45q-33 76 -33 192v1094zM645 -414h213l-31 -102h-321q-76 0 -154 -25v99q52 18 80 24q36 4 68 4l-19 25q-28 48 -28 92q0 79 53 128.5t133 49.5q55 0 141 -39v-102
q-69 29 -125 29q-46 0 -72 -24.5t-26 -63.5q0 -37 29 -66q26 -26 59 -29z" />
    <glyph glyph-name="uniFEFB" unicode="&#xfedf;&#xfe8e;" horiz-adv-x="1191" arabic-form="isolated" 
d="M772 1587h123v-485q0 -157 -43 -293l-31 -82l76 -68q113 -103 163 -187t50 -171q0 -143 -93 -222t-269 -79h-639l-58 133q373 221 535 424q44 58 84 127l-576 524l8 21h164l461 -416q45 128 45 289v485zM719 551q-89 -124 -225 -236q-107 -89 -265 -182h557
q92 0 146.5 44t54.5 118q0 103 -117 207l-114 102q-11 -19 -37 -53z" />
    <glyph glyph-name="uniFEFC" unicode="&#xfee0;&#xfe8e;" horiz-adv-x="1380" arabic-form="final" 
d="M983 1485h123v-1100q0 -128 66 -190t208 -62q21 0 21 -20v-90q0 -23 -21 -23q-208 0 -303 102l-4 4q-52 -23 -96 -36q-213 -70 -422 -70q-283 0 -494 70v123q206 -60 494 -60h16q0 61 -2 88q-3 56 -12 113q-7 51 -27 136.5t-72 301.5t-106 457h133q23 -105 50 -225.5
t41.5 -185.5t31.5 -140t25.5 -115t17 -83t13.5 -71.5t8 -54.5q11 -90 2 -219q83 5 166 19q95 16 176 45q-33 76 -33 192v1094z" />
    <glyph glyph-name="uni0407_uni0407" unicode="&#x407;&#x407;" horiz-adv-x="890" 
d="M332 1485v-1485h-137v1485h137zM696 1485v-1485h-137v1485h137zM764 1800h137v-203h-137v203zM377 1800h137v-203h-137v203zM-8 1800h137v-203h-137v203z" />
    <glyph glyph-name="uni0457_uni0457" unicode="&#x457;&#x457;" horiz-adv-x="804" 
d="M510 1102h127v-1102h-127v1102zM168 1102h127v-1102h-127v1102zM-27 1485h127v-203h-127v203zM338 1485h127v-203h-127v203zM705 1485h126v-203h-126v203z" />
    <glyph glyph-name="uniFEDF_uniFB51" unicode="&#xfedf;&#xfb51;" horiz-adv-x="1191" 
d="M772 1587h123v-485q0 -157 -43 -293l-31 -82l76 -68q113 -103 163 -187t50 -171q0 -143 -93 -222t-269 -79h-639l-58 133q373 221 535 424q44 58 84 127l-576 524l8 21h164l461 -416q45 128 45 289v485zM719 551q-89 -124 -225 -236q-107 -89 -265 -182h557
q92 0 146.5 44t54.5 118q0 103 -117 207l-114 102q-11 -19 -37 -53zM377 1688q75 0 128.5 -50t53.5 -122q0 -96 -80.5 -147.5t-230.5 -51.5q-126 0 -281 61l33 90q39 -16 74 -24l82 104q65 74 116.5 107t104.5 33zM240 1419q94 0 145 25t51 72q0 30 -23.5 48.5t-56.5 18.5
q-61 0 -147 -102l-47 -58q54 -4 78 -4z" />
    <glyph glyph-name="uniFEE0_uniFB51" unicode="&#xfee0;&#xfb51;" horiz-adv-x="1380" 
d="M983 1485h123v-1100q0 -128 66 -190t208 -62q21 0 21 -20v-90q0 -23 -21 -23q-208 0 -303 102l-4 4q-52 -23 -96 -36q-213 -70 -422 -70q-283 0 -494 70v123q206 -60 494 -60h16q0 61 -2 88q-3 56 -12 113q-7 51 -27 136.5t-72 301.5t-106 457h133q23 -105 50 -225.5
t41.5 -185.5t31.5 -140t25.5 -115t17 -83t13.5 -71.5t8 -54.5q11 -90 2 -219q83 5 166 19q95 16 176 45q-33 76 -33 192v1094zM465 1694q75 0 128.5 -50t53.5 -122q0 -96 -80.5 -147.5t-230.5 -51.5q-126 0 -281 61l33 91q45 -18 72 -25q55 73 84 104q65 74 116.5 107
t104.5 33zM328 1425q94 0 145 25t51 72q0 30 -23.5 48.5t-56.5 18.5q-30 0 -64 -22.5t-85 -79.5l-47 -57q73 -5 80 -5z" />
    <glyph glyph-name="uni066E.init" unicode="&#x66e;" horiz-adv-x="520" 
d="M213 993h123q61 -418 61 -602q0 -391 -397 -391q-20 0 -20 23v90q0 20 20 20q285 0 285 252q0 83 -15 207.5t-57 400.5z" />
    <glyph glyph-name="uni066E.medi" unicode="&#x66e;" horiz-adv-x="614" 
d="M287 758h112q0 -236 -20 -367q-11 -92 -41 -170l31 -20q54 -38 108 -53t137 -15q21 0 21 -20v-90q0 -23 -21 -23q-92 0 -160.5 20.5t-138.5 73.5l-32 25q-39 -45 -95 -74q-80 -45 -188 -45q-20 0 -20 23v90q0 20 20 20q78 0 137 30.5t90 86.5q34 63 47 172t13 336z" />
    <glyph glyph-name="uni066E.fina" unicode="&#x66e;" horiz-adv-x="1724" 
d="M1397 758h112q0 -236 -20 -367q-11 -92 -41 -170l31 -20q54 -38 108 -53t137 -15q21 0 21 -20v-90q0 -23 -21 -23q-92 0 -160.5 20.5t-138.5 73.5l-32 25q-39 -45 -95 -74q-74 -42 -174 -45h-4h-10h-516q-233 0 -362.5 110.5t-129.5 323.5q0 177 70 467h113
q-60 -283 -60 -434q0 -175 96 -254.5t300 -79.5h489h10h4q68 3 123 31q60 31 90 86q34 63 47 172t13 336z" />
    <glyph glyph-name="uni066F.fina" unicode="&#x66f;" horiz-adv-x="1538" 
d="M1012 952q163 0 262.5 -112t111.5 -303q1 -28 9 -165.5t10 -205.5q2 -12 2 -33h131q21 0 21 -20v-90q0 -23 -21 -23h-133q-21 -185 -174 -305q-175 -135 -518 -135q-98 0 -186 19t-166.5 60.5t-135.5 103.5t-90 153.5t-33 203.5q0 209 93 484h112q-92 -234 -92 -453
q0 -212 144 -325t421 -113q172 0 296 60t181 165q23 45 31 82h-184q-250 0 -385 119t-135 346q0 213 116.5 350t311.5 137zM1290 156q-2 60 -11 189t-11 171q-11 141 -83.5 222t-189.5 81q-133 0 -210.5 -98.5t-77.5 -247.5q0 -164 102 -252t289 -88h194q0 15 -2 23z" />
    <glyph glyph-name="uni06A1.init" unicode="&#x6a1;" horiz-adv-x="1062" 
d="M530 973q183 0 307 -132.5t124 -324.5q0 -248 -145 -382t-413 -134h-403q-20 3 -20 23v90q0 20 20 20h248l-8 19q-12 26 -54 100q-53 89 -75.5 160.5t-22.5 144.5q0 83 35 159.5t94 133t141 90t172 33.5zM367 133h65q184 0 294 92.5t110 266.5q0 157 -89 251.5t-237 94.5
q-124 0 -211.5 -85.5t-87.5 -205.5q0 -104 80 -252q31 -54 49 -98z" />
    <glyph glyph-name="uni06A1.medi" unicode="&#x6a1;" horiz-adv-x="1134" 
d="M563 973q188 0 312 -126t124 -312q0 -143 -90 -259q-60 -79 -157 -133l125 -8q47 -2 137 -2h121q20 0 20 -20v-90q0 -23 -20 -23q-154 0 -332 16q-126 15 -248 50q-125 -38 -238 -50q-166 -16 -317 -16q-20 0 -20 23v90q0 20 20 20q61 0 229 4q82 4 127 8
q-82 49 -137 119q-88 113 -88 266q0 194 125.5 318.5t306.5 124.5zM791 309q86 95 86 221q0 135 -92 222.5t-228 87.5q-131 0 -217 -86t-86 -232q0 -116 78 -217q77 -95 211 -139q163 49 248 143z" />
    <glyph glyph-name="uni06A1.fina" unicode="&#x6a1;" horiz-adv-x="1994" 
d="M1423 973q188 0 312.5 -126t124.5 -312q0 -142 -91 -259q-60 -79 -157 -133l125 -8q47 -2 137 -2h121q20 0 20 -20v-90q0 -23 -20 -23q-154 0 -332 16q-126 15 -248 50q-126 -38 -237 -50q-166 -16 -318 -16q-20 0 -20 23v90q0 20 20 20q62 0 230 4q82 4 127 8
q-84 50 -138 119q-88 113 -88 266q0 194 125.5 318.5t306.5 124.5zM1651 309q86 95 86 221q0 135 -92 222.5t-228 87.5q-131 0 -217 -86t-86 -232q0 -116 78 -217q77 -95 211 -139q163 49 248 143zM152 795h112q-37 -201 -37 -328q0 -175 96 -254.5t300 -79.5h249
q21 0 21 -20v-90q0 -23 -21 -23h-276q-233 0 -362.5 110.5t-129.5 323.5q0 143 48 361z" />
    <glyph glyph-name="uni06AA.init" unicode="&#x6aa;" horiz-adv-x="1628" 
d="M592 1485h153l-546 -625h837q227 0 358.5 -116.5t131.5 -325.5q0 -184 -126.5 -301t-322.5 -117h-1077q-20 0 -20 23v90q0 20 20 20h1053q160 0 255 76.5t95 206.5q0 149 -92 230t-260 81h-930l-72 133z" />
    <glyph glyph-name="uni06AA.medi" unicode="&#x6aa;" horiz-adv-x="1742" 
d="M592 1485h153l-546 -625h837q227 0 358.5 -116.5t131.5 -325.5q0 -184 -126.5 -301t-322.5 -117h-1077q-20 0 -20 23v90q0 20 20 20h1053q160 0 255 76.5t95 206.5q0 149 -92 230t-260 81h-930l-72 133zM1346 184l77 78q79 -74 145.5 -101.5t174.5 -27.5q20 0 20 -20v-90
q0 -23 -20 -23q-120 0 -207.5 39.5t-189.5 144.5z" />
    <glyph glyph-name="uni06AA.fina" unicode="&#x6aa;" horiz-adv-x="1943" 
d="M801 1485h153l-546 -625h837q227 0 358.5 -116.5t131.5 -325.5q0 -184 -126.5 -301t-322.5 -117h-823q-130 0 -218.5 35t-203.5 129l74 96q103 -74 176 -100.5t172 -26.5h799q160 0 255 76.5t95 206.5q0 149 -92 230t-260 81h-930l-72 133zM1546 184l78 78
q79 -74 145.5 -101.5t174.5 -27.5q20 0 20 -20v-90q0 -23 -20 -23q-120 0 -208 39.5t-190 144.5z" />
    <glyph glyph-name="uni06C2.fina" unicode="&#x6c2;" horiz-adv-x="1099" 
d="M772 1102h123v-758q0 -108 47.5 -159.5t157.5 -51.5q20 0 20 -20v-90q0 -23 -20 -23q-171 0 -250 88l-8 10q-92 -47 -166 -71q-86 -27 -172 -27q-178 0 -290 106t-112 277q0 66 19.5 130.5t60 129t112.5 124t169 103.5q128 59 309 80v152zM575 791q-162 -57 -256 -161.5
t-94 -236.5q0 -117 77 -188.5t206 -71.5q146 0 283 64q-19 68 -19 149v490q-114 -13 -197 -45zM881 1333h202l-30 -102h-322q-75 0 -153 -25v99q76 28 149 28l-18 23q-31 48 -31 94q0 79 53 128.5t133 49.5q56 0 142 -39v-102q-69 29 -125 29q-46 0 -72.5 -25t-26.5 -64
q0 -38 29 -66t70 -28z" />
    <glyph glyph-name="uni06C3.fina" unicode="&#x6c3;" horiz-adv-x="1251" 
d="M602 860q134 0 220 -95t179 -333q18 -47 29 -72t30.5 -67t37 -65t41.5 -48t52 -36t60 -11q21 0 21 -20v-90q0 -23 -21 -23q-117 0 -202 88t-162 295q-73 196 -132 270t-155 74q-98 0 -174.5 -83t-167.5 -286l-76 -172l-100 47l76 173q104 239 209.5 346.5t234.5 107.5z
M621 1208l131 129l129 -129l-129 -129zM319 1208l130 129l131 -129l-131 -129z" />
    <glyph glyph-name="uniFB51" unicode="&#x671;" horiz-adv-x="581" arabic-form="final" 
d="M184 1229h123v-844q0 -128 66.5 -190t208.5 -62q20 0 20 -20v-90q0 -23 -20 -23q-398 0 -398 391v838zM352 1651q75 0 129 -50t54 -122q0 -96 -81 -147.5t-231 -51.5q-125 0 -280 61l32 91q45 -18 74 -25l82 104q65 74 116.5 107t104.5 33zM215 1382q94 0 145.5 25
t51.5 72q0 30 -23.5 48.5t-56.5 18.5q-62 0 -148 -102l-47 -58q54 -4 78 -4z" />
    <glyph glyph-name="uniFB57" unicode="&#x67e;" horiz-adv-x="1724" arabic-form="final" 
d="M1397 758h112q0 -236 -20 -367q-11 -92 -41 -170l31 -20q54 -38 108 -53t137 -15q21 0 21 -20v-90q0 -23 -21 -23q-92 0 -160.5 20.5t-138.5 73.5l-32 25q-39 -45 -95 -74q-74 -42 -174 -45h-4h-10h-6h-510q-233 0 -362.5 110.5t-129.5 323.5q0 177 70 467h113
q-60 -283 -60 -434q0 -175 96 -254.5t300 -79.5h483h6h10h4q68 3 123 31q60 31 90 86q34 63 47 172t13 336zM915 -295l132 129l129 -129l-129 -131zM573 -295l129 129l132 -129l-132 -131zM776 -528l103 104l104 -104l-102 -103z" />
    <glyph glyph-name="uniFB58" unicode="&#x67e;" horiz-adv-x="667" arabic-form="initial" 
d="M367 993h122q62 -425 62 -602q0 -391 -397 -391h-154q-20 0 -20 23v90q0 20 20 20h154q284 0 284 252q0 84 -15 210.5t-56 397.5zM301 -303l131 129l129 -129l-129 -131zM162 -537l102 105l105 -105l-103 -102zM-41 -303l129 129l131 -129l-131 -131z" />
    <glyph glyph-name="uniFB59" unicode="&#x67e;" horiz-adv-x="757" arabic-form="medial" 
d="M342 758h113q0 -345 -41 -486q79 -67 151 -102q81 -37 193 -37q20 0 20 -20v-90q0 -23 -20 -23q-115 0 -221 47q-89 39 -170 117q-49 -74 -138 -117q-100 -47 -229 -47q-20 0 -20 23v90q0 20 20 20q116 0 182 28t101 91q36 61 47.5 161t11.5 345zM369 -307l131 129
l129 -129l-129 -131zM229 -541l103 105l104 -105l-102 -102zM27 -307l129 129l131 -129l-131 -131z" />
    <glyph glyph-name="uniFB67" unicode="&#x679;" horiz-adv-x="1724" arabic-form="final" 
d="M1397 758h112q0 -236 -20 -367q-11 -92 -41 -170l31 -20q54 -38 108 -53t137 -15q21 0 21 -20v-90q0 -23 -21 -23q-92 0 -160.5 20.5t-138.5 73.5l-32 25q-39 -45 -95 -74q-74 -42 -174 -45h-4h-10h-6h-510q-233 0 -362.5 110.5t-129.5 323.5q0 177 70 467h113
q-60 -283 -60 -434q0 -175 96 -254.5t300 -79.5h489q78 0 137 30.5t90 86.5q34 63 47 172t13 336zM707 1372h102v-172l-14 -67l4 4q143 159 260 159q80 0 137 -51t57 -125q0 -104 -96 -161.5t-264 -57.5h-248l-61 103h108q9 9 15 18v350zM784 1004h101q117 0 181 30.5
t64 85.5q0 31 -26.5 52.5t-71.5 21.5q-39 0 -83 -32.5t-118 -108.5z" />
    <glyph glyph-name="uniFB68" unicode="&#x679;" horiz-adv-x="772" arabic-form="initial" 
d="M367 993h122q62 -425 62 -602q0 -391 -397 -391h-154q-20 0 -20 23v90q0 20 20 20h154q284 0 284 252q0 84 -15 210.5t-56 397.5zM164 1573h102v-172l-14 -68l6 4q138 160 258 160q80 0 137.5 -51t57.5 -125q0 -104 -96.5 -161.5t-264.5 -57.5h-248l-61 102h111l12 19
v350zM244 1204h98q117 0 181.5 30.5t64.5 86.5q0 31 -27 52.5t-72 21.5q-39 0 -84.5 -33.5t-113.5 -108.5z" />
    <glyph glyph-name="uniFB69" unicode="&#x679;" horiz-adv-x="757" arabic-form="medial" 
d="M342 758h113q0 -345 -41 -486q79 -67 151 -102q81 -37 193 -37q20 0 20 -20v-90q0 -23 -20 -23q-115 0 -221 47q-89 39 -170 117q-49 -74 -138 -117q-100 -47 -229 -47q-20 0 -20 23v90q0 20 20 20q116 0 182 28t101 91q36 61 47.5 161t11.5 345zM164 1374h102v-172
l-14 -67l6 4q137 159 258 159q80 0 137.5 -51t57.5 -125q0 -104 -96.5 -161.5t-264.5 -57.5h-248l-61 103h111l12 18v350zM244 1006h98q117 0 181.5 30.5t64.5 85.5q0 31 -27 52.5t-72 21.5q-40 0 -85 -33.5t-113 -107.5z" />
    <glyph glyph-name="uniFB6B" unicode="&#x6a4;" horiz-adv-x="1994" arabic-form="final" 
d="M1423 973q188 0 312.5 -126t124.5 -312q0 -142 -91 -259q-60 -79 -157 -133l125 -8q47 -2 137 -2h121q20 0 20 -20v-90q0 -23 -20 -23q-154 0 -332 16q-126 15 -248 50q-126 -38 -237 -50q-166 -16 -318 -16q-20 0 -20 23v90q0 20 20 20q62 0 230 4q82 4 127 8
q-84 50 -138 119q-88 113 -88 266q0 194 125.5 318.5t306.5 124.5zM1651 309q86 95 86 221q0 135 -92 222.5t-228 87.5q-131 0 -217 -86t-86 -232q0 -116 78 -217q77 -95 211 -139q163 49 248 143zM152 795h112q-37 -201 -37 -328q0 -175 96 -254.5t300 -79.5h249
q21 0 21 -20v-90q0 -23 -21 -23h-276q-233 0 -362.5 110.5t-129.5 323.5q0 143 48 361zM1466 1317l131 131l129 -131l-129 -129zM1124 1317l129 131l131 -131l-131 -129zM1325 1546l102 105l105 -105l-102 -102z" />
    <glyph glyph-name="uniFB6C" unicode="&#x6a4;" horiz-adv-x="1062" arabic-form="initial" 
d="M530 973q183 0 307 -132.5t124 -324.5q0 -248 -145 -382t-413 -134h-403q-20 3 -20 23v90q0 20 20 20h248l-8 19q-12 26 -54 100q-53 89 -75.5 160.5t-22.5 144.5q0 83 35 159.5t94 133t141 90t172 33.5zM367 133h65q184 0 294 92.5t110 266.5q0 157 -89 251.5t-237 94.5
q-124 0 -211.5 -85.5t-87.5 -205.5q0 -104 80 -252q31 -54 49 -98zM598 1317l131 131l129 -131l-129 -129zM256 1317l129 131l131 -131l-131 -129zM457 1546l102 105l105 -105l-103 -102z" />
    <glyph glyph-name="uniFB6D" unicode="&#x6a4;" horiz-adv-x="1134" arabic-form="medial" 
d="M563 973q188 0 312 -126t124 -312q0 -143 -90 -259q-60 -79 -157 -133l125 -8q47 -2 137 -2h121q20 0 20 -20v-90q0 -23 -20 -23q-154 0 -332 16q-126 15 -248 50q-125 -38 -238 -50q-166 -16 -317 -16q-20 0 -20 23v90q0 20 20 20q61 0 229 4q82 4 127 8
q-82 49 -137 119q-88 113 -88 266q0 194 125.5 318.5t306.5 124.5zM791 309q86 95 86 221q0 135 -92 222.5t-228 87.5q-131 0 -217 -86t-86 -232q0 -116 78 -217q77 -95 211 -139q163 49 248 143zM606 1317l131 131l129 -131l-129 -129zM264 1317l129 131l131 -131
l-131 -129zM465 1546l102 105l105 -105l-103 -102z" />
    <glyph glyph-name="uniFB7B" unicode="&#x686;" horiz-adv-x="1333" arabic-form="final" 
d="M410 1102q68 0 135 -31t135.5 -86t141 -116.5t182.5 -137t229 -133.5l-33 -125q-47 0 -129 -4v-162q0 -174 262 -174q21 0 21 -20v-90q0 -23 -21 -23q-174 0 -269 75t-95 214v172q-109 -15 -197 -39q-264 -71 -405.5 -213.5t-141.5 -310.5q0 -188 156 -314l-98 -53
q-86 62 -133.5 157.5t-47.5 207.5q0 86 29 168t89 162.5t165.5 151t247.5 120.5q162 55 387 73q-97 58 -152 101q-44 35 -107 88.5t-100.5 84t-85 63t-90 47t-86.5 14.5q-100 0 -245 -51v112q49 30 120.5 51t135.5 21zM766 -139l131 129l129 -129l-129 -131zM424 -139
l129 129l131 -129l-131 -131zM627 -373l102 105l105 -105l-103 -102z" />
    <glyph glyph-name="uniFB7C" unicode="&#x686;" horiz-adv-x="1243" arabic-form="initial" 
d="M387 952q69 0 132.5 -27t128 -76t132.5 -103.5t175 -124t227 -123.5l-33 -125q-98 -21 -184 -54t-147.5 -66.5t-123.5 -70.5t-127.5 -69t-142 -57.5t-184 -40.5t-238.5 -15q-22 0 -22 23v90q0 20 22 20q136 0 246 16t197.5 48t149.5 62t147.5 76t144.5 73q66 26 117 43
q-107 52 -183 110q-36 28 -99 78.5t-94.5 74t-78.5 53t-87.5 41t-84.5 11.5q-101 0 -246 -51v113q49 30 120.5 50.5t135.5 20.5zM633 -311l131 129l129 -129l-129 -131zM494 -545l102 105l104 -105l-102 -102zM291 -311l129 129l131 -129l-131 -131z" />
    <glyph glyph-name="uniFB7D" unicode="&#x686;" horiz-adv-x="1292" arabic-form="medial" 
d="M387 952q69 0 132.5 -27t128 -76t132.5 -103.5t175 -124t227 -123.5l-33 -125q-22 -4 -90 -23v-53q0 -78 53 -121t180 -43q21 0 21 -20v-90q0 -23 -21 -23q-90 0 -156.5 23t-105 63.5t-56.5 91t-18 111.5v26l-18 -8q-76 -30 -160.5 -77t-149.5 -83.5t-150.5 -72
t-204.5 -55t-271 -19.5q-22 0 -22 23v90q0 20 22 20q136 0 246 16t197.5 48t149.5 62t147.5 76t144.5 73q66 26 117 43q-107 52 -183 110q-36 28 -99 78.5t-94.5 74t-78.5 53t-87.5 41t-84.5 11.5q-101 0 -246 -51v113q49 30 120.5 50.5t135.5 20.5zM633 -311l131 129
l129 -129l-129 -131zM291 -311l129 129l131 -129l-131 -131zM494 -545l102 105l104 -105l-102 -102z" />
    <glyph glyph-name="uniFB89" unicode="&#x688;" horiz-adv-x="1071" arabic-form="final" 
d="M41 70v123q123 -35 202.5 -47.5t168.5 -12.5q186 0 354 60q-43 74 -68 163q-90 289 -151 637h133q24 -168 64.5 -348t78.5 -291q38 -121 94.5 -171t153.5 -50q21 0 21 -20v-90q0 -23 -21 -23q-146 0 -240 104q-109 -54 -198 -77q-102 -27 -221 -27q-103 0 -173.5 13.5
t-197.5 56.5zM332 1573h102v-172l-14 -68l6 4q138 160 258 160q80 0 137.5 -51t57.5 -125q0 -104 -96.5 -161.5t-264.5 -57.5h-248l-61 102h110l13 19v350zM412 1204h98q117 0 181.5 30.5t64.5 86.5q0 31 -27 52.5t-72 21.5q-39 0 -84.5 -33.5t-113.5 -108.5z" />
    <glyph glyph-name="uniFB8B" unicode="&#x698;" horiz-adv-x="684" arabic-form="final" 
d="M268 901h123q34 -258 49 -420l15 -123q7 -63 26 -108t40.5 -67t55 -34t54.5 -14t53 -2q21 0 21 -20v-90q0 -23 -21 -23q-118 0 -195 74q-20 20 -26 30v-45q0 -244 -137 -371.5t-367 -127.5v123q169 0 279 98t110 280q0 278 -80 840zM-2 1212l129 131l131 -131l-131 -129z
M340 1212l131 131l129 -131l-129 -129zM199 1442l102 104l105 -104l-103 -103z" />
    <glyph glyph-name="uniFB8D" unicode="&#x691;" horiz-adv-x="684" arabic-form="final" 
d="M268 901h123q34 -258 49 -420l15 -123q7 -63 26 -108t40.5 -67t55 -34t54.5 -14t53 -2q21 0 21 -20v-90q0 -23 -21 -23q-118 0 -195 74q-20 20 -26 30v-45q0 -244 -137 -371.5t-367 -127.5v123q169 0 279 98t110 280q0 278 -80 840zM78 1485h102v-172l-14 -68l4 4
q144 160 260 160q80 0 137.5 -51t57.5 -125q0 -104 -96.5 -161.5t-264.5 -57.5h-248l-61 102h108q7 7 15 19v350zM156 1116h100q117 0 181.5 30.5t64.5 86.5q0 31 -27 52.5t-72 21.5q-38 0 -81.5 -32.5t-118.5 -109.5z" />
    <glyph glyph-name="uniFB8F" unicode="&#x6a9;" horiz-adv-x="2021" arabic-form="final" 
d="M174 901h113q-60 -283 -60 -434q0 -175 96 -254.5t300 -79.5h499q21 0 21 -20v-90q0 -23 -21 -23h-526q-233 0 -362.5 110.5t-129.5 323.5q0 177 70 467zM1554 1628h195v-8l-807 -598l387 -170q227 -100 336 -210t109 -247q0 -173 -145.5 -284t-387.5 -111h-582
q-20 0 -20 23v90q0 20 20 20h596q168 0 282 73t114 187q0 92 -86.5 169.5t-290.5 168.5l-481 213v123zM1624 184l78 78q79 -74 145.5 -101.5t173.5 -27.5q21 0 21 -20v-90q0 -23 -21 -23q-120 0 -207.5 39.5t-189.5 144.5z" />
    <glyph glyph-name="uniFB90" unicode="&#x6a9;" horiz-adv-x="1196" arabic-form="initial" 
d="M895 1628h195v-8l-807 -598l387 -170q226 -100 335 -210t109 -247q0 -173 -145 -284t-387 -111h-582q-20 0 -20 23v90q0 20 20 20h596q168 0 281.5 73t113.5 187q0 92 -86.5 169.5t-290.5 168.5l-481 213v123z" />
    <glyph glyph-name="uniFB91" unicode="&#x6a9;" horiz-adv-x="1335" arabic-form="medial" 
d="M895 1628h195v-8l-807 -598l387 -170q226 -100 335 -210t109 -247q0 -173 -145 -284t-387 -111h-582q-20 0 -20 23v90q0 20 20 20h596q168 0 281.5 73t113.5 187q0 92 -86.5 169.5t-290.5 168.5l-481 213v123zM938 184l78 78q79 -74 145.5 -101.5t173.5 -27.5
q21 0 21 -20v-90q0 -23 -21 -23q-120 0 -207.5 39.5t-189.5 144.5z" />
    <glyph glyph-name="uniFB93" unicode="&#x6af;" horiz-adv-x="2021" arabic-form="final" 
d="M174 901h113q-60 -283 -60 -434q0 -175 96 -254.5t300 -79.5h499q21 0 21 -20v-90q0 -23 -21 -23h-526q-233 0 -362.5 110.5t-129.5 323.5q0 177 70 467zM1554 1628h195v-8l-807 -598l387 -170q227 -100 336 -210t109 -247q0 -173 -145.5 -284t-387.5 -111h-582
q-20 0 -20 23v90q0 20 20 20h596q168 0 282 73t114 187q0 92 -86.5 169.5t-290.5 168.5l-481 213v123zM1624 184l78 78q79 -74 145.5 -101.5t173.5 -27.5q21 0 21 -20v-90q0 -23 -21 -23q-120 0 -207.5 39.5t-189.5 144.5zM1212 1628v-8l-602 -428l-63 82l502 354h163z" />
    <glyph glyph-name="uniFB94" unicode="&#x6af;" horiz-adv-x="1441" arabic-form="initial" 
d="M1141 1628h194v-8l-807 -598l387 -170q227 -100 336 -210t109 -247q0 -173 -145.5 -284t-387.5 -111h-581q-21 0 -21 23v90q0 20 21 20h596q168 0 281.5 73t113.5 187q0 92 -86.5 169.5t-290.5 168.5l-481 213v123zM745 1628v-8l-602 -428l-63 82l502 354h163zM0 133h397
q21 0 21 -20v-90q0 -23 -21 -23h-397q-20 0 -20 23v90q0 20 20 20z" />
    <glyph glyph-name="uniFB95" unicode="&#x6af;" horiz-adv-x="1560" arabic-form="medial" 
d="M1120 1628h195v-8l-807 -598l387 -170q226 -100 335 -210t109 -247q0 -173 -145 -284t-387 -111h-582q-20 0 -20 23v90q0 20 20 20h596q168 0 282 73t114 187q0 92 -86.5 169.5t-290.5 168.5l-482 213v123zM1163 184l78 78q79 -74 145.5 -101.5t174.5 -27.5q20 0 20 -20
v-90q0 -23 -20 -23q-120 0 -208 39.5t-190 144.5zM725 1628v-8l-602 -428l-64 82l502 354h164zM0 133h397q21 0 21 -20v-90q0 -23 -21 -23h-397q-20 0 -20 23v90q0 20 20 20z" />
    <glyph glyph-name="uniFB9F" unicode="&#x6ba;" horiz-adv-x="1366" arabic-form="final" 
d="M950 901h123q68 -451 68 -698q0 -30 -4 -88q-43 70 -43 184v182h28l15 -123q7 -63 26 -108t40.5 -67t55 -34t54.5 -14t53 -2q20 0 20 -20v-90q0 -23 -20 -23q-118 0 -195 74q-12 10 -34 41q-6 -92 -27 -168q-44 -184 -173 -285.5t-345 -101.5q-234 0 -362 141.5
t-128 398.5q0 209 93 484h112q-92 -234 -92 -453q0 -438 393 -438q218 0 318 121.5t100 388.5q0 118 -17 266.5t-59 431.5z" />
    <glyph glyph-name="uniFBA7" unicode="&#x6c1;" horiz-adv-x="1251" arabic-form="final" 
d="M602 860q134 0 220 -95t179 -333q18 -47 29 -72t30.5 -67t37 -65t41.5 -48t52 -36t60 -11q21 0 21 -20v-90q0 -23 -21 -23q-117 0 -202 88t-162 295q-73 196 -132 270t-155 74q-98 0 -174.5 -83t-167.5 -286l-76 -172l-100 47l76 173q104 239 209.5 346.5t234.5 107.5z
" />
    <glyph glyph-name="uniFBA8" unicode="&#x6c1;" horiz-adv-x="561" arabic-form="initial" 
d="M178 -160h111l-107 -225h92l-30 -178h-178v174zM213 993h123q61 -418 61 -602q0 -391 -397 -391q-20 0 -20 23v90q0 20 20 20q285 0 285 252q0 83 -15 207.5t-57 400.5z" />
    <glyph glyph-name="uniFBA9" unicode="&#x6c1;" horiz-adv-x="1484" arabic-form="medial" 
d="M285 758h123v-738q0 -238 124 -344q113 -98 361 -104v182q0 183 93.5 281t266.5 98h232q20 0 20 -22v-91q0 -20 -20 -20h-232q-108 0 -172.5 -66t-64.5 -200v-164l-98 -133q-331 0 -482 143.5t-151 458.5v51q-21 -24 -52 -41q-80 -49 -233 -49q-20 0 -20 23v90
q0 20 20 20q37 0 73 4t75.5 15.5t69 30t48.5 49t19 69.5v457zM1274 -160h110l-106 -225h92l-31 -178h-178v174z" />
    <glyph glyph-name="uniFBAB" unicode="&#x6be;" horiz-adv-x="1247" arabic-form="final" 
d="M692 1126h96q135 -135 221.5 -287.5t86.5 -279.5q0 -158 -121 -285q-40 -40 -92 -77q137 -64 364 -64q21 0 21 -22v-91q0 -20 -21 -20q-73 0 -137 12q-28 6 -78 21q33 -45 51 -84q31 -73 31 -137q0 -115 -90 -183.5t-238 -68.5q-112 0 -208.5 46.5t-165.5 133.5
q-65 80 -105 190q-106 -63 -196 -135l-70 88q122 104 229 162l4 4q-12 77 -12 162q0 242 112 474.5t318 440.5zM387 106l39 19q87 40 217 94q170 71 250 149.5t80 184.5q0 179 -166 383q-22 28 -70 80q-67 -66 -125 -146q-107 -142 -169 -310.5t-62 -336.5q0 -65 6 -117z
M662 88q-138 -52 -246 -102q2 -2 2 -9q55 -146 159 -215t230 -69q88 0 141 37t53 98q0 76 -51 147q-53 80 -159 168q-69 -34 -129 -55z" />
    <glyph glyph-name="uniFBAC" unicode="&#x6be;" horiz-adv-x="1519" arabic-form="initial" 
d="M487 1219l2 133q180 0 332 -38t260.5 -105t185 -158.5t113.5 -200t37 -227.5q0 -215 -123 -533l-127 -117q-144 0 -319 31q-138 23 -279 68l-96 -29q-193 -43 -473 -43q-20 0 -20 23v90q0 20 20 20q65 0 217 4q89 4 131 10q-76 49 -129 117q-88 113 -88 266
q0 195 121 319t301 124q188 0 307 -125.5t119 -312.5q0 -146 -88 -259q-55 -72 -152 -131q133 -21 207 -28q132 -15 228 -15q50 101 85 245.5t35 256.5q0 56 -12 113.5t-40 118.5t-70 116t-107 104.5t-146 85t-192 56.5t-240 21zM770 309q86 95 86 221q0 137 -86.5 223.5
t-222.5 86.5q-129 0 -211 -86t-82 -232q0 -119 76 -217q78 -96 202 -139q158 51 238 143z" />
    <glyph glyph-name="uniFBAD" unicode="&#x6be;" horiz-adv-x="1132" arabic-form="medial" 
d="M578 1126h96q134 -116 220.5 -269.5t86.5 -297.5q0 -135 -72 -242q-48 -72 -123 -127q129 -57 347 -57q20 0 20 -22v-91q0 -20 -20 -20q-73 0 -138 12q-24 5 -77 21q33 -45 51 -84q30 -70 30 -137q0 -115 -89.5 -183.5t-237.5 -68.5q-164 0 -293.5 103t-190.5 276l-20 65
q-110 -4 -168 -4q-20 0 -20 23v90q0 20 20 20q56 0 150 4v53q0 94 19.5 198.5t64.5 229t133.5 258t210.5 250.5zM639 248q219 115 219 305q0 197 -166 385q-34 44 -69 78q-101 -95 -162 -191q-102 -158 -149.5 -322t-47.5 -290q0 -46 2 -66q227 24 373 101zM401 35l-114 -19
q5 -20 16 -51q37 -97 101.5 -160t135 -87.5t152.5 -24.5q88 0 141.5 37t53.5 98q0 76 -51 147q-56 78 -146 156q-114 -60 -289 -96z" />
    <glyph glyph-name="uniFBAF" unicode="&#x6d2;" horiz-adv-x="1490" arabic-form="final" 
d="M532 133h959q20 0 20 -20v-90q0 -23 -20 -23h-1006q-260 0 -260 -154q0 -81 72.5 -117t234.5 -36h689l-56 -133h-583q-252 0 -366 68t-114 220q0 136 110.5 210.5t319.5 74.5z" />
    <glyph glyph-name="uniFBB1" unicode="&#x6d3;" horiz-adv-x="1490" arabic-form="final" 
d="M532 133h959q20 0 20 -20v-90q0 -23 -20 -23h-1006q-260 0 -260 -154q0 -81 72.5 -117t234.5 -36h689l-56 -133h-583q-252 0 -366 68t-114 220q0 136 110.5 210.5t319.5 74.5zM731 584h197l-35 -113h-240q-106 0 -217 -35v107q83 27 105 32l28 7q-45 45 -45 106
q0 78 54.5 130t136.5 52q79 0 147 -36v-103q-79 27 -133 27q-44 0 -73 -23t-29 -63q0 -42 35 -66q24 -19 69 -22z" />
    <glyph glyph-name="uniFBFD" unicode="&#x6cc;" horiz-adv-x="1396" arabic-form="final" 
d="M1006 70v123q139 -36 219.5 -48t171.5 -12q20 0 20 -20v-90q0 -23 -20 -23h-31q-102 -209 -252 -317q-169 -123 -420 -123q-592 0 -592 540q0 209 93 484h112q-92 -234 -92 -453q0 -224 120.5 -331t381.5 -107q296 0 463 213q38 44 67 106l-24 4q-93 16 -217 54z" />
    <glyph glyph-name="uniFBFE" unicode="&#x6cc;" horiz-adv-x="667" arabic-form="initial" 
d="M367 993h122q62 -425 62 -602q0 -391 -397 -391h-154q-20 0 -20 23v90q0 20 20 20h154q284 0 284 252q0 84 -15 210.5t-56 397.5zM276 -313l132 129l129 -129l-129 -129zM-25 -313l129 129l132 -129l-132 -129z" />
    <glyph glyph-name="uniFBFF" unicode="&#x6cc;" horiz-adv-x="757" arabic-form="medial" 
d="M342 758h113q0 -345 -41 -486q79 -67 151 -102q81 -37 193 -37q20 0 20 -20v-90q0 -23 -20 -23q-115 0 -221 47q-89 39 -170 117q-49 -74 -138 -117q-100 -47 -229 -47q-20 0 -20 23v90q0 20 20 20q116 0 182 28t101 91q36 61 47.5 161t11.5 345zM373 -311l131 129
l129 -129l-129 -129zM72 -311l129 129l131 -129l-131 -129z" />
    <glyph glyph-name="uniFC02" unicode="&#xfc02;" horiz-adv-x="1101" arabic-form="isolated" 
d="M834 1090h20l74 -78q-137 -125 -188.5 -215t-51.5 -211q0 -118 39 -203q28 -63 76 -129q21 -7 57 -25q108 -51 160 -84l-55 -108q-72 20 -142 49q-68 31 -118 66q-76 29 -158 47q-82 16 -150 16q-101 0 -146.5 -49.5t-45.5 -173.5q0 -94 15.5 -209.5t55.5 -345.5h-122
q-41 228 -56.5 354t-15.5 232q0 162 82 243.5t227 81.5q75 0 158 -18q44 -8 86 -21q-23 52 -37 94q-33 103 -33 191q0 284 269 496zM850 1358h197l-35 -113h-240q-106 0 -217 -35v107q95 31 104 33l29 6q-45 45 -45 106q0 78 54.5 130.5t136.5 52.5q77 0 147 -37v-103
q-80 27 -133 27q-44 0 -73.5 -23t-29.5 -63q0 -42 35 -66q24 -19 70 -22z" />
    <glyph glyph-name="uniFC03" unicode="&#xfc03;" horiz-adv-x="1828" arabic-form="isolated" 
d="M1489 993h123q61 -418 61 -602q0 -185 -96 -289q-72 -78 -209 -96q-103 -213 -254 -323q-169 -123 -420 -123q-592 0 -592 540q0 209 93 484h112q-92 -234 -92 -453q0 -224 120.5 -331t381.5 -107q296 0 463 213q32 37 61 94h-338l23 133h350q285 0 285 252
q0 83 -15 207.5t-57 400.5zM1571 1210h196l-34 -112h-240q-106 0 -217 -35v106q95 31 104 33l29 6q-45 45 -45 107q0 78 54 130t136 52q78 0 148 -37v-102q-77 26 -133 26q-44 0 -73.5 -23t-29.5 -63q0 -41 35 -65q25 -20 70 -23z" />
    <glyph glyph-name="uniFC04" unicode="&#xfc04;" horiz-adv-x="1828" arabic-form="isolated" 
d="M1489 993h123q61 -418 61 -602q0 -185 -96 -289q-72 -78 -209 -96q-103 -213 -254 -323q-169 -123 -420 -123q-592 0 -592 540q0 209 93 484h112q-92 -234 -92 -453q0 -224 120.5 -331t381.5 -107q296 0 463 213q32 37 61 94h-338l23 133h350q285 0 285 252
q0 83 -15 207.5t-57 400.5zM1571 1210h196l-34 -112h-240q-106 0 -217 -35v106q95 31 104 33l29 6q-45 45 -45 107q0 78 54 130t136 52q78 0 148 -37v-102q-77 26 -133 26q-44 0 -73.5 -23t-29.5 -63q0 -41 35 -65q25 -20 70 -23zM856 -713l131 129l129 -129l-129 -129z
M555 -713l129 129l131 -129l-131 -129z" />
    <glyph glyph-name="uniFC08" unicode="&#xfc08;" horiz-adv-x="1101" arabic-form="isolated" 
d="M834 1090h20l74 -78q-137 -125 -188.5 -215t-51.5 -211q0 -118 39 -203q28 -63 76 -129q21 -7 57 -25q108 -51 160 -84l-55 -108q-72 20 -142 49q-68 31 -118 66q-76 29 -158 47q-82 16 -150 16q-101 0 -146.5 -49.5t-45.5 -173.5q0 -94 15.5 -209.5t55.5 -345.5h-122
q-41 228 -56.5 354t-15.5 232q0 162 82 243.5t227 81.5q75 0 158 -18q44 -8 86 -21q-23 52 -37 94q-33 103 -33 191q0 284 269 496zM516 -309l129 129l131 -129l-129 -129z" />
    <glyph glyph-name="uniFC09" unicode="&#xfc09;" horiz-adv-x="1796" arabic-form="isolated" 
d="M1489 993h123q61 -418 61 -602q0 -185 -96 -289q-72 -78 -209 -96q-103 -213 -254 -323q-169 -123 -420 -123q-592 0 -592 540q0 209 93 484h112q-92 -234 -92 -453q0 -224 120.5 -331t381.5 -107q296 0 463 213q32 37 61 94h-338l23 133h350q285 0 285 252
q0 83 -15 207.5t-57 400.5zM1370 -311l129 129l131 -129l-129 -129z" />
    <glyph glyph-name="uniFC0A" unicode="&#xfc0a;" horiz-adv-x="1796" arabic-form="isolated" 
d="M1489 993h123q61 -418 61 -602q0 -185 -96 -289q-72 -78 -209 -96q-103 -213 -254 -323q-169 -123 -420 -123q-592 0 -592 540q0 209 93 484h112q-92 -234 -92 -453q0 -224 120.5 -331t381.5 -107q296 0 463 213q32 37 61 94h-338l23 133h350q285 0 285 252
q0 83 -15 207.5t-57 400.5zM1370 -311l129 129l131 -129l-129 -129zM856 -713l131 129l129 -129l-129 -129zM555 -713l129 129l131 -129l-131 -129z" />
    <glyph glyph-name="uniFC0E" unicode="&#xfc0e;" horiz-adv-x="1101" arabic-form="isolated" 
d="M834 1090h20l74 -78q-137 -125 -188.5 -215t-51.5 -211q0 -118 39 -203q28 -63 76 -129q21 -7 57 -25q108 -51 160 -84l-55 -108q-72 20 -142 49q-68 31 -118 66q-76 29 -158 47q-82 16 -150 16q-101 0 -146.5 -49.5t-45.5 -173.5q0 -94 15.5 -209.5t55.5 -345.5h-122
q-41 228 -56.5 354t-15.5 232q0 162 82 243.5t227 81.5q75 0 158 -18q44 -8 86 -21q-23 52 -37 94q-33 103 -33 191q0 284 269 496zM860 1386l131 130l129 -130l-129 -129zM559 1386l129 130l131 -130l-131 -129z" />
    <glyph glyph-name="uniFC0F" unicode="&#xfc0f;" horiz-adv-x="1880" arabic-form="isolated" 
d="M1489 993h123q61 -418 61 -602q0 -185 -96 -289q-72 -78 -209 -96q-103 -213 -254 -323q-169 -123 -420 -123q-592 0 -592 540q0 209 93 484h112q-92 -234 -92 -453q0 -224 120.5 -331t381.5 -107q296 0 463 213q32 37 61 94h-338l23 133h350q285 0 285 252
q0 83 -15 207.5t-57 400.5zM1559 1305l131 129l129 -129l-129 -129zM1257 1305l129 129l132 -129l-132 -129z" />
    <glyph glyph-name="uniFC10" unicode="&#xfc10;" horiz-adv-x="1880" arabic-form="isolated" 
d="M1489 993h123q61 -418 61 -602q0 -185 -96 -289q-72 -78 -209 -96q-103 -213 -254 -323q-169 -123 -420 -123q-592 0 -592 540q0 209 93 484h112q-92 -234 -92 -453q0 -224 120.5 -331t381.5 -107q296 0 463 213q32 37 61 94h-338l23 133h350q285 0 285 252
q0 83 -15 207.5t-57 400.5zM1559 1305l131 129l129 -129l-129 -129zM1257 1305l129 129l132 -129l-132 -129zM856 -713l131 129l129 -129l-129 -129zM555 -713l129 129l131 -129l-131 -129z" />
    <glyph glyph-name="uniFC12" unicode="&#xfc12;" horiz-adv-x="1101" arabic-form="isolated" 
d="M834 1090h20l74 -78q-137 -125 -188.5 -215t-51.5 -211q0 -118 39 -203q28 -63 76 -129q21 -7 57 -25q108 -51 160 -84l-55 -108q-72 20 -142 49q-68 31 -118 66q-76 29 -158 47q-82 16 -150 16q-101 0 -146.5 -49.5t-45.5 -173.5q0 -94 15.5 -209.5t55.5 -345.5h-122
q-41 228 -56.5 354t-15.5 232q0 162 82 243.5t227 81.5q75 0 158 -18q44 -8 86 -21q-23 52 -37 94q-33 103 -33 191q0 284 269 496zM879 1419l131 131l129 -131l-129 -129zM537 1419l129 131l131 -131l-131 -129zM737 1649l103 104l104 -104l-102 -103z" />
    <glyph glyph-name="uniFC13" unicode="&#xfc13;" horiz-adv-x="1896" arabic-form="isolated" 
d="M1489 993h123q61 -418 61 -602q0 -185 -96 -289q-72 -78 -209 -96q-103 -213 -254 -323q-169 -123 -420 -123q-592 0 -592 540q0 209 93 484h112q-92 -234 -92 -453q0 -224 120.5 -331t381.5 -107q296 0 463 213q32 37 61 94h-338l23 133h350q285 0 285 252
q0 83 -15 207.5t-57 400.5zM1575 1315l131 131l129 -131l-129 -129zM1233 1315l129 131l131 -131l-131 -129zM1434 1544l102 105l104 -105l-102 -102z" />
    <glyph glyph-name="uniFC14" unicode="&#xfc14;" horiz-adv-x="1896" arabic-form="isolated" 
d="M1489 993h123q61 -418 61 -602q0 -185 -96 -289q-72 -78 -209 -96q-103 -213 -254 -323q-169 -123 -420 -123q-592 0 -592 540q0 209 93 484h112q-92 -234 -92 -453q0 -224 120.5 -331t381.5 -107q296 0 463 213q32 37 61 94h-338l23 133h350q285 0 285 252
q0 83 -15 207.5t-57 400.5zM1575 1315l131 131l129 -131l-129 -129zM1233 1315l129 131l131 -131l-131 -129zM1434 1544l102 105l104 -105l-102 -102zM856 -713l131 129l129 -129l-129 -129zM555 -713l129 129l131 -129l-131 -129z" />
    <glyph glyph-name="uniFC31" unicode="&#xfc31;" horiz-adv-x="1761" arabic-form="isolated" 
d="M1266 1200q155 0 259.5 -100t112.5 -254q21 -424 21 -455q0 -333 -291 -383q-70 -147 -161 -243t-225 -150.5t-308 -54.5q-572 0 -572 540q0 209 93 484h112q-92 -234 -92 -453q0 -438 481 -438q374 0 545 307h-338l23 133h336q154 0 218 69t64 236q-152 -71 -282 -71
q-177 0 -281 100.5t-104 290.5q0 198 110.5 320t278.5 122zM1257 1067q-113 0 -185.5 -82.5t-72.5 -220.5q0 -132 77.5 -198t211.5 -66q132 0 250 43l-18 284q-7 110 -79.5 175t-183.5 65zM1137 1460l129 129l131 -129l-129 -129z" />
    <glyph glyph-name="uniFC32" unicode="&#xfc32;" horiz-adv-x="1761" arabic-form="isolated" 
d="M1266 1200q155 0 259.5 -100t112.5 -254q21 -424 21 -455q0 -333 -291 -383q-70 -147 -161 -243t-225 -150.5t-308 -54.5q-572 0 -572 540q0 209 93 484h112q-92 -234 -92 -453q0 -438 481 -438q374 0 545 307h-338l23 133h336q154 0 218 69t64 236q-152 -71 -282 -71
q-177 0 -281 100.5t-104 290.5q0 198 110.5 320t278.5 122zM1257 1067q-113 0 -185.5 -82.5t-72.5 -220.5q0 -132 77.5 -198t211.5 -66q132 0 250 43l-18 284q-7 110 -79.5 175t-183.5 65zM1137 1460l129 129l131 -129l-129 -129zM795 -713l131 129l129 -129l-129 -129z
M494 -713l129 129l131 -129l-131 -129z" />
    <glyph glyph-name="uniFC35" unicode="&#xfc35;" horiz-adv-x="1761" arabic-form="isolated" 
d="M1266 1200q155 0 259.5 -100t112.5 -254q21 -424 21 -455q0 -333 -291 -383q-70 -147 -161 -243t-225 -150.5t-308 -54.5q-572 0 -572 540q0 209 93 484h112q-92 -234 -92 -453q0 -438 481 -438q374 0 545 307h-338l23 133h336q154 0 218 69t64 236q-152 -71 -282 -71
q-177 0 -281 100.5t-104 290.5q0 198 110.5 320t278.5 122zM1257 1067q-113 0 -185.5 -82.5t-72.5 -220.5q0 -132 77.5 -198t211.5 -66q132 0 250 43l-18 284q-7 110 -79.5 175t-183.5 65zM1290 1464l131 129l129 -129l-129 -129zM989 1464l129 129l131 -129l-131 -129z" />
    <glyph glyph-name="uniFC36" unicode="&#xfc36;" horiz-adv-x="1761" arabic-form="isolated" 
d="M1266 1200q155 0 259.5 -100t112.5 -254q21 -424 21 -455q0 -333 -291 -383q-70 -147 -161 -243t-225 -150.5t-308 -54.5q-572 0 -572 540q0 209 93 484h112q-92 -234 -92 -453q0 -438 481 -438q374 0 545 307h-338l23 133h336q154 0 218 69t64 236q-152 -71 -282 -71
q-177 0 -281 100.5t-104 290.5q0 198 110.5 320t278.5 122zM1257 1067q-113 0 -185.5 -82.5t-72.5 -220.5q0 -132 77.5 -198t211.5 -66q132 0 250 43l-18 284q-7 110 -79.5 175t-183.5 65zM1290 1464l131 129l129 -129l-129 -129zM989 1464l129 129l131 -129l-131 -129z
M815 -713l131 129l129 -129l-129 -129zM514 -713l129 129l131 -129l-131 -129z" />
    <glyph glyph-name="uniFC3D" unicode="&#xfc3d;" horiz-adv-x="2865" arabic-form="isolated" 
d="M2560 1628h195v-8l-803 -598l387 -170q226 -100 335 -210t109 -247q0 -173 -145 -284t-387 -111h-398h-6h-4q-228 0 -340 120t-112 372q0 109 26 256l17 88q-126 -6 -234 -33q-177 -43 -280 -120.5t-103 -168.5q0 -57 35 -96.5t139 -108.5l105 -69q109 -72 156.5 -141
t47.5 -154q0 -178 -150 -281.5t-437 -103.5q-98 0 -186 19t-166.5 60.5t-135.5 103.5t-90 153.5t-33 203.5q0 209 93 484h112q-92 -234 -92 -453q0 -212 144 -325t421 -113q195 0 296.5 67.5t101.5 171.5q0 49 -33.5 90t-124.5 103l-94 63q-133 91 -182.5 156t-49.5 154
q0 188 190.5 311t561.5 164l108 -92q-51 -263 -51 -402q0 -176 81 -261t259 -85h4h6h412q168 0 281.5 73t113.5 187q0 92 -86 169.5t-290 168.5l-482 213v123z" />
    <glyph glyph-name="uniFC3E" unicode="&#xfc3e;" horiz-adv-x="2865" arabic-form="isolated" 
d="M2560 1628h195v-8l-803 -598l387 -170q226 -100 335 -210t109 -247q0 -173 -145 -284t-387 -111h-398h-6h-4q-228 0 -340 120t-112 372q0 109 26 256l17 88q-126 -6 -234 -33q-177 -43 -280 -120.5t-103 -168.5q0 -57 35 -96.5t139 -108.5l105 -69q109 -72 156.5 -141
t47.5 -154q0 -178 -150 -281.5t-437 -103.5q-98 0 -186 19t-166.5 60.5t-135.5 103.5t-90 153.5t-33 203.5q0 209 93 484h112q-92 -234 -92 -453q0 -212 144 -325t421 -113q195 0 296.5 67.5t101.5 171.5q0 49 -33.5 90t-124.5 103l-94 63q-133 91 -182.5 156t-49.5 154
q0 188 190.5 311t561.5 164l108 -92q-51 -263 -51 -402q0 -176 81 -261t259 -85h4h6h412q168 0 281.5 73t113.5 187q0 92 -86 169.5t-290 168.5l-482 213v123zM856 -713l131 129l129 -129l-129 -129zM555 -713l129 129l131 -129l-131 -129z" />
    <glyph glyph-name="uniFC42" unicode="&#xfc42;" horiz-adv-x="999" arabic-form="isolated" 
d="M641 1485h123v-1215q26 -9 96 -41q108 -51 160 -84l-55 -108q-72 20 -142 49q-68 31 -118 66q-76 29 -158 47q-82 16 -150 16q-101 0 -146.5 -49.5t-45.5 -173.5q0 -94 15.5 -209.5t55.5 -345.5h-122q-41 228 -56.5 354t-15.5 232q0 162 82 243.5t227 81.5q75 0 158 -18
q30 -5 102 -27q-2 8 -2 23q-8 60 -8 157v1002z" />
    <glyph glyph-name="uniFC44" unicode="&#xfc44;" horiz-adv-x="1796" arabic-form="isolated" 
d="M1489 1485h123v-1094q0 -185 -96 -289q-50 -56 -142 -84q-51 -104 -102 -174q-201 -284 -598 -284q-572 0 -572 540q0 209 93 484h112q-92 -234 -92 -453q0 -438 481 -438q211 0 357 98q116 75 186 209h-25h-311l23 133h288q142 0 208.5 62t66.5 190v1100zM805 -672
l131 129l129 -129l-129 -129zM504 -672l129 129l131 -129l-131 -129z" />
    <glyph glyph-name="uniFC4E" unicode="&#xfc4e;" horiz-adv-x="1101" arabic-form="isolated" 
d="M834 1090h20l74 -78q-137 -125 -188.5 -215t-51.5 -211q0 -118 39 -203q28 -63 76 -129q21 -7 57 -25q108 -51 160 -84l-55 -108q-72 20 -142 49q-68 31 -118 66q-76 29 -158 47q-82 16 -150 16q-101 0 -146.5 -49.5t-45.5 -173.5q0 -94 15.5 -209.5t55.5 -345.5h-122
q-41 228 -56.5 354t-15.5 232q0 162 82 243.5t227 81.5q75 0 158 -18q44 -8 86 -21q-23 52 -37 94q-33 103 -33 191q0 284 269 496zM711 1376l129 129l131 -129l-129 -129z" />
    <glyph glyph-name="uniFC4F" unicode="&#xfc4f;" horiz-adv-x="1796" arabic-form="isolated" 
d="M1489 993h123q61 -418 61 -602q0 -185 -96 -289q-72 -78 -209 -96q-103 -213 -254 -323q-169 -123 -420 -123q-592 0 -592 540q0 209 93 484h112q-92 -234 -92 -453q0 -224 120.5 -331t381.5 -107q296 0 463 213q32 37 61 94h-338l23 133h350q285 0 285 252
q0 83 -15 207.5t-57 400.5zM1403 1294l129 129l131 -129l-129 -129z" />
    <glyph glyph-name="uniFC50" unicode="&#xfc50;" horiz-adv-x="1796" arabic-form="isolated" 
d="M1489 993h123q61 -418 61 -602q0 -185 -96 -289q-72 -78 -209 -96q-103 -213 -254 -323q-169 -123 -420 -123q-592 0 -592 540q0 209 93 484h112q-92 -234 -92 -453q0 -224 120.5 -331t381.5 -107q296 0 463 213q32 37 61 94h-338l23 133h350q285 0 285 252
q0 83 -15 207.5t-57 400.5zM1403 1294l129 129l131 -129l-129 -129zM856 -713l131 129l129 -129l-129 -129zM555 -713l129 129l131 -129l-131 -129z" />
    <glyph glyph-name="uniFC58" unicode="&#xfc58;" horiz-adv-x="1101" arabic-form="isolated" 
d="M834 1090h20l74 -78q-137 -125 -188.5 -215t-51.5 -211q0 -118 39 -203q28 -63 76 -129q21 -7 57 -25q108 -51 160 -84l-55 -108q-72 20 -142 49q-68 31 -118 66q-76 29 -158 47q-82 16 -150 16q-101 0 -146.5 -49.5t-45.5 -173.5q0 -94 15.5 -209.5t55.5 -345.5h-122
q-41 228 -56.5 354t-15.5 232q0 162 82 243.5t227 81.5q75 0 158 -18q44 -8 86 -21q-23 52 -37 94q-33 103 -33 191q0 284 269 496zM649 -311l131 129l129 -129l-129 -129zM348 -311l129 129l131 -129l-131 -129z" />
    <glyph glyph-name="uniFC64" unicode="&#xfc64;" horiz-adv-x="1241" arabic-form="final" 
d="M928 940l119 -70q-54 -238 -54 -415t56 -249.5t192 -72.5q21 0 21 -20v-90q0 -23 -21 -23q-173 0 -267.5 108.5t-94.5 309.5q0 92 12 200q5 53 27 187l-105 -49q-146 -62 -287 -99l-102 -22q17 -149 25 -273q14 -155 14 -303q0 -244 -137 -371.5t-367 -127.5v123
q169 0 279 98t110 280q0 259 -59 670l20 25q183 16 318.5 59.5t300.5 124.5zM946 1290h197l-35 -112h-240q-106 0 -217 -35v106q93 30 105 33l28 6q-45 45 -45 107q0 78 54.5 130t136.5 52q77 0 147 -37v-102q-77 26 -133 26q-44 0 -73 -23t-29 -63q0 -41 35 -65
q25 -20 69 -23z" />
    <glyph glyph-name="uniFC65" unicode="&#xfc65;" horiz-adv-x="1241" arabic-form="final" 
d="M928 940l119 -70q-54 -238 -54 -415t56 -249.5t192 -72.5q21 0 21 -20v-90q0 -23 -21 -23q-173 0 -267.5 108.5t-94.5 309.5q0 92 12 200q5 53 27 187l-105 -49q-146 -62 -287 -99l-102 -22q17 -149 25 -273q14 -155 14 -303q0 -244 -137 -371.5t-367 -127.5v123
q169 0 279 98t110 280q0 259 -59 670l20 25q183 16 318.5 59.5t300.5 124.5zM170 1157l129 129l131 -129l-129 -129zM946 1290h197l-35 -112h-240q-106 0 -217 -35v106q93 30 105 33l28 6q-45 45 -45 107q0 78 54.5 130t136.5 52q77 0 147 -37v-102q-77 26 -133 26
q-44 0 -73 -23t-29 -63q0 -41 35 -65q25 -20 69 -23z" />
    <glyph glyph-name="uniFC67" unicode="&#xfc67;" horiz-adv-x="1927" arabic-form="final" 
d="M1614 940l119 -70q-54 -238 -54 -415t56 -249.5t192 -72.5q21 0 21 -20v-90q0 -23 -21 -23q-173 0 -267.5 108.5t-94.5 309.5q0 92 12 200q5 53 27 187l-105 -49q-146 -62 -287 -99l-102 -22l20 -203q11 -147 11 -229q0 -143 -30.5 -257.5t-94 -202.5t-171 -135.5
t-253.5 -47.5q-234 0 -362 141.5t-128 398.5q0 209 93 484h112q-92 -234 -92 -453q0 -438 393 -438q218 0 318 121.5t100 388.5q0 171 -51 528l20 25q183 16 318.5 59.5t300.5 124.5zM1599 1290h197l-35 -112h-239q-106 0 -217 -35v106q95 31 104 33l27 6q-43 46 -43 107
q0 78 54 130t136 52q78 0 148 -37v-102q-77 26 -134 26q-44 0 -73 -23t-29 -63q0 -42 33 -65q28 -20 71 -23zM489 963l129 129l132 -129l-129 -129z" />
    <glyph glyph-name="uniFC68" unicode="&#xfc68;" horiz-adv-x="1882" arabic-form="final" 
d="M1446 973l108 -92q-51 -263 -51 -402q0 -169 101.5 -257.5t277.5 -88.5q21 0 21 -20v-90q0 -23 -21 -23q-232 0 -361.5 123t-129.5 369q0 109 26 256l17 88q-126 -6 -234 -33q-177 -43 -280 -120.5t-103 -168.5q0 -57 35 -96.5t139 -108.5l105 -69q109 -72 156.5 -141
t47.5 -154q0 -178 -150 -281.5t-437 -103.5q-98 0 -186 19t-166.5 60.5t-135.5 103.5t-90 153.5t-33 203.5q0 209 93 484h112q-92 -234 -92 -453q0 -212 144 -325t421 -113q195 0 296.5 67.5t101.5 171.5q0 49 -33.5 90t-124.5 103l-94 63q-133 91 -182.5 156t-49.5 154
q0 188 190.5 311t561.5 164zM1341 1305h197l-35 -113h-239q-106 0 -217 -35v107q85 28 104 32l29 7q-45 45 -45 106q0 78 54 130t136 52q78 0 148 -37v-102q-80 27 -134 27q-44 0 -73 -23t-29 -63q0 -42 35 -66q24 -19 69 -22z" />
    <glyph glyph-name="uniFC69" unicode="&#xfc69;" horiz-adv-x="1882" arabic-form="final" 
d="M1446 973l108 -92q-51 -263 -51 -402q0 -169 101.5 -257.5t277.5 -88.5q21 0 21 -20v-90q0 -23 -21 -23q-232 0 -361.5 123t-129.5 369q0 109 26 256l17 88q-126 -6 -234 -33q-177 -43 -280 -120.5t-103 -168.5q0 -57 35 -96.5t139 -108.5l105 -69q109 -72 156.5 -141
t47.5 -154q0 -178 -150 -281.5t-437 -103.5q-98 0 -186 19t-166.5 60.5t-135.5 103.5t-90 153.5t-33 203.5q0 209 93 484h112q-92 -234 -92 -453q0 -212 144 -325t421 -113q195 0 296.5 67.5t101.5 171.5q0 49 -33.5 90t-124.5 103l-94 63q-133 91 -182.5 156t-49.5 154
q0 188 190.5 311t561.5 164zM1341 1305h197l-35 -113h-239q-106 0 -217 -35v107q85 28 104 32l29 7q-45 45 -45 106q0 78 54 130t136 52q78 0 148 -37v-102q-80 27 -134 27q-44 0 -73 -23t-29 -63q0 -42 35 -66q24 -19 69 -22zM856 -713l131 129l129 -129l-129 -129z
M555 -713l129 129l131 -129l-131 -129z" />
    <glyph glyph-name="uniFC6A" unicode="&#xfc6a;" horiz-adv-x="1241" arabic-form="final" 
d="M928 940l119 -70q-54 -238 -54 -415t56 -249.5t192 -72.5q21 0 21 -20v-90q0 -23 -21 -23q-173 0 -267.5 108.5t-94.5 309.5q0 92 12 200q5 53 27 187l-105 -49q-146 -62 -287 -99l-102 -22q17 -149 25 -273q14 -155 14 -303q0 -244 -137 -371.5t-367 -127.5v123
q169 0 279 98t110 280q0 259 -59 670l20 25q183 16 318.5 59.5t300.5 124.5zM623 -309l129 129l131 -129l-129 -129z" />
    <glyph glyph-name="uniFC6B" unicode="&#xfc6b;" horiz-adv-x="1241" arabic-form="final" 
d="M928 940l119 -70q-54 -238 -54 -415t56 -249.5t192 -72.5q21 0 21 -20v-90q0 -23 -21 -23q-173 0 -267.5 108.5t-94.5 309.5q0 92 12 200q5 53 27 187l-105 -49q-146 -62 -287 -99l-102 -22q17 -149 25 -273q14 -155 14 -303q0 -244 -137 -371.5t-367 -127.5v123
q169 0 279 98t110 280q0 259 -59 670l20 25q183 16 318.5 59.5t300.5 124.5zM170 1157l129 129l131 -129l-129 -129zM623 -309l129 129l131 -129l-129 -129z" />
    <glyph glyph-name="uniFC6D" unicode="&#xfc6d;" horiz-adv-x="1927" arabic-form="final" 
d="M1614 940l119 -70q-54 -238 -54 -415t56 -249.5t192 -72.5q21 0 21 -20v-90q0 -23 -21 -23q-173 0 -267.5 108.5t-94.5 309.5q0 92 12 200q5 53 27 187l-105 -49q-146 -62 -287 -99l-102 -22l20 -203q11 -147 11 -229q0 -143 -30.5 -257.5t-94 -202.5t-171 -135.5
t-253.5 -47.5q-234 0 -362 141.5t-128 398.5q0 209 93 484h112q-92 -234 -92 -453q0 -438 393 -438q218 0 318 121.5t100 388.5q0 171 -51 528l20 25q183 16 318.5 59.5t300.5 124.5zM1286 -311l129 129l131 -129l-129 -129zM489 963l129 129l132 -129l-129 -129z" />
    <glyph glyph-name="uniFC6E" unicode="&#xfc6e;" horiz-adv-x="1882" arabic-form="final" 
d="M1446 973l108 -92q-51 -263 -51 -402q0 -169 101.5 -257.5t277.5 -88.5q21 0 21 -20v-90q0 -23 -21 -23q-232 0 -361.5 123t-129.5 369q0 109 26 256l17 88q-126 -6 -234 -33q-177 -43 -280 -120.5t-103 -168.5q0 -57 35 -96.5t139 -108.5l105 -69q109 -72 156.5 -141
t47.5 -154q0 -178 -150 -281.5t-437 -103.5q-98 0 -186 19t-166.5 60.5t-135.5 103.5t-90 153.5t-33 203.5q0 209 93 484h112q-92 -234 -92 -453q0 -212 144 -325t421 -113q195 0 296.5 67.5t101.5 171.5q0 49 -33.5 90t-124.5 103l-94 63q-133 91 -182.5 156t-49.5 154
q0 188 190.5 311t561.5 164zM1434 -311l129 129l131 -129l-129 -129z" />
    <glyph glyph-name="uniFC6F" unicode="&#xfc6f;" horiz-adv-x="1882" arabic-form="final" 
d="M1446 973l108 -92q-51 -263 -51 -402q0 -169 101.5 -257.5t277.5 -88.5q21 0 21 -20v-90q0 -23 -21 -23q-232 0 -361.5 123t-129.5 369q0 109 26 256l17 88q-126 -6 -234 -33q-177 -43 -280 -120.5t-103 -168.5q0 -57 35 -96.5t139 -108.5l105 -69q109 -72 156.5 -141
t47.5 -154q0 -178 -150 -281.5t-437 -103.5q-98 0 -186 19t-166.5 60.5t-135.5 103.5t-90 153.5t-33 203.5q0 209 93 484h112q-92 -234 -92 -453q0 -212 144 -325t421 -113q195 0 296.5 67.5t101.5 171.5q0 49 -33.5 90t-124.5 103l-94 63q-133 91 -182.5 156t-49.5 154
q0 188 190.5 311t561.5 164zM1434 -311l129 129l131 -129l-129 -129zM856 -713l131 129l129 -129l-129 -129zM555 -713l129 129l131 -129l-131 -129z" />
    <glyph glyph-name="uniFC70" unicode="&#xfc70;" horiz-adv-x="1241" arabic-form="final" 
d="M928 940l119 -70q-54 -238 -54 -415t56 -249.5t192 -72.5q21 0 21 -20v-90q0 -23 -21 -23q-173 0 -267.5 108.5t-94.5 309.5q0 92 12 200q5 53 27 187l-105 -49q-146 -62 -287 -99l-102 -22q17 -149 25 -273q14 -155 14 -303q0 -244 -137 -371.5t-367 -127.5v123
q169 0 279 98t110 280q0 259 -59 670l20 25q183 16 318.5 59.5t300.5 124.5zM791 1300l131 130l129 -130l-129 -129zM489 1300l129 130l132 -130l-132 -129z" />
    <glyph glyph-name="uniFC71" unicode="&#xfc71;" horiz-adv-x="1241" arabic-form="final" 
d="M928 940l119 -70q-54 -238 -54 -415t56 -249.5t192 -72.5q21 0 21 -20v-90q0 -23 -21 -23q-173 0 -267.5 108.5t-94.5 309.5q0 92 12 200q5 53 27 187l-105 -49q-146 -62 -287 -99l-102 -22q17 -149 25 -273q14 -155 14 -303q0 -244 -137 -371.5t-367 -127.5v123
q169 0 279 98t110 280q0 259 -59 670l20 25q183 16 318.5 59.5t300.5 124.5zM170 1157l129 129l131 -129l-129 -129zM969 1300l131 130l129 -130l-129 -129zM668 1300l129 130l131 -130l-131 -129z" />
    <glyph glyph-name="uniFC73" unicode="&#xfc73;" horiz-adv-x="1927" arabic-form="final" 
d="M1614 940l119 -70q-54 -238 -54 -415t56 -249.5t192 -72.5q21 0 21 -20v-90q0 -23 -21 -23q-173 0 -267.5 108.5t-94.5 309.5q0 92 12 200q5 53 27 187l-105 -49q-146 -62 -287 -99l-102 -22l20 -203q11 -147 11 -229q0 -143 -30.5 -257.5t-94 -202.5t-171 -135.5
t-253.5 -47.5q-234 0 -362 141.5t-128 398.5q0 209 93 484h112q-92 -234 -92 -453q0 -438 393 -438q218 0 318 121.5t100 388.5q0 171 -51 528l20 25q183 16 318.5 59.5t300.5 124.5zM489 963l129 129l132 -129l-129 -129zM1485 1300l131 130l129 -130l-129 -129zM1184 1300
l129 130l131 -130l-131 -129z" />
    <glyph glyph-name="uniFC74" unicode="&#xfc74;" horiz-adv-x="1882" arabic-form="final" 
d="M1446 973l108 -92q-51 -263 -51 -402q0 -169 101.5 -257.5t277.5 -88.5q21 0 21 -20v-90q0 -23 -21 -23q-232 0 -361.5 123t-129.5 369q0 109 26 256l17 88q-126 -6 -234 -33q-177 -43 -280 -120.5t-103 -168.5q0 -57 35 -96.5t139 -108.5l105 -69q109 -72 156.5 -141
t47.5 -154q0 -178 -150 -281.5t-437 -103.5q-98 0 -186 19t-166.5 60.5t-135.5 103.5t-90 153.5t-33 203.5q0 209 93 484h112q-92 -234 -92 -453q0 -212 144 -325t421 -113q195 0 296.5 67.5t101.5 171.5q0 49 -33.5 90t-124.5 103l-94 63q-133 91 -182.5 156t-49.5 154
q0 188 190.5 311t561.5 164zM1331 1358l131 129l129 -129l-129 -129zM1030 1358l129 129l131 -129l-131 -129z" />
    <glyph glyph-name="uniFC75" unicode="&#xfc75;" horiz-adv-x="1882" arabic-form="final" 
d="M1446 973l108 -92q-51 -263 -51 -402q0 -169 101.5 -257.5t277.5 -88.5q21 0 21 -20v-90q0 -23 -21 -23q-232 0 -361.5 123t-129.5 369q0 109 26 256l17 88q-126 -6 -234 -33q-177 -43 -280 -120.5t-103 -168.5q0 -57 35 -96.5t139 -108.5l105 -69q109 -72 156.5 -141
t47.5 -154q0 -178 -150 -281.5t-437 -103.5q-98 0 -186 19t-166.5 60.5t-135.5 103.5t-90 153.5t-33 203.5q0 209 93 484h112q-92 -234 -92 -453q0 -212 144 -325t421 -113q195 0 296.5 67.5t101.5 171.5q0 49 -33.5 90t-124.5 103l-94 63q-133 91 -182.5 156t-49.5 154
q0 188 190.5 311t561.5 164zM1331 1358l131 129l129 -129l-129 -129zM1030 1358l129 129l131 -129l-131 -129zM858 -713l131 129l129 -129l-129 -129zM557 -713l129 129l131 -129l-131 -129z" />
    <glyph glyph-name="uniFC76" unicode="&#xfc76;" horiz-adv-x="1241" arabic-form="final" 
d="M928 940l119 -70q-54 -238 -54 -415t56 -249.5t192 -72.5q21 0 21 -20v-90q0 -23 -21 -23q-173 0 -267.5 108.5t-94.5 309.5q0 92 12 200q5 53 27 187l-105 -49q-146 -62 -287 -99l-102 -22q17 -149 25 -273q14 -155 14 -303q0 -244 -137 -371.5t-367 -127.5v123
q169 0 279 98t110 280q0 259 -59 670l20 25q183 16 318.5 59.5t300.5 124.5zM809 1317l131 131l129 -131l-129 -129zM467 1317l129 131l131 -131l-131 -129zM668 1546l102 105l104 -105l-102 -102z" />
    <glyph glyph-name="uniFC77" unicode="&#xfc77;" horiz-adv-x="1241" arabic-form="final" 
d="M928 940l119 -70q-54 -238 -54 -415t56 -249.5t192 -72.5q21 0 21 -20v-90q0 -23 -21 -23q-173 0 -267.5 108.5t-94.5 309.5q0 92 12 200q5 53 27 187l-105 -49q-146 -62 -287 -99l-102 -22q17 -149 25 -273q14 -155 14 -303q0 -244 -137 -371.5t-367 -127.5v123
q169 0 279 98t110 280q0 259 -59 670l20 25q183 16 318.5 59.5t300.5 124.5zM170 1157l129 129l131 -129l-129 -129zM981 1317l131 131l129 -131l-129 -129zM639 1317l129 131l131 -131l-131 -129zM840 1546l102 105l105 -105l-103 -102z" />
    <glyph glyph-name="uniFC79" unicode="&#xfc79;" horiz-adv-x="1927" arabic-form="final" 
d="M1614 940l119 -70q-54 -238 -54 -415t56 -249.5t192 -72.5q21 0 21 -20v-90q0 -23 -21 -23q-173 0 -267.5 108.5t-94.5 309.5q0 92 12 200q5 53 27 187l-105 -49q-146 -62 -287 -99l-102 -22l20 -203q11 -147 11 -229q0 -143 -30.5 -257.5t-94 -202.5t-171 -135.5
t-253.5 -47.5q-234 0 -362 141.5t-128 398.5q0 209 93 484h112q-92 -234 -92 -453q0 -438 393 -438q218 0 318 121.5t100 388.5q0 171 -51 528l20 25q183 16 318.5 59.5t300.5 124.5zM1487 1260l131 131l129 -131l-129 -130zM1145 1260l129 131l131 -131l-131 -130zM489 963
l129 129l132 -129l-129 -129zM1346 1489l102 104l104 -104l-102 -103z" />
    <glyph glyph-name="uniFC7A" unicode="&#xfc7a;" horiz-adv-x="1882" arabic-form="final" 
d="M1446 973l108 -92q-51 -263 -51 -402q0 -169 101.5 -257.5t277.5 -88.5q21 0 21 -20v-90q0 -23 -21 -23q-232 0 -361.5 123t-129.5 369q0 109 26 256l17 88q-126 -6 -234 -33q-177 -43 -280 -120.5t-103 -168.5q0 -57 35 -96.5t139 -108.5l105 -69q109 -72 156.5 -141
t47.5 -154q0 -178 -150 -281.5t-437 -103.5q-98 0 -186 19t-166.5 60.5t-135.5 103.5t-90 153.5t-33 203.5q0 209 93 484h112q-92 -234 -92 -453q0 -212 144 -325t421 -113q195 0 296.5 67.5t101.5 171.5q0 49 -33.5 90t-124.5 103l-94 63q-133 91 -182.5 156t-49.5 154
q0 188 190.5 311t561.5 164zM1313 1255l131 131l129 -131l-129 -129zM971 1255l129 131l131 -131l-131 -129zM1171 1485l103 104l104 -104l-102 -103z" />
    <glyph glyph-name="uniFC7B" unicode="&#xfc7b;" horiz-adv-x="1882" arabic-form="final" 
d="M1446 973l108 -92q-51 -263 -51 -402q0 -169 101.5 -257.5t277.5 -88.5q21 0 21 -20v-90q0 -23 -21 -23q-232 0 -361.5 123t-129.5 369q0 109 26 256l17 88q-126 -6 -234 -33q-177 -43 -280 -120.5t-103 -168.5q0 -57 35 -96.5t139 -108.5l105 -69q109 -72 156.5 -141
t47.5 -154q0 -178 -150 -281.5t-437 -103.5q-98 0 -186 19t-166.5 60.5t-135.5 103.5t-90 153.5t-33 203.5q0 209 93 484h112q-92 -234 -92 -453q0 -212 144 -325t421 -113q195 0 296.5 67.5t101.5 171.5q0 49 -33.5 90t-124.5 103l-94 63q-133 91 -182.5 156t-49.5 154
q0 188 190.5 311t561.5 164zM1313 1255l131 131l129 -131l-129 -129zM971 1255l129 131l131 -131l-131 -129zM1171 1485l103 104l104 -104l-102 -103zM856 -713l131 129l129 -129l-129 -129zM555 -713l129 129l131 -129l-131 -129z" />
    <glyph glyph-name="uniFC83" unicode="&#xfc83;" horiz-adv-x="3010" arabic-form="final" 
d="M2560 1628h195v-8l-803 -598l387 -170q226 -100 335 -210t109 -247q0 -173 -145 -284t-387 -111h-398h-6h-4q-228 0 -340 120t-112 372q0 109 26 256l17 88q-126 -6 -234 -33q-177 -43 -280 -120.5t-103 -168.5q0 -57 35 -96.5t139 -108.5l105 -69q109 -72 156.5 -141
t47.5 -154q0 -178 -150 -281.5t-437 -103.5q-98 0 -186 19t-166.5 60.5t-135.5 103.5t-90 153.5t-33 203.5q0 209 93 484h112q-92 -234 -92 -453q0 -212 144 -325t421 -113q195 0 296.5 67.5t101.5 171.5q0 49 -33.5 90t-124.5 103l-94 63q-133 91 -182.5 156t-49.5 154
q0 188 190.5 311t561.5 164l108 -92q-51 -263 -51 -402q0 -176 81 -261t259 -85h4h6h412q168 0 281.5 73t113.5 187q0 92 -86 169.5t-290 168.5l-482 213v123zM2613 184l78 78q79 -74 145.5 -101.5t174.5 -27.5q20 0 20 -20v-90q0 -23 -20 -23q-120 0 -208 39.5t-190 144.5z
" />
    <glyph glyph-name="uniFC84" unicode="&#xfc84;" horiz-adv-x="3010" arabic-form="final" 
d="M2560 1628h195v-8l-803 -598l387 -170q226 -100 335 -210t109 -247q0 -173 -145 -284t-387 -111h-398h-6h-4q-228 0 -340 120t-112 372q0 109 26 256l17 88q-126 -6 -234 -33q-177 -43 -280 -120.5t-103 -168.5q0 -57 35 -96.5t139 -108.5l105 -69q109 -72 156.5 -141
t47.5 -154q0 -178 -150 -281.5t-437 -103.5q-98 0 -186 19t-166.5 60.5t-135.5 103.5t-90 153.5t-33 203.5q0 209 93 484h112q-92 -234 -92 -453q0 -212 144 -325t421 -113q195 0 296.5 67.5t101.5 171.5q0 49 -33.5 90t-124.5 103l-94 63q-133 91 -182.5 156t-49.5 154
q0 188 190.5 311t561.5 164l108 -92q-51 -263 -51 -402q0 -176 81 -261t259 -85h4h6h412q168 0 281.5 73t113.5 187q0 92 -86 169.5t-290 168.5l-482 213v123zM2613 184l78 78q79 -74 145.5 -101.5t174.5 -27.5q20 0 20 -20v-90q0 -23 -20 -23q-120 0 -208 39.5t-190 144.5z
M856 -713l131 129l129 -129l-129 -129zM555 -713l129 129l131 -129l-131 -129z" />
    <glyph glyph-name="uniFC87" unicode="&#xfc87;" horiz-adv-x="1863" arabic-form="final" 
d="M1466 1485h123v-1100q0 -128 66.5 -190t208.5 -62q20 0 20 -20v-90q0 -23 -20 -23q-208 0 -303 102q-16 16 -31 37l-39 -37q-45 -39 -72 -55l-41 -20q-52 -106 -106 -183q-201 -284 -598 -284q-572 0 -572 540q0 209 93 484h112q-92 -234 -92 -453q0 -438 481 -438
q211 0 357 98q116 75 186 209h-25h-311l23 133h288q85 0 158 31q67 28 113 74q-19 71 -19 153v1094zM809 -672l131 129l129 -129l-129 -129zM508 -672l129 129l131 -129l-131 -129z" />
    <glyph glyph-name="uniFC8A" unicode="&#xfc8a;" horiz-adv-x="1241" arabic-form="final" 
d="M928 940l119 -70q-54 -238 -54 -415t56 -249.5t192 -72.5q21 0 21 -20v-90q0 -23 -21 -23q-173 0 -267.5 108.5t-94.5 309.5q0 92 12 200q5 53 27 187l-105 -49q-146 -62 -287 -99l-102 -22q17 -149 25 -273q14 -155 14 -303q0 -244 -137 -371.5t-367 -127.5v123
q169 0 279 98t110 280q0 259 -59 670l20 25q183 16 318.5 59.5t300.5 124.5zM799 1311l129 129l131 -129l-129 -129z" />
    <glyph glyph-name="uniFC8B" unicode="&#xfc8b;" horiz-adv-x="1241" arabic-form="final" 
d="M928 940l119 -70q-54 -238 -54 -415t56 -249.5t192 -72.5q21 0 21 -20v-90q0 -23 -21 -23q-173 0 -267.5 108.5t-94.5 309.5q0 92 12 200q5 53 27 187l-105 -49q-146 -62 -287 -99l-102 -22q17 -149 25 -273q14 -155 14 -303q0 -244 -137 -371.5t-367 -127.5v123
q169 0 279 98t110 280q0 259 -59 670l20 25q183 16 318.5 59.5t300.5 124.5zM170 1157l129 129l131 -129l-129 -129zM799 1311l129 129l131 -129l-129 -129z" />
    <glyph glyph-name="uniFC8D" unicode="&#xfc8d;" horiz-adv-x="1927" arabic-form="final" 
d="M1614 940l119 -70q-54 -238 -54 -415t56 -249.5t192 -72.5q21 0 21 -20v-90q0 -23 -21 -23q-173 0 -267.5 108.5t-94.5 309.5q0 92 12 200q5 53 27 187l-105 -49q-146 -62 -287 -99l-102 -22l20 -203q11 -147 11 -229q0 -143 -30.5 -257.5t-94 -202.5t-171 -135.5
t-253.5 -47.5q-234 0 -362 141.5t-128 398.5q0 209 93 484h112q-92 -234 -92 -453q0 -438 393 -438q218 0 318 121.5t100 388.5q0 171 -51 528l20 25q183 16 318.5 59.5t300.5 124.5zM1499 1311l129 129l131 -129l-129 -129zM489 963l129 129l132 -129l-129 -129z" />
    <glyph glyph-name="uniFC8E" unicode="&#xfc8e;" horiz-adv-x="1882" arabic-form="final" 
d="M1446 973l108 -92q-51 -263 -51 -402q0 -169 101.5 -257.5t277.5 -88.5q21 0 21 -20v-90q0 -23 -21 -23q-232 0 -361.5 123t-129.5 369q0 109 26 256l17 88q-126 -6 -234 -33q-177 -43 -280 -120.5t-103 -168.5q0 -57 35 -96.5t139 -108.5l105 -69q109 -72 156.5 -141
t47.5 -154q0 -178 -150 -281.5t-437 -103.5q-98 0 -186 19t-166.5 60.5t-135.5 103.5t-90 153.5t-33 203.5q0 209 93 484h112q-92 -234 -92 -453q0 -212 144 -325t421 -113q195 0 296.5 67.5t101.5 171.5q0 49 -33.5 90t-124.5 103l-94 63q-133 91 -182.5 156t-49.5 154
q0 188 190.5 311t561.5 164zM1319 1356l129 129l131 -129l-129 -129z" />
    <glyph glyph-name="uniFC8F" unicode="&#xfc8f;" horiz-adv-x="1882" arabic-form="final" 
d="M1446 973l108 -92q-51 -263 -51 -402q0 -169 101.5 -257.5t277.5 -88.5q21 0 21 -20v-90q0 -23 -21 -23q-232 0 -361.5 123t-129.5 369q0 109 26 256l17 88q-126 -6 -234 -33q-177 -43 -280 -120.5t-103 -168.5q0 -57 35 -96.5t139 -108.5l105 -69q109 -72 156.5 -141
t47.5 -154q0 -178 -150 -281.5t-437 -103.5q-98 0 -186 19t-166.5 60.5t-135.5 103.5t-90 153.5t-33 203.5q0 209 93 484h112q-92 -234 -92 -453q0 -212 144 -325t421 -113q195 0 296.5 67.5t101.5 171.5q0 49 -33.5 90t-124.5 103l-94 63q-133 91 -182.5 156t-49.5 154
q0 188 190.5 311t561.5 164zM1319 1356l129 129l131 -129l-129 -129zM856 -713l131 129l129 -129l-129 -129zM555 -713l129 129l131 -129l-131 -129z" />
    <glyph glyph-name="uniFC91" unicode="&#xfc91;" horiz-adv-x="1241" arabic-form="final" 
d="M928 940l119 -70q-54 -238 -54 -415t56 -249.5t192 -72.5q21 0 21 -20v-90q0 -23 -21 -23q-173 0 -267.5 108.5t-94.5 309.5q0 92 12 200q5 53 27 187l-105 -49q-146 -62 -287 -99l-102 -22q17 -149 25 -273q14 -155 14 -303q0 -244 -137 -371.5t-367 -127.5v123
q169 0 279 98t110 280q0 259 -59 670l20 25q183 16 318.5 59.5t300.5 124.5zM807 -311l131 129l129 -129l-129 -129zM506 -311l129 129l131 -129l-131 -129z" />
    <glyph glyph-name="uniFC92" unicode="&#xfc92;" horiz-adv-x="1241" arabic-form="final" 
d="M928 940l119 -70q-54 -238 -54 -415t56 -249.5t192 -72.5q21 0 21 -20v-90q0 -23 -21 -23q-173 0 -267.5 108.5t-94.5 309.5q0 92 12 200q5 53 27 187l-105 -49q-146 -62 -287 -99l-102 -22q17 -149 25 -273q14 -155 14 -303q0 -244 -137 -371.5t-367 -127.5v123
q169 0 279 98t110 280q0 259 -59 670l20 25q183 16 318.5 59.5t300.5 124.5zM170 1157l129 129l131 -129l-129 -129zM807 -311l131 129l129 -129l-129 -129zM506 -311l129 129l131 -129l-131 -129z" />
    <glyph glyph-name="uniFC94" unicode="&#xfc94;" horiz-adv-x="1927" arabic-form="final" 
d="M1614 940l119 -70q-54 -238 -54 -415t56 -249.5t192 -72.5q21 0 21 -20v-90q0 -23 -21 -23q-173 0 -267.5 108.5t-94.5 309.5q0 92 12 200q5 53 27 187l-105 -49q-146 -62 -287 -99l-102 -22l20 -203q11 -147 11 -229q0 -143 -30.5 -257.5t-94 -202.5t-171 -135.5
t-253.5 -47.5q-234 0 -362 141.5t-128 398.5q0 209 93 484h112q-92 -234 -92 -453q0 -438 393 -438q218 0 318 121.5t100 388.5q0 171 -51 528l20 25q183 16 318.5 59.5t300.5 124.5zM489 963l129 129l132 -129l-129 -129zM1524 -311l131 129l129 -129l-129 -129zM1223 -311
l129 129l131 -129l-131 -129z" />
    <glyph glyph-name="uniFCCC" unicode="&#xfccc;" horiz-adv-x="583" arabic-form="initial" 
d="M0 133q60 0 145 -10q22 -3 97 -17q0 19 -2 27q-9 68 -9 158v1194h123v-1405q16 -6 48 -20.5t42 -18.5q108 -51 160 -84l-55 -109q-63 17 -141 50q-59 25 -113 63q-70 19 -156 29q-95 10 -139 10q-20 0 -20 20v91q0 22 20 22z" />
    <glyph glyph-name="uniFCFB" unicode="&#xfcfb;" horiz-adv-x="2983" arabic-form="isolated" 
d="M2677 993h123q61 -418 61 -602q0 -186 -98.5 -288.5t-278.5 -102.5q-90 0 -188 31q-87 28 -178 82q-38 -41 -93 -68q-86 -45 -202 -45q-432 0 -432 492q0 109 26 256l17 88q-126 -6 -234 -33q-177 -43 -280 -120.5t-103 -168.5q0 -57 35 -96.5t139 -108.5l105 -69
q109 -72 156.5 -141t47.5 -154q0 -178 -150 -281.5t-437 -103.5q-98 0 -186 19t-166.5 60.5t-135.5 103.5t-90 153.5t-33 203.5q0 209 93 484h112q-92 -234 -92 -453q0 -212 144 -325t421 -113q195 0 296.5 67.5t101.5 171.5q0 49 -33.5 90t-124.5 103l-94 63
q-133 91 -182.5 156t-49.5 154q0 188 190.5 311t561.5 164l108 -92q-51 -263 -51 -402q0 -346 309 -346q116 0 170 27.5t89 89.5q34 63 46.5 171.5t12.5 336.5h113q0 -229 -21 -367q-16 -118 -47 -186q87 -39 133 -51q76 -21 156 -21q284 0 284 252q0 84 -15 210.5
t-56 397.5z" />
    <glyph glyph-name="uniFCFC" unicode="&#xfcfc;" horiz-adv-x="2983" arabic-form="isolated" 
d="M2677 993h123q61 -418 61 -602q0 -186 -98.5 -288.5t-278.5 -102.5q-90 0 -188 31q-87 28 -178 82q-38 -41 -93 -68q-86 -45 -202 -45q-432 0 -432 492q0 109 26 256l17 88q-126 -6 -234 -33q-177 -43 -280 -120.5t-103 -168.5q0 -57 35 -96.5t139 -108.5l105 -69
q109 -72 156.5 -141t47.5 -154q0 -178 -150 -281.5t-437 -103.5q-98 0 -186 19t-166.5 60.5t-135.5 103.5t-90 153.5t-33 203.5q0 209 93 484h112q-92 -234 -92 -453q0 -212 144 -325t421 -113q195 0 296.5 67.5t101.5 171.5q0 49 -33.5 90t-124.5 103l-94 63
q-133 91 -182.5 156t-49.5 154q0 188 190.5 311t561.5 164l108 -92q-51 -263 -51 -402q0 -346 309 -346q116 0 170 27.5t89 89.5q34 63 46.5 171.5t12.5 336.5h113q0 -229 -21 -367q-16 -118 -47 -186q87 -39 133 -51q76 -21 156 -21q284 0 284 252q0 84 -15 210.5
t-56 397.5zM856 -713l131 129l129 -129l-129 -129zM555 -713l129 129l131 -129l-131 -129z" />
    <glyph glyph-name="uniFCFD" unicode="&#xfcfd;" horiz-adv-x="2983" arabic-form="isolated" 
d="M2677 993h123q61 -418 61 -602q0 -186 -98.5 -288.5t-278.5 -102.5q-90 0 -188 31q-87 28 -178 82q-38 -41 -93 -68q-86 -45 -202 -45q-432 0 -432 492q0 109 26 256l17 88q-126 -6 -234 -33q-177 -43 -280 -120.5t-103 -168.5q0 -57 35 -96.5t139 -108.5l105 -69
q109 -72 156.5 -141t47.5 -154q0 -178 -150 -281.5t-437 -103.5q-98 0 -186 19t-166.5 60.5t-135.5 103.5t-90 153.5t-33 203.5q0 209 93 484h112q-92 -234 -92 -453q0 -212 144 -325t421 -113q195 0 296.5 67.5t101.5 171.5q0 49 -33.5 90t-124.5 103l-94 63
q-133 91 -182.5 156t-49.5 154q0 188 190.5 311t561.5 164l108 -92q-51 -263 -51 -402q0 -346 309 -346q116 0 170 27.5t89 89.5q34 63 46.5 171.5t12.5 336.5h113q0 -229 -21 -367q-16 -118 -47 -186q87 -39 133 -51q76 -21 156 -21q284 0 284 252q0 84 -15 210.5
t-56 397.5zM2224 1124l131 131l129 -131l-129 -129zM1882 1124l129 131l131 -131l-131 -129zM2083 1354l102 104l105 -104l-103 -103z" />
    <glyph glyph-name="uniFCFE" unicode="&#xfcfe;" horiz-adv-x="2983" arabic-form="isolated" 
d="M2677 993h123q61 -418 61 -602q0 -186 -98.5 -288.5t-278.5 -102.5q-90 0 -188 31q-87 28 -178 82q-38 -41 -93 -68q-86 -45 -202 -45q-432 0 -432 492q0 109 26 256l17 88q-126 -6 -234 -33q-177 -43 -280 -120.5t-103 -168.5q0 -57 35 -96.5t139 -108.5l105 -69
q109 -72 156.5 -141t47.5 -154q0 -178 -150 -281.5t-437 -103.5q-98 0 -186 19t-166.5 60.5t-135.5 103.5t-90 153.5t-33 203.5q0 209 93 484h112q-92 -234 -92 -453q0 -212 144 -325t421 -113q195 0 296.5 67.5t101.5 171.5q0 49 -33.5 90t-124.5 103l-94 63
q-133 91 -182.5 156t-49.5 154q0 188 190.5 311t561.5 164l108 -92q-51 -263 -51 -402q0 -346 309 -346q116 0 170 27.5t89 89.5q34 63 46.5 171.5t12.5 336.5h113q0 -229 -21 -367q-16 -118 -47 -186q87 -39 133 -51q76 -21 156 -21q284 0 284 252q0 84 -15 210.5
t-56 397.5zM856 -713l131 129l129 -129l-129 -129zM555 -713l129 129l131 -129l-131 -129zM2224 1124l131 131l129 -131l-129 -129zM1882 1124l129 131l131 -131l-131 -129zM2083 1354l102 104l105 -104l-103 -103z" />
    <glyph glyph-name="uniFD05" unicode="&#xfd05;" horiz-adv-x="3061" arabic-form="isolated" 
d="M2535 1020q180 0 302 -122.5t122 -305.5q0 -269 -220 -430.5t-585 -161.5h-290q-230 0 -351.5 121.5t-121.5 370.5q0 109 26 256l17 88q-126 -6 -234 -33q-177 -43 -280 -120.5t-103 -168.5q0 -57 35 -96.5t139 -108.5l105 -69q109 -72 156.5 -141t47.5 -154
q0 -178 -150 -281.5t-437 -103.5q-98 0 -186 19t-166.5 60.5t-135.5 103.5t-90 153.5t-33 203.5q0 209 93 484h112q-92 -234 -92 -453q0 -212 144 -325t421 -113q195 0 296.5 67.5t101.5 171.5q0 49 -33.5 90t-124.5 103l-94 63q-133 91 -182.5 156t-49.5 154
q0 188 190.5 311t561.5 164l108 -92q-31 -153 -41 -234t-10 -168q0 -191 94 -276q160 182 252 289q204 229 320.5 339t195.5 149.5t170 39.5zM1815 133h315q212 0 371 52t246 151t87 233q0 135 -89 226.5t-220 91.5q-108 0 -220 -87t-316 -323l-285 -332q50 -12 111 -12z
" />
    <glyph glyph-name="uniFD06" unicode="&#xfd06;" horiz-adv-x="3061" arabic-form="isolated" 
d="M2535 1020q180 0 302 -122.5t122 -305.5q0 -269 -220 -430.5t-585 -161.5h-290q-230 0 -351.5 121.5t-121.5 370.5q0 109 26 256l17 88q-126 -6 -234 -33q-177 -43 -280 -120.5t-103 -168.5q0 -57 35 -96.5t139 -108.5l105 -69q109 -72 156.5 -141t47.5 -154
q0 -178 -150 -281.5t-437 -103.5q-98 0 -186 19t-166.5 60.5t-135.5 103.5t-90 153.5t-33 203.5q0 209 93 484h112q-92 -234 -92 -453q0 -212 144 -325t421 -113q195 0 296.5 67.5t101.5 171.5q0 49 -33.5 90t-124.5 103l-94 63q-133 91 -182.5 156t-49.5 154
q0 188 190.5 311t561.5 164l108 -92q-31 -153 -41 -234t-10 -168q0 -191 94 -276q160 182 252 289q204 229 320.5 339t195.5 149.5t170 39.5zM1815 133h315q212 0 371 52t246 151t87 233q0 135 -89 226.5t-220 91.5q-108 0 -220 -87t-316 -323l-285 -332q50 -12 111 -12z
M856 -713l131 129l129 -129l-129 -129zM555 -713l129 129l131 -129l-131 -129z" />
    <glyph glyph-name="uniFD07" unicode="&#xfd07;" horiz-adv-x="3061" arabic-form="isolated" 
d="M2535 1020q180 0 302 -122.5t122 -305.5q0 -269 -220 -430.5t-585 -161.5h-290q-230 0 -351.5 121.5t-121.5 370.5q0 109 26 256l17 88q-126 -6 -234 -33q-177 -43 -280 -120.5t-103 -168.5q0 -57 35 -96.5t139 -108.5l105 -69q109 -72 156.5 -141t47.5 -154
q0 -178 -150 -281.5t-437 -103.5q-98 0 -186 19t-166.5 60.5t-135.5 103.5t-90 153.5t-33 203.5q0 209 93 484h112q-92 -234 -92 -453q0 -212 144 -325t421 -113q195 0 296.5 67.5t101.5 171.5q0 49 -33.5 90t-124.5 103l-94 63q-133 91 -182.5 156t-49.5 154
q0 188 190.5 311t561.5 164l108 -92q-31 -153 -41 -234t-10 -168q0 -191 94 -276q160 182 252 289q204 229 320.5 339t195.5 149.5t170 39.5zM1815 133h315q212 0 371 52t246 151t87 233q0 135 -89 226.5t-220 91.5q-108 0 -220 -87t-316 -323l-285 -332q50 -12 111 -12z
M1944 1294l129 129l131 -129l-129 -129z" />
    <glyph glyph-name="uniFD08" unicode="&#xfd08;" horiz-adv-x="3061" arabic-form="isolated" 
d="M2535 1020q180 0 302 -122.5t122 -305.5q0 -269 -220 -430.5t-585 -161.5h-290q-230 0 -351.5 121.5t-121.5 370.5q0 109 26 256l17 88q-126 -6 -234 -33q-177 -43 -280 -120.5t-103 -168.5q0 -57 35 -96.5t139 -108.5l105 -69q109 -72 156.5 -141t47.5 -154
q0 -178 -150 -281.5t-437 -103.5q-98 0 -186 19t-166.5 60.5t-135.5 103.5t-90 153.5t-33 203.5q0 209 93 484h112q-92 -234 -92 -453q0 -212 144 -325t421 -113q195 0 296.5 67.5t101.5 171.5q0 49 -33.5 90t-124.5 103l-94 63q-133 91 -182.5 156t-49.5 154
q0 188 190.5 311t561.5 164l108 -92q-31 -153 -41 -234t-10 -168q0 -191 94 -276q160 182 252 289q204 229 320.5 339t195.5 149.5t170 39.5zM1815 133h315q212 0 371 52t246 151t87 233q0 135 -89 226.5t-220 91.5q-108 0 -220 -87t-316 -323l-285 -332q50 -12 111 -12z
M856 -713l131 129l129 -129l-129 -129zM555 -713l129 129l131 -129l-131 -129zM1944 1294l129 129l131 -129l-129 -129z" />
    <glyph glyph-name="uniFD0D" unicode="&#xfd0d;" horiz-adv-x="2488" arabic-form="isolated" 
d="M975 1014h112q-79 -352 -79 -535q0 -175 77.5 -260.5t241.5 -85.5q103 0 159 29t89 88q34 63 46.5 171.5t12.5 336.5h113q0 -229 -21 -367q-16 -118 -47 -186q87 -39 133 -51q76 -21 156 -21q285 0 285 252q0 83 -15 207.5t-57 400.5h123q61 -418 61 -602
q0 -186 -98 -288.5t-278 -102.5q-91 0 -189 31q-86 29 -176 82q-40 -43 -88 -68q-80 -45 -188 -45q-228 0 -340.5 120.5t-112.5 371.5q0 78 14 190q1 4 11 57l-97 -22q-166 -39 -305 -86q-18 -6 -90 -35q18 -152 27 -272q8 -117 8 -265q0 -244 -137 -371.5t-367 -127.5v123
q169 0 279 98t110 280q0 219 -43 564l94 94q135 44 293 84q118 30 250 51q13 74 33 160zM1722 1124l131 131l129 -131l-129 -129zM1380 1124l129 131l131 -131l-131 -129zM1581 1354l102 104l105 -104l-102 -103z" />
    <glyph glyph-name="uniFD0E" unicode="&#xfd0e;" horiz-adv-x="2488" arabic-form="isolated" 
d="M975 1014h112q-79 -352 -79 -535q0 -175 77.5 -260.5t241.5 -85.5q103 0 159 29t89 88q34 63 46.5 171.5t12.5 336.5h113q0 -229 -21 -367q-16 -118 -47 -186q87 -39 133 -51q76 -21 156 -21q285 0 285 252q0 83 -15 207.5t-57 400.5h123q61 -418 61 -602
q0 -186 -98 -288.5t-278 -102.5q-91 0 -189 31q-86 29 -176 82q-40 -43 -88 -68q-80 -45 -188 -45q-228 0 -340.5 120.5t-112.5 371.5q0 78 14 190q1 4 11 57l-97 -22q-166 -39 -305 -86q-18 -6 -90 -35q18 -152 27 -272q8 -117 8 -265q0 -244 -137 -371.5t-367 -127.5v123
q169 0 279 98t110 280q0 219 -43 564l94 94q135 44 293 84q118 30 250 51q13 74 33 160z" />
    <glyph glyph-name="uniFD0F" unicode="&#xfd0f;" horiz-adv-x="2566" arabic-form="isolated" 
d="M2040 1020q180 0 302 -122.5t122 -305.5q0 -269 -220 -430.5t-585 -161.5h-291q-230 0 -351.5 121.5t-121.5 370.5q0 78 14 190q1 4 11 57l-97 -22q-166 -39 -305 -86q-18 -6 -90 -35q18 -152 27 -272q8 -117 8 -265q0 -244 -137 -371.5t-367 -127.5v123q169 0 279 98
t110 280q0 219 -43 564l94 94q135 44 293 84q118 30 250 51q13 74 33 160h112q-79 -352 -79 -535q0 -191 94 -276q160 182 252 289q204 229 320.5 339t195.5 149.5t170 39.5zM1319 133h315q322 0 513.5 117t191.5 319q0 135 -89 226.5t-220 91.5q-108 0 -220.5 -87.5
t-316.5 -322.5l-285 -332q50 -12 111 -12z" />
    <glyph glyph-name="uniFD10" unicode="&#xfd10;" horiz-adv-x="2566" arabic-form="isolated" 
d="M2040 1020q180 0 302 -122.5t122 -305.5q0 -269 -220 -430.5t-585 -161.5h-291q-230 0 -351.5 121.5t-121.5 370.5q0 78 14 190q1 4 11 57l-97 -22q-166 -39 -305 -86q-18 -6 -90 -35q18 -152 27 -272q8 -117 8 -265q0 -244 -137 -371.5t-367 -127.5v123q169 0 279 98
t110 280q0 219 -43 564l94 94q135 44 293 84q118 30 250 51q13 74 33 160h112q-79 -352 -79 -535q0 -191 94 -276q160 182 252 289q204 229 320.5 339t195.5 149.5t170 39.5zM1319 133h315q322 0 513.5 117t191.5 319q0 135 -89 226.5t-220 91.5q-108 0 -220.5 -87.5
t-316.5 -322.5l-285 -332q50 -12 111 -12zM1427 1284l129 129l132 -129l-129 -129z" />
    <glyph glyph-name="uniFD17" unicode="&#xfd17;" horiz-adv-x="3074" arabic-form="final" 
d="M2730 901h113v-143q0 -229 -21 -367q-10 -74 -35 -153q25 -22 49 -37q54 -38 108 -53t138 -15q21 0 21 -20v-90q0 -23 -21 -23q-92 0 -160.5 20.5t-138.5 73.5l-47 39q-43 -55 -104 -88q-80 -45 -189 -45q-91 0 -196 31q-76 20 -154 63q-26 -26 -70 -49q-80 -45 -188 -45
q-222 0 -333 120.5t-111 371.5q0 109 26 256l17 88q-126 -6 -234 -33q-177 -43 -280 -120.5t-103 -168.5q0 -57 35 -96.5t139 -108.5l105 -69q109 -72 156.5 -141t47.5 -154q0 -178 -150 -281.5t-437 -103.5q-98 0 -186 19t-166.5 60.5t-135.5 103.5t-90 153.5t-33 203.5
q0 209 93 484h112q-92 -234 -92 -453q0 -212 144 -325t421 -113q195 0 296.5 67.5t101.5 171.5q0 49 -33.5 90t-124.5 103l-94 63q-133 91 -182.5 156t-49.5 154q0 188 190.5 311t561.5 164l108 -92q-51 -263 -51 -402q0 -346 312 -346q103 0 158.5 29t88.5 88q34 63 47 172
t13 336h112q0 -236 -20 -367q-15 -119 -53 -203l22 -8q139 -47 240 -47q103 0 159 29t89 88q34 63 46.5 171.5t12.5 336.5v143z" />
    <glyph glyph-name="uniFD18" unicode="&#xfd18;" horiz-adv-x="3074" arabic-form="final" 
d="M2730 901h113v-143q0 -229 -21 -367q-10 -74 -35 -153q25 -22 49 -37q54 -38 108 -53t138 -15q21 0 21 -20v-90q0 -23 -21 -23q-92 0 -160.5 20.5t-138.5 73.5l-47 39q-43 -55 -104 -88q-80 -45 -189 -45q-91 0 -196 31q-76 20 -154 63q-26 -26 -70 -49q-80 -45 -188 -45
q-222 0 -333 120.5t-111 371.5q0 109 26 256l17 88q-126 -6 -234 -33q-177 -43 -280 -120.5t-103 -168.5q0 -57 35 -96.5t139 -108.5l105 -69q109 -72 156.5 -141t47.5 -154q0 -178 -150 -281.5t-437 -103.5q-98 0 -186 19t-166.5 60.5t-135.5 103.5t-90 153.5t-33 203.5
q0 209 93 484h112q-92 -234 -92 -453q0 -212 144 -325t421 -113q195 0 296.5 67.5t101.5 171.5q0 49 -33.5 90t-124.5 103l-94 63q-133 91 -182.5 156t-49.5 154q0 188 190.5 311t561.5 164l108 -92q-51 -263 -51 -402q0 -346 312 -346q103 0 158.5 29t88.5 88q34 63 47 172
t13 336h112q0 -236 -20 -367q-15 -119 -53 -203l22 -8q139 -47 240 -47q103 0 159 29t89 88q34 63 46.5 171.5t12.5 336.5v143zM856 -715l131 129l129 -129l-129 -129zM555 -715l129 129l131 -129l-131 -129z" />
    <glyph glyph-name="uniFD19" unicode="&#xfd19;" horiz-adv-x="3074" arabic-form="final" 
d="M2730 901h113v-143q0 -229 -21 -367q-10 -74 -35 -153q25 -22 49 -37q54 -38 108 -53t138 -15q21 0 21 -20v-90q0 -23 -21 -23q-92 0 -160.5 20.5t-138.5 73.5l-47 39q-43 -55 -104 -88q-80 -45 -189 -45q-91 0 -196 31q-76 20 -154 63q-26 -26 -70 -49q-80 -45 -188 -45
q-222 0 -333 120.5t-111 371.5q0 109 26 256l17 88q-126 -6 -234 -33q-177 -43 -280 -120.5t-103 -168.5q0 -57 35 -96.5t139 -108.5l105 -69q109 -72 156.5 -141t47.5 -154q0 -178 -150 -281.5t-437 -103.5q-98 0 -186 19t-166.5 60.5t-135.5 103.5t-90 153.5t-33 203.5
q0 209 93 484h112q-92 -234 -92 -453q0 -212 144 -325t421 -113q195 0 296.5 67.5t101.5 171.5q0 49 -33.5 90t-124.5 103l-94 63q-133 91 -182.5 156t-49.5 154q0 188 190.5 311t561.5 164l108 -92q-51 -263 -51 -402q0 -346 312 -346q103 0 158.5 29t88.5 88q34 63 47 172
t13 336h112q0 -236 -20 -367q-15 -119 -53 -203l22 -8q139 -47 240 -47q103 0 159 29t89 88q34 63 46.5 171.5t12.5 336.5v143zM2214 1122l131 131l129 -131l-129 -129zM1872 1122l129 131l131 -131l-131 -129zM2073 1352l102 104l104 -104l-102 -103z" />
    <glyph glyph-name="uniFD1A" unicode="&#xfd1a;" horiz-adv-x="3074" arabic-form="final" 
d="M2730 901h113v-143q0 -229 -21 -367q-10 -74 -35 -153q25 -22 49 -37q54 -38 108 -53t138 -15q21 0 21 -20v-90q0 -23 -21 -23q-92 0 -160.5 20.5t-138.5 73.5l-47 39q-43 -55 -104 -88q-80 -45 -189 -45q-91 0 -196 31q-76 20 -154 63q-26 -26 -70 -49q-80 -45 -188 -45
q-222 0 -333 120.5t-111 371.5q0 109 26 256l17 88q-126 -6 -234 -33q-177 -43 -280 -120.5t-103 -168.5q0 -57 35 -96.5t139 -108.5l105 -69q109 -72 156.5 -141t47.5 -154q0 -178 -150 -281.5t-437 -103.5q-98 0 -186 19t-166.5 60.5t-135.5 103.5t-90 153.5t-33 203.5
q0 209 93 484h112q-92 -234 -92 -453q0 -212 144 -325t421 -113q195 0 296.5 67.5t101.5 171.5q0 49 -33.5 90t-124.5 103l-94 63q-133 91 -182.5 156t-49.5 154q0 188 190.5 311t561.5 164l108 -92q-51 -263 -51 -402q0 -346 312 -346q103 0 158.5 29t88.5 88q34 63 47 172
t13 336h112q0 -236 -20 -367q-15 -119 -53 -203l22 -8q139 -47 240 -47q103 0 159 29t89 88q34 63 46.5 171.5t12.5 336.5v143zM1872 1122l129 131l131 -131l-131 -129zM2214 1122l131 131l129 -131l-129 -129zM856 -715l131 129l129 -129l-129 -129zM555 -715l129 129
l131 -129l-131 -129zM2073 1352l102 104l104 -104l-102 -103z" />
    <glyph glyph-name="uniFD21" unicode="&#xfd21;" horiz-adv-x="3096" arabic-form="final" 
d="M2535 1020q180 0 302 -122.5t122 -305.5q0 -269 -220 -430.5t-585 -161.5h-290q-230 0 -351.5 121.5t-121.5 370.5q0 109 26 256l17 88q-126 -6 -234 -33q-177 -43 -280 -120.5t-103 -168.5q0 -57 35 -96.5t139 -108.5l105 -69q109 -72 156.5 -141t47.5 -154
q0 -178 -150 -281.5t-437 -103.5q-98 0 -186 19t-166.5 60.5t-135.5 103.5t-90 153.5t-33 203.5q0 209 93 484h112q-92 -234 -92 -453q0 -212 144 -325t421 -113q195 0 296.5 67.5t101.5 171.5q0 49 -33.5 90t-124.5 103l-94 63q-133 91 -182.5 156t-49.5 154
q0 188 190.5 311t561.5 164l108 -92q-31 -153 -41 -234t-10 -168q0 -191 94 -276q160 182 252 289q204 229 320.5 339t195.5 149.5t170 39.5zM1815 133h315q212 0 371 52t246 151t87 233q0 135 -89 226.5t-220 91.5q-108 0 -220 -87t-316 -323l-285 -332q50 -12 111 -12z
M2699 184l78 78q79 -74 145.5 -101.5t174.5 -27.5q20 0 20 -20v-90q0 -23 -20 -23q-120 0 -208 39.5t-190 144.5z" />
    <glyph glyph-name="uniFD22" unicode="&#xfd22;" horiz-adv-x="3096" arabic-form="final" 
d="M2535 1020q180 0 302 -122.5t122 -305.5q0 -269 -220 -430.5t-585 -161.5h-290q-230 0 -351.5 121.5t-121.5 370.5q0 109 26 256l17 88q-126 -6 -234 -33q-177 -43 -280 -120.5t-103 -168.5q0 -57 35 -96.5t139 -108.5l105 -69q109 -72 156.5 -141t47.5 -154
q0 -178 -150 -281.5t-437 -103.5q-98 0 -186 19t-166.5 60.5t-135.5 103.5t-90 153.5t-33 203.5q0 209 93 484h112q-92 -234 -92 -453q0 -212 144 -325t421 -113q195 0 296.5 67.5t101.5 171.5q0 49 -33.5 90t-124.5 103l-94 63q-133 91 -182.5 156t-49.5 154
q0 188 190.5 311t561.5 164l108 -92q-31 -153 -41 -234t-10 -168q0 -191 94 -276q160 182 252 289q204 229 320.5 339t195.5 149.5t170 39.5zM1815 133h315q212 0 371 52t246 151t87 233q0 135 -89 226.5t-220 91.5q-108 0 -220 -87t-316 -323l-285 -332q50 -12 111 -12z
M2699 184l78 78q79 -74 145.5 -101.5t174.5 -27.5q20 0 20 -20v-90q0 -23 -20 -23q-120 0 -208 39.5t-190 144.5zM856 -713l131 129l129 -129l-129 -129zM555 -713l129 129l131 -129l-131 -129z" />
    <glyph glyph-name="uniFD23" unicode="&#xfd23;" horiz-adv-x="3096" arabic-form="final" 
d="M2535 1020q180 0 302 -122.5t122 -305.5q0 -269 -220 -430.5t-585 -161.5h-290q-230 0 -351.5 121.5t-121.5 370.5q0 109 26 256l17 88q-126 -6 -234 -33q-177 -43 -280 -120.5t-103 -168.5q0 -57 35 -96.5t139 -108.5l105 -69q109 -72 156.5 -141t47.5 -154
q0 -178 -150 -281.5t-437 -103.5q-98 0 -186 19t-166.5 60.5t-135.5 103.5t-90 153.5t-33 203.5q0 209 93 484h112q-92 -234 -92 -453q0 -212 144 -325t421 -113q195 0 296.5 67.5t101.5 171.5q0 49 -33.5 90t-124.5 103l-94 63q-133 91 -182.5 156t-49.5 154
q0 188 190.5 311t561.5 164l108 -92q-31 -153 -41 -234t-10 -168q0 -191 94 -276q160 182 252 289q204 229 320.5 339t195.5 149.5t170 39.5zM1815 133h315q212 0 371 52t246 151t87 233q0 135 -89 226.5t-220 91.5q-108 0 -220 -87t-316 -323l-285 -332q50 -12 111 -12z
M2699 184l78 78q79 -74 145.5 -101.5t174.5 -27.5q20 0 20 -20v-90q0 -23 -20 -23q-120 0 -208 39.5t-190 144.5zM1944 1294l129 129l131 -129l-129 -129z" />
    <glyph glyph-name="uniFD24" unicode="&#xfd24;" horiz-adv-x="3096" arabic-form="final" 
d="M2535 1020q180 0 302 -122.5t122 -305.5q0 -269 -220 -430.5t-585 -161.5h-290q-230 0 -351.5 121.5t-121.5 370.5q0 109 26 256l17 88q-126 -6 -234 -33q-177 -43 -280 -120.5t-103 -168.5q0 -57 35 -96.5t139 -108.5l105 -69q109 -72 156.5 -141t47.5 -154
q0 -178 -150 -281.5t-437 -103.5q-98 0 -186 19t-166.5 60.5t-135.5 103.5t-90 153.5t-33 203.5q0 209 93 484h112q-92 -234 -92 -453q0 -212 144 -325t421 -113q195 0 296.5 67.5t101.5 171.5q0 49 -33.5 90t-124.5 103l-94 63q-133 91 -182.5 156t-49.5 154
q0 188 190.5 311t561.5 164l108 -92q-31 -153 -41 -234t-10 -168q0 -191 94 -276q160 182 252 289q204 229 320.5 339t195.5 149.5t170 39.5zM1815 133h315q212 0 371 52t246 151t87 233q0 135 -89 226.5t-220 91.5q-108 0 -220 -87t-316 -323l-285 -332q50 -12 111 -12z
M2699 184l78 78q79 -74 145.5 -101.5t174.5 -27.5q20 0 20 -20v-90q0 -23 -20 -23q-120 0 -208 39.5t-190 144.5zM856 -713l131 129l129 -129l-129 -129zM555 -713l129 129l131 -129l-131 -129zM1944 1294l129 129l131 -129l-129 -129z" />
    <glyph glyph-name="uniFD29" unicode="&#xfd29;" horiz-adv-x="2578" arabic-form="final" 
d="M975 1014h112q-79 -352 -79 -535q0 -346 311 -346q103 0 159 29t89 88q34 63 46.5 171.5t12.5 336.5h113q0 -229 -21 -367q-15 -119 -53 -203l23 -8q139 -47 239 -47q103 0 159 29t89 88q34 63 46.5 171.5t12.5 336.5v143h113v-143q0 -236 -20 -367q-10 -74 -35 -153
q26 -22 49 -37q54 -38 108 -53t138 -15q20 0 20 -20v-90q0 -23 -20 -23q-92 0 -160.5 20.5t-138.5 73.5l-47 39q-42 -54 -105 -88q-80 -45 -188 -45q-92 0 -197 31q-76 20 -154 63q-27 -27 -69 -49q-80 -45 -189 -45q-222 0 -333 120.5t-111 371.5q0 78 14 190q1 4 11 57
l-97 -22q-166 -39 -305 -86q-18 -6 -90 -35q18 -152 27 -272q8 -117 8 -265q0 -244 -137 -371.5t-367 -127.5v123q169 0 279 98t110 280q0 219 -43 564l94 94q135 44 293 84q118 30 250 51q13 74 33 160zM1722 1122l131 131l129 -131l-129 -129zM1380 1122l129 131l131 -131
l-131 -129zM1581 1352l102 104l105 -104l-102 -103z" />
    <glyph glyph-name="uniFD2A" unicode="&#xfd2a;" horiz-adv-x="2578" arabic-form="final" 
d="M975 1014h112q-79 -352 -79 -535q0 -346 311 -346q103 0 159 29t89 88q34 63 46.5 171.5t12.5 336.5h113q0 -229 -21 -367q-15 -119 -53 -203l23 -8q139 -47 239 -47q103 0 159 29t89 88q34 63 46.5 171.5t12.5 336.5v143h113v-143q0 -236 -20 -367q-10 -74 -35 -153
q26 -22 49 -37q54 -38 108 -53t138 -15q20 0 20 -20v-90q0 -23 -20 -23q-92 0 -160.5 20.5t-138.5 73.5l-47 39q-42 -54 -105 -88q-80 -45 -188 -45q-92 0 -197 31q-76 20 -154 63q-27 -27 -69 -49q-80 -45 -189 -45q-222 0 -333 120.5t-111 371.5q0 78 14 190q1 4 11 57
l-97 -22q-166 -39 -305 -86q-18 -6 -90 -35q18 -152 27 -272q8 -117 8 -265q0 -244 -137 -371.5t-367 -127.5v123q169 0 279 98t110 280q0 219 -43 564l94 94q135 44 293 84q118 30 250 51q13 74 33 160z" />
    <glyph glyph-name="uniFD2B" unicode="&#xfd2b;" horiz-adv-x="2584" arabic-form="final" 
d="M2040 1020q180 0 302 -122.5t122 -305.5q0 -269 -220 -430.5t-585 -161.5h-291q-230 0 -351.5 121.5t-121.5 370.5q0 78 14 190q1 4 11 57l-97 -22q-166 -39 -305 -86q-18 -6 -90 -35q18 -152 27 -272q8 -117 8 -265q0 -244 -137 -371.5t-367 -127.5v123q169 0 279 98
t110 280q0 219 -43 564l94 94q135 44 293 84q118 30 250 51q13 74 33 160h112q-79 -352 -79 -535q0 -191 94 -276q160 182 252 289q204 229 320.5 339t195.5 149.5t170 39.5zM1319 133h315q322 0 513.5 117t191.5 319q0 135 -89 226.5t-220 91.5q-108 0 -220.5 -87.5
t-316.5 -322.5l-285 -332q50 -12 111 -12zM2187 184l78 78q79 -74 145.5 -101.5t174.5 -27.5q20 0 20 -20v-90q0 -23 -20 -23q-120 0 -208 39.5t-190 144.5z" />
    <glyph glyph-name="uniFD2C" unicode="&#xfd2c;" horiz-adv-x="2584" arabic-form="final" 
d="M2040 1020q180 0 302 -122.5t122 -305.5q0 -269 -220 -430.5t-585 -161.5h-291q-230 0 -351.5 121.5t-121.5 370.5q0 78 14 190q1 4 11 57l-97 -22q-166 -39 -305 -86q-18 -6 -90 -35q18 -152 27 -272q8 -117 8 -265q0 -244 -137 -371.5t-367 -127.5v123q169 0 279 98
t110 280q0 219 -43 564l94 94q135 44 293 84q118 30 250 51q13 74 33 160h112q-79 -352 -79 -535q0 -191 94 -276q160 182 252 289q204 229 320.5 339t195.5 149.5t170 39.5zM1319 133h315q322 0 513.5 117t191.5 319q0 135 -89 226.5t-220 91.5q-108 0 -220.5 -87.5
t-316.5 -322.5l-285 -332q50 -12 111 -12zM2187 184l78 78q79 -74 145.5 -101.5t174.5 -27.5q20 0 20 -20v-90q0 -23 -20 -23q-120 0 -208 39.5t-190 144.5zM1427 1284l129 129l132 -129l-129 -129z" />
    <glyph glyph-name="uniFE82" unicode="&#x622;" horiz-adv-x="581" arabic-form="final" 
d="M184 1229h123v-844q0 -128 66.5 -190t208.5 -62q20 0 20 -20v-90q0 -23 -20 -23q-398 0 -398 391v838zM98 1534q46 0 126 -38t126 -38q35 0 83 14.5t81 38.5l-2 -114q-67 -51 -158 -51q-48 0 -120 37.5t-111 37.5q-41 0 -66.5 -21.5t-31.5 -58.5h-103q0 75 46.5 134
t129.5 59z" />
    <glyph glyph-name="uniFE84" unicode="&#x623;" horiz-adv-x="581" arabic-form="final" 
d="M184 1229h123v-844q0 -128 66.5 -190t208.5 -62q20 0 20 -20v-90q0 -23 -20 -23q-398 0 -398 391v838zM297 1444h203l-31 -103h-322q-78 0 -153 -24v98q79 29 149 29l-18 22q-31 48 -31 95q0 79 53.5 128.5t133.5 49.5q55 0 141 -39v-103q-69 29 -125 29q-46 0 -72 -24.5
t-26 -63.5t28.5 -66.5t69.5 -27.5z" />
    <glyph glyph-name="uniFE86" unicode="&#x624;" horiz-adv-x="1056" arabic-form="final" 
d="M530 952q163 0 263 -112t112 -303q1 -24 9 -165t10 -212l2 -27h131q20 0 20 -20v-90q0 -23 -20 -23h-131q-9 -89 -47 -160q-68 -138 -233.5 -209t-409.5 -71v123q281 0 430 96q120 79 141 221h-184q-250 0 -385.5 119t-135.5 346q0 213 116.5 350t311.5 137zM809 156
q-2 60 -11.5 189t-11.5 171q-11 141 -83 222t-189 81q-133 0 -211 -98.5t-78 -247.5q0 -164 102 -252t289 -88h195q0 15 -2 23zM561 1298h197l-35 -112h-240q-106 0 -217 -35v106q93 30 105 33l28 6q-45 45 -45 107q0 78 54.5 130t136.5 52q77 0 147 -37v-102
q-80 27 -133 27q-44 0 -73 -23.5t-29 -63.5q0 -41 35 -65q25 -20 69 -23z" />
    <glyph glyph-name="uniFE88" unicode="&#x625;" horiz-adv-x="581" arabic-form="final" 
d="M184 1485h123v-1100q0 -128 66.5 -190t208.5 -62q20 0 20 -20v-90q0 -23 -20 -23q-398 0 -398 391v1094zM305 -397h203l-31 -103h-321q-79 0 -154 -24v98q79 29 150 29l-19 24q-31 48 -31 92q0 79 53.5 129t133.5 50q55 0 141 -39v-103q-69 29 -125 29q-46 0 -72 -24.5
t-26 -63.5t28.5 -66.5t69.5 -27.5z" />
    <glyph glyph-name="uniFE8A" unicode="&#x626;" horiz-adv-x="1396" arabic-form="final" 
d="M1006 70v123q139 -36 219.5 -48t171.5 -12q20 0 20 -20v-90q0 -23 -20 -23h-31q-102 -209 -252 -317q-169 -123 -420 -123q-592 0 -592 540q0 209 93 484h112q-92 -234 -92 -453q0 -224 120.5 -331t381.5 -107q296 0 463 213q38 44 67 106l-24 4q-93 16 -217 54z
M1047 604h196l-35 -112h-239q-106 0 -217 -35v106q95 31 104 33l29 6q-45 45 -45 107q0 78 54 130t136 52q78 0 148 -37v-102q-77 26 -134 26q-44 0 -73 -23t-29 -63q0 -41 35 -65q25 -20 70 -23z" />
    <glyph glyph-name="uniFE8B" unicode="&#x626;" horiz-adv-x="667" arabic-form="initial" 
d="M367 993h122q62 -425 62 -602q0 -391 -397 -391h-154q-20 0 -20 23v90q0 20 20 20h154q284 0 284 252q0 84 -15 210.5t-56 397.5zM463 1217h196l-34 -113h-240q-106 0 -217 -35v107q85 28 104 32l29 6q-45 45 -45 107q0 78 54 130t136 52q78 0 148 -37v-102
q-80 27 -133 27q-44 0 -73.5 -23t-29.5 -63q0 -42 35 -66q24 -19 70 -22z" />
    <glyph glyph-name="uniFE8C" unicode="&#x626;" horiz-adv-x="757" arabic-form="medial" 
d="M342 758h113q0 -345 -41 -486q79 -67 151 -102q81 -37 193 -37q20 0 20 -20v-90q0 -23 -20 -23q-115 0 -221 47q-89 39 -170 117q-49 -74 -138 -117q-100 -47 -229 -47q-20 0 -20 23v90q0 20 20 20q116 0 182 28t101 91q36 61 47.5 161t11.5 345zM436 1018h197l-35 -113
h-240q-106 0 -217 -35v107q93 30 105 33l28 6q-45 45 -45 106q0 78 54.5 130.5t136.5 52.5q77 0 147 -37v-103q-80 27 -133 27q-44 0 -73 -23t-29 -63q0 -42 35 -66q24 -19 69 -22z" />
    <glyph glyph-name="uniFE8E" unicode="&#x627;" horiz-adv-x="581" arabic-form="final" 
d="M184 1485h123v-1100q0 -128 66.5 -190t208.5 -62q20 0 20 -20v-90q0 -23 -20 -23q-398 0 -398 391v1094z" />
    <glyph glyph-name="uniFE90" unicode="&#x628;" horiz-adv-x="1724" arabic-form="final" 
d="M1397 758h112q0 -236 -20 -367q-11 -92 -41 -170l31 -20q54 -38 108 -53t137 -15q21 0 21 -20v-90q0 -23 -21 -23q-92 0 -160.5 20.5t-138.5 73.5l-32 25q-39 -45 -95 -74q-77 -42 -178 -45h-526q-233 0 -362.5 110.5t-129.5 323.5q0 177 70 467h113q-60 -283 -60 -434
q0 -175 96 -254.5t300 -79.5h489q78 0 137 30.5t90 86.5q34 63 47 172t13 336zM729 -309l129 129l131 -129l-129 -129z" />
    <glyph glyph-name="uniFE91" unicode="&#x628;" horiz-adv-x="520" arabic-form="initial" 
d="M213 993h123q61 -418 61 -602q0 -391 -397 -391q-20 0 -20 23v90q0 20 20 20q285 0 285 252q0 83 -15 207.5t-57 400.5zM61 -311l129 129l132 -129l-129 -129z" />
    <glyph glyph-name="uniFE92" unicode="&#x628;" horiz-adv-x="614" arabic-form="medial" 
d="M287 758h112q0 -236 -20 -367q-11 -92 -41 -170l31 -20q54 -38 108 -53t137 -15q21 0 21 -20v-90q0 -23 -21 -23q-92 0 -160.5 20.5t-138.5 73.5l-32 25q-39 -45 -95 -74q-80 -45 -188 -45q-20 0 -20 23v90q0 20 20 20q78 0 137 30.5t90 86.5q34 63 47 172t13 336z
M158 -319l129 129l131 -129l-129 -130z" />
    <glyph glyph-name="uniFE94" unicode="&#x629;" horiz-adv-x="1099" arabic-form="final" 
d="M772 1102h123v-758q0 -108 47.5 -159.5t157.5 -51.5q20 0 20 -20v-90q0 -23 -20 -23q-171 0 -250 88l-8 10q-92 -47 -166 -71q-86 -27 -172 -27q-178 0 -290 106t-112 277q0 66 19.5 130.5t60 129t112.5 124t169 103.5q128 59 309 80v152zM575 791q-162 -57 -256 -161.5
t-94 -236.5q0 -117 77 -188.5t206 -71.5q146 0 283 64q-19 68 -19 149v490q-114 -13 -197 -45zM754 1405l131 129l129 -129l-129 -129zM453 1405l129 129l131 -129l-131 -129z" />
    <glyph glyph-name="uniFE96" unicode="&#x62a;" horiz-adv-x="1724" arabic-form="final" 
d="M1397 758h112q0 -236 -20 -367q-11 -92 -41 -170l31 -20q54 -38 108 -53t137 -15q21 0 21 -20v-90q0 -23 -21 -23q-92 0 -160.5 20.5t-138.5 73.5l-32 25q-39 -45 -95 -74q-77 -42 -178 -45h-10h-6h-510q-233 0 -362.5 110.5t-129.5 323.5q0 177 70 467h113
q-60 -283 -60 -434q0 -175 96 -254.5t300 -79.5h489h10h4q68 3 123 31q60 31 90 86q34 63 47 172t13 336zM645 1083l129 129l131 -129l-131 -129zM946 1083l131 129l129 -129l-129 -129z" />
    <glyph glyph-name="uniFE97" unicode="&#x62a;" horiz-adv-x="745" arabic-form="initial" 
d="M367 993h122q62 -425 62 -602q0 -391 -397 -391h-154q-20 0 -20 23v90q0 20 20 20h154q284 0 284 252q0 84 -15 210.5t-56 397.5zM424 1305l131 129l129 -129l-129 -129zM123 1305l129 129l131 -129l-131 -129z" />
    <glyph glyph-name="uniFE98" unicode="&#x62a;" horiz-adv-x="757" arabic-form="medial" 
d="M342 758h113q0 -345 -41 -486q79 -67 151 -102q81 -37 193 -37q20 0 20 -20v-90q0 -23 -20 -23q-115 0 -221 47q-89 39 -170 117q-49 -74 -138 -117q-100 -47 -229 -47q-20 0 -20 23v90q0 20 20 20q116 0 182 28t101 91q36 61 47.5 161t11.5 345zM412 1081l131 129
l129 -129l-129 -129zM111 1081l129 129l131 -129l-131 -129z" />
    <glyph glyph-name="uniFE9A" unicode="&#x62b;" horiz-adv-x="1724" arabic-form="final" 
d="M1397 758h112q0 -236 -20 -367q-11 -92 -41 -170l31 -20q54 -38 108 -53t137 -15q21 0 21 -20v-90q0 -23 -21 -23q-92 0 -160.5 20.5t-138.5 73.5l-32 25q-39 -45 -95 -74q-74 -42 -174 -45h-4h-10h-6h-510q-233 0 -362.5 110.5t-129.5 323.5q0 177 70 467h113
q-60 -283 -60 -434q0 -175 96 -254.5t300 -79.5h483h6h10h4q68 3 123 31q60 31 90 86q34 63 47 172t13 336zM958 1081l132 131l129 -131l-129 -129zM616 1081l129 131l132 -131l-132 -129zM817 1311l103 104l104 -104l-102 -103z" />
    <glyph glyph-name="uniFE9B" unicode="&#x62b;" horiz-adv-x="763" arabic-form="initial" 
d="M367 993h122q62 -425 62 -602q0 -391 -397 -391h-154q-20 0 -20 23v90q0 20 20 20h154q284 0 284 252q0 84 -15 210.5t-56 397.5zM442 1317l131 131l129 -131l-129 -129zM100 1317l129 131l131 -131l-131 -129zM301 1546l102 105l105 -105l-102 -102z" />
    <glyph glyph-name="uniFE9C" unicode="&#x62b;" horiz-adv-x="757" arabic-form="medial" 
d="M342 758h113q0 -345 -41 -486q79 -67 151 -102q81 -37 193 -37q20 0 20 -20v-90q0 -23 -20 -23q-115 0 -221 47q-89 39 -170 117q-49 -74 -138 -117q-100 -47 -229 -47q-20 0 -20 23v90q0 20 20 20q116 0 182 28t101 91q36 61 47.5 161t11.5 345zM438 1083l131 131
l129 -131l-129 -129zM96 1083l129 131l131 -131l-131 -129zM297 1313l102 104l105 -104l-103 -103z" />
    <glyph glyph-name="uniFE9E" unicode="&#x62c;" horiz-adv-x="1333" arabic-form="final" 
d="M410 1102q68 0 135 -31t135.5 -86t141 -116.5t182.5 -137t229 -133.5l-33 -125q-47 0 -129 -4v-162q0 -174 262 -174q21 0 21 -20v-90q0 -23 -21 -23q-174 0 -269 75t-95 214v172q-109 -15 -197 -39q-264 -71 -404.5 -213.5t-140.5 -310.5q0 -163 123 -245.5t340 -82.5
q204 0 461 76v-113q-159 -54 -259 -75t-212 -21q-275 0 -426.5 115.5t-151.5 343.5q0 86 29 168t89 162.5t165.5 151t247.5 120.5q162 55 387 73q-97 58 -152 101q-44 35 -107 88.5t-100.5 84t-85 63t-90 47t-86.5 14.5q-100 0 -245 -51v112q49 30 120.5 51t135.5 21z
M604 12l129 129l131 -129l-129 -129z" />
    <glyph glyph-name="uniFE9F" unicode="&#x62c;" horiz-adv-x="1243" arabic-form="initial" 
d="M387 952q69 0 132.5 -27t128 -76t132.5 -103.5t175 -124t227 -123.5l-33 -125q-98 -21 -184 -54t-147.5 -66.5t-123.5 -70.5t-127.5 -69t-142 -57.5t-184 -40.5t-238.5 -15q-22 0 -22 23v90q0 20 22 20q136 0 246 16t197.5 48t149.5 62t147.5 76t144.5 73q66 26 117 43
q-107 52 -183 110q-36 28 -99 78.5t-94.5 74t-78.5 53t-87.5 41t-84.5 11.5q-101 0 -246 -51v113q49 30 120.5 50.5t135.5 20.5zM412 -305l129 129l131 -129l-129 -129z" />
    <glyph glyph-name="uniFEA0" unicode="&#x62c;" horiz-adv-x="1292" arabic-form="medial" 
d="M387 952q69 0 132.5 -27t128 -76t132.5 -103.5t175 -124t227 -123.5l-33 -125q-22 -4 -90 -23v-53q0 -78 53 -121t180 -43q21 0 21 -20v-90q0 -23 -21 -23q-90 0 -156.5 23t-105 63.5t-56.5 91t-18 111.5v26l-18 -8q-76 -30 -160.5 -77t-149.5 -83.5t-150.5 -72
t-204.5 -55t-271 -19.5q-22 0 -22 23v90q0 20 22 20q136 0 246 16t197.5 48t149.5 62t147.5 76t144.5 73q66 26 117 43q-107 52 -183 110q-36 28 -99 78.5t-94.5 74t-78.5 53t-87.5 41t-84.5 11.5q-101 0 -246 -51v113q49 30 120.5 50.5t135.5 20.5zM412 -307l129 129
l131 -129l-129 -129z" />
    <glyph glyph-name="uniFEA2" unicode="&#x62d;" horiz-adv-x="1333" arabic-form="final" 
d="M410 1102q68 0 135 -31t135.5 -86t141 -116.5t182.5 -137t229 -133.5l-33 -125q-47 0 -129 -4v-162q0 -174 262 -174q21 0 21 -20v-90q0 -23 -21 -23q-174 0 -269 75t-95 214v172q-109 -15 -197 -39q-264 -71 -404.5 -213.5t-140.5 -310.5q0 -163 123 -245.5t340 -82.5
q204 0 461 76v-113q-159 -54 -259 -75t-212 -21q-275 0 -426.5 115.5t-151.5 343.5q0 86 29 168t89 162.5t165.5 151t247.5 120.5q162 55 387 73q-97 58 -152 101q-44 35 -107 88.5t-100.5 84t-85 63t-90 47t-86.5 14.5q-100 0 -245 -51v112q49 30 120.5 51t135.5 21z" />
    <glyph glyph-name="uniFEA3" unicode="&#x62d;" horiz-adv-x="1243" arabic-form="initial" 
d="M387 952q69 0 132.5 -27t128 -76t132.5 -103.5t175 -124t227 -123.5l-33 -125q-98 -21 -184 -54t-147.5 -66.5t-123.5 -70.5t-127.5 -69t-142 -57.5t-184 -40.5t-238.5 -15q-22 0 -22 23v90q0 20 22 20q136 0 246 16t197.5 48t149.5 62t147.5 76t144.5 73q66 26 117 43
q-107 52 -183 110q-36 28 -99 78.5t-94.5 74t-78.5 53t-87.5 41t-84.5 11.5q-101 0 -246 -51v113q49 30 120.5 50.5t135.5 20.5z" />
    <glyph glyph-name="uniFEA4" unicode="&#x62d;" horiz-adv-x="1292" arabic-form="medial" 
d="M387 952q69 0 132.5 -27t128 -76t132.5 -103.5t175 -124t227 -123.5l-33 -125q-22 -4 -90 -23v-53q0 -78 53 -121t180 -43q21 0 21 -20v-90q0 -23 -21 -23q-90 0 -156.5 23t-105 63.5t-56.5 91t-18 111.5v26l-18 -8q-76 -30 -160.5 -77t-149.5 -83.5t-150.5 -72
t-204.5 -55t-271 -19.5q-22 0 -22 23v90q0 20 22 20q136 0 246 16t197.5 48t149.5 62t147.5 76t144.5 73q66 26 117 43q-107 52 -183 110q-36 28 -99 78.5t-94.5 74t-78.5 53t-87.5 41t-84.5 11.5q-101 0 -246 -51v113q49 30 120.5 50.5t135.5 20.5z" />
    <glyph glyph-name="uniFEA6" unicode="&#x62e;" horiz-adv-x="1333" arabic-form="final" 
d="M410 1102q68 0 135 -31t135.5 -86t141 -116.5t182.5 -137t229 -133.5l-33 -125q-47 0 -129 -4v-162q0 -174 262 -174q21 0 21 -20v-90q0 -23 -21 -23q-174 0 -269 75t-95 214v172q-109 -15 -197 -39q-264 -71 -404.5 -213.5t-140.5 -310.5q0 -163 123 -245.5t340 -82.5
q204 0 461 76v-113q-159 -54 -259 -75t-212 -21q-275 0 -426.5 115.5t-151.5 343.5q0 86 29 168t89 162.5t165.5 151t247.5 120.5q162 55 387 73q-97 58 -152 101q-44 35 -107 88.5t-100.5 84t-85 63t-90 47t-86.5 14.5q-100 0 -245 -51v112q49 30 120.5 51t135.5 21z
M741 1282l129 129l131 -129l-129 -129z" />
    <glyph glyph-name="uniFEA7" unicode="&#x62e;" horiz-adv-x="1243" arabic-form="initial" 
d="M387 952q69 0 132.5 -27t128 -76t132.5 -103.5t175 -124t227 -123.5l-33 -125q-98 -21 -184 -54t-147.5 -66.5t-123.5 -70.5t-127.5 -69t-142 -57.5t-184 -40.5t-238.5 -15q-22 0 -22 23v90q0 20 22 20q136 0 246 16t197.5 48t149.5 62t147.5 76t144.5 73q66 26 117 43
q-107 52 -183 110q-36 28 -99 78.5t-94.5 74t-78.5 53t-87.5 41t-84.5 11.5q-101 0 -246 -51v113q49 30 120.5 50.5t135.5 20.5zM313 1298l129 129l131 -129l-129 -129z" />
    <glyph glyph-name="uniFEA8" unicode="&#x62e;" horiz-adv-x="1292" arabic-form="medial" 
d="M387 952q69 0 132.5 -27t128 -76t132.5 -103.5t175 -124t227 -123.5l-33 -125q-22 -4 -90 -23v-53q0 -78 53 -121t180 -43q21 0 21 -20v-90q0 -23 -21 -23q-90 0 -156.5 23t-105 63.5t-56.5 91t-18 111.5v26l-18 -8q-76 -30 -160.5 -77t-149.5 -83.5t-150.5 -72
t-204.5 -55t-271 -19.5q-22 0 -22 23v90q0 20 22 20q136 0 246 16t197.5 48t149.5 62t147.5 76t144.5 73q66 26 117 43q-107 52 -183 110q-36 28 -99 78.5t-94.5 74t-78.5 53t-87.5 41t-84.5 11.5q-101 0 -246 -51v113q49 30 120.5 50.5t135.5 20.5zM313 1298l129 129
l131 -129l-129 -129z" />
    <glyph glyph-name="uniFEAA" unicode="&#x62f;" horiz-adv-x="1071" arabic-form="final" 
d="M41 70v123q123 -35 202.5 -47.5t168.5 -12.5q186 0 354 60q-43 74 -68 163q-90 289 -151 637h133q24 -168 64.5 -348t78.5 -291q38 -121 94.5 -171t153.5 -50q21 0 21 -20v-90q0 -23 -21 -23q-146 0 -240 104q-109 -54 -198 -77q-102 -27 -221 -27q-103 0 -173.5 13.5
t-197.5 56.5z" />
    <glyph glyph-name="uniFEAC" unicode="&#x630;" horiz-adv-x="1071" arabic-form="final" 
d="M41 70v123q123 -35 202.5 -47.5t168.5 -12.5q186 0 354 60q-43 74 -68 163q-90 289 -151 637h133q24 -168 64.5 -348t78.5 -291q38 -121 94.5 -171t153.5 -50q21 0 21 -20v-90q0 -23 -21 -23q-146 0 -240 104q-109 -54 -198 -77q-102 -27 -221 -27q-103 0 -173.5 13.5
t-197.5 56.5zM471 1294l129 129l131 -129l-129 -129z" />
    <glyph glyph-name="uniFEAE" unicode="&#x631;" horiz-adv-x="684" arabic-form="final" 
d="M268 901h123q34 -258 49 -420l15 -123q7 -63 26 -108t40.5 -67t55 -34t54.5 -14t53 -2q21 0 21 -20v-90q0 -23 -21 -23q-118 0 -195 74q-20 20 -26 30v-45q0 -244 -137 -371.5t-367 -127.5v123q169 0 279 98t110 280q0 278 -80 840z" />
    <glyph glyph-name="uniFEB0" unicode="&#x632;" horiz-adv-x="684" arabic-form="final" 
d="M268 901h123q34 -258 49 -420l15 -123q7 -63 26 -108t40.5 -67t55 -34t54.5 -14t53 -2q21 0 21 -20v-90q0 -23 -21 -23q-118 0 -195 74q-20 20 -26 30v-45q0 -244 -137 -371.5t-367 -127.5v123q169 0 279 98t110 280q0 278 -80 840zM186 1214l129 129l131 -129l-129 -129
z" />
    <glyph glyph-name="uniFEB2" unicode="&#x633;" horiz-adv-x="2705" arabic-form="final" 
d="M950 901h123q68 -451 68 -698q42 -19 55 -23q139 -47 240 -47q103 0 158.5 29t88.5 88q34 63 47 172t13 336h112q0 -236 -20 -367q-15 -119 -53 -203l22 -8q139 -47 240 -47q103 0 159 29t89 88q34 63 46.5 171.5t12.5 336.5v143h113v-143q0 -229 -21 -367
q-7 -66 -33 -145q27 -24 58 -45q54 -38 108 -53t138 -15q20 0 20 -20v-90q0 -23 -20 -23q-92 0 -160.5 20.5t-138.5 73.5l-54 43q-39 -54 -108 -92q-80 -45 -189 -45q-91 0 -196 31q-76 20 -154 63q-27 -27 -69 -49q-80 -45 -189 -45q-82 0 -180 25q-73 22 -141 55
q-7 -57 -25 -133q-44 -184 -173 -285.5t-345 -101.5q-234 0 -362 141.5t-128 398.5q0 209 93 484h112q-92 -234 -92 -453q0 -438 393 -438q218 0 318 121.5t100 388.5q0 118 -17 266.5t-59 431.5z" />
    <glyph glyph-name="uniFEB3" unicode="&#x633;" horiz-adv-x="1748" arabic-form="initial" 
d="M264 758h113q0 -229 -21 -367q-15 -116 -49 -194q7 -3 22 -9t19 -8q139 -47 240 -47q103 0 159 29t89 88q34 63 46.5 171.5t12.5 336.5h113q0 -229 -21 -367q-16 -118 -47 -186q87 -39 133 -51q77 -21 156 -21q284 0 284 252q0 84 -15 210.5t-56 397.5h123
q61 -418 61 -602q0 -186 -98.5 -288.5t-278.5 -102.5q-90 0 -188 31q-86 29 -176 82q-40 -43 -88 -68q-80 -45 -189 -45q-91 0 -196 31q-96 29 -170 71q-34 -34 -76 -59q-76 -43 -166 -43q-20 0 -20 23v90q0 20 20 20q135 0 205 117q34 63 46.5 171.5t12.5 336.5z" />
    <glyph glyph-name="uniFEB4" unicode="&#x633;" horiz-adv-x="1855" arabic-form="medial" 
d="M264 758h113q0 -229 -21 -367q-15 -116 -49 -194q7 -3 22 -9t19 -8q139 -47 240 -47q103 0 159 29t89 88q34 63 46.5 171.5t12.5 336.5h113q0 -229 -21 -367q-15 -119 -53 -203l22 -8q139 -47 240 -47q103 0 159 29t89 88q34 63 46.5 171.5t12.5 336.5v143h113v-143
q0 -229 -21 -367q-11 -80 -34 -153q25 -22 49 -37q54 -38 108 -53t137 -15q21 0 21 -20v-90q0 -23 -21 -23q-92 0 -160.5 20.5t-138.5 73.5l-47 39q-43 -55 -104 -88q-80 -45 -188 -45q-92 0 -197 31q-76 20 -154 63q-27 -27 -69 -49q-80 -45 -189 -45q-91 0 -196 31
q-96 29 -170 71q-34 -34 -76 -59q-76 -43 -166 -43q-20 0 -20 23v90q0 20 20 20q135 0 205 117q34 63 46.5 171.5t12.5 336.5z" />
    <glyph glyph-name="uniFEB6" unicode="&#x634;" horiz-adv-x="2705" arabic-form="final" 
d="M950 901h123q68 -451 68 -698q42 -19 55 -23q139 -47 240 -47q103 0 158.5 29t88.5 88q34 63 47 172t13 336h112q0 -236 -20 -367q-15 -119 -53 -203l22 -8q139 -47 240 -47q103 0 159 29t89 88q34 63 46.5 171.5t12.5 336.5v143h113v-143q0 -229 -21 -367
q-7 -66 -33 -145q27 -24 58 -45q54 -38 108 -53t138 -15q20 0 20 -20v-90q0 -23 -20 -23q-92 0 -160.5 20.5t-138.5 73.5l-54 43q-39 -54 -108 -92q-80 -45 -189 -45q-91 0 -196 31q-76 20 -154 63q-27 -27 -69 -49q-80 -45 -189 -45q-82 0 -180 25q-73 22 -141 55
q-7 -57 -25 -133q-44 -184 -173 -285.5t-345 -101.5q-234 0 -362 141.5t-128 398.5q0 209 93 484h112q-92 -234 -92 -453q0 -438 393 -438q218 0 318 121.5t100 388.5q0 118 -17 266.5t-59 431.5zM1825 1122l131 131l129 -131l-129 -129zM1483 1122l129 131l131 -131
l-131 -129zM1683 1352l103 104l104 -104l-102 -103z" />
    <glyph glyph-name="uniFEB7" unicode="&#x634;" horiz-adv-x="1748" arabic-form="initial" 
d="M264 758h113q0 -229 -21 -367q-15 -116 -49 -194q7 -3 22 -9t19 -8q139 -47 240 -47q103 0 159 29t89 88q34 63 46.5 171.5t12.5 336.5h113q0 -229 -21 -367q-16 -118 -47 -186q87 -39 133 -51q77 -21 156 -21q284 0 284 252q0 84 -15 210.5t-56 397.5h123
q61 -418 61 -602q0 -186 -98.5 -288.5t-278.5 -102.5q-90 0 -188 31q-86 29 -176 82q-40 -43 -88 -68q-80 -45 -189 -45q-91 0 -196 31q-96 29 -170 71q-34 -34 -76 -59q-76 -43 -166 -43q-20 0 -20 23v90q0 20 20 20q135 0 205 117q34 63 46.5 171.5t12.5 336.5zM1001 1124
l132 131l129 -131l-129 -129zM659 1124l129 131l132 -131l-132 -129zM860 1354l103 104l104 -104l-102 -103z" />
    <glyph glyph-name="uniFEB8" unicode="&#x634;" horiz-adv-x="1855" arabic-form="medial" 
d="M264 758h113q0 -229 -21 -367q-15 -116 -49 -194q7 -3 22 -9t19 -8q139 -47 240 -47q103 0 159 29t89 88q34 63 46.5 171.5t12.5 336.5h113q0 -229 -21 -367q-15 -119 -53 -203l22 -8q139 -47 240 -47q103 0 159 29t89 88q34 63 46.5 171.5t12.5 336.5v143h113v-143
q0 -229 -21 -367q-11 -80 -34 -153q25 -22 49 -37q54 -38 108 -53t137 -15q21 0 21 -20v-90q0 -23 -21 -23q-92 0 -160.5 20.5t-138.5 73.5l-47 39q-43 -55 -104 -88q-80 -45 -188 -45q-92 0 -197 31q-76 20 -154 63q-27 -27 -69 -49q-80 -45 -189 -45q-91 0 -196 31
q-96 29 -170 71q-34 -34 -76 -59q-76 -43 -166 -43q-20 0 -20 23v90q0 20 20 20q135 0 205 117q34 63 46.5 171.5t12.5 336.5zM981 1122l131 131l129 -131l-129 -129zM639 1122l129 131l131 -131l-131 -129zM840 1352l102 104l105 -104l-103 -103z" />
    <glyph glyph-name="uniFEBA" unicode="&#x635;" horiz-adv-x="2580" arabic-form="final" 
d="M950 901h123q34 -231 49 -375q10 -105 11 -120q132 153 243 264q201 201 350.5 285.5t292.5 84.5q180 0 302 -122.5t122 -305.5q0 -136 -57 -247q-43 -81 -94 -132q9 -8 43 -32q54 -38 108 -53t137 -15q21 0 21 -20v-90q0 -23 -21 -23q-92 0 -160.5 20.5t-138.5 73.5
q-32 23 -73 64q-107 -74 -240 -113q-142 -45 -330 -45q-202 0 -434 45l-71 12q-10 -64 -23 -110q-44 -184 -173 -285.5t-345 -101.5q-234 0 -362 141.5t-128 398.5q0 209 93 484h112q-92 -234 -92 -453q0 -438 393 -438q218 0 318 121.5t100 388.5q0 118 -17 266.5
t-59 431.5zM1219 160q211 -27 395 -27q318 0 511 126t193 331q0 135 -89 226t-220 91q-155 0 -307 -98.5t-336 -296.5l-225 -246v-63v-33q44 -8 78 -10z" />
    <glyph glyph-name="uniFEBB" unicode="&#x635;" horiz-adv-x="2033" arabic-form="initial" 
d="M346 758h113q-33 -295 -66 -439l-6 -24q26 -10 119 -45l20 -6q127 150 252 282q148 161 259 262t195.5 150.5t144 65.5t130.5 16q180 0 302 -122.5t122 -305.5q0 -269 -220 -430.5t-585 -161.5q-300 0 -665 141l-121 52q-57 -87 -147.5 -140t-192.5 -53q-20 0 -20 23v90
q0 20 20 20q118 0 181 44.5t98 154.5q48 151 67 426zM647 205l47 -12q228 -60 408 -60q212 0 371 52t246 151t87 233q0 135 -89 226.5t-220 91.5q-114 0 -244 -82t-331 -295q-173 -186 -275 -305z" />
    <glyph glyph-name="uniFEBC" unicode="&#x635;" horiz-adv-x="2060" arabic-form="medial" 
d="M346 758h113q-33 -295 -66 -439l-6 -24q26 -10 119 -45l20 -6q127 150 252 282q148 161 259 262t195.5 150.5t144 65.5t130.5 16q180 0 302 -122.5t122 -305.5q0 -269 -220 -430.5t-585 -161.5q-300 0 -665 141l-121 52q-57 -87 -147.5 -140t-192.5 -53q-20 0 -20 23v90
q0 20 20 20q118 0 181 44.5t98 154.5q48 151 67 426zM647 205l47 -12q228 -60 408 -60q212 0 371 52t246 151t87 233q0 135 -89 226.5t-220 91.5q-114 0 -244 -82t-331 -295q-173 -186 -275 -305zM1663 184l78 78q79 -74 145.5 -101.5t173.5 -27.5q21 0 21 -20v-90
q0 -23 -21 -23q-120 0 -207.5 39.5t-189.5 144.5z" />
    <glyph glyph-name="uniFEBE" unicode="&#x636;" horiz-adv-x="2580" arabic-form="final" 
d="M950 901h123q34 -231 49 -375q10 -105 11 -120q132 153 243 264q201 201 350.5 285.5t292.5 84.5q180 0 302 -122.5t122 -305.5q0 -136 -57 -247q-43 -81 -94 -132q9 -8 43 -32q54 -38 108 -53t137 -15q21 0 21 -20v-90q0 -23 -21 -23q-92 0 -160.5 20.5t-138.5 73.5
q-32 23 -73 64q-107 -74 -240 -113q-142 -45 -330 -45q-202 0 -434 45l-71 12q-10 -64 -23 -110q-44 -184 -173 -285.5t-345 -101.5q-234 0 -362 141.5t-128 398.5q0 209 93 484h112q-92 -234 -92 -453q0 -438 393 -438q218 0 318 121.5t100 388.5q0 118 -17 266.5
t-59 431.5zM1219 160q211 -27 395 -27q318 0 511 126t193 331q0 135 -89 226t-220 91q-155 0 -307 -98.5t-336 -296.5l-225 -246v-63v-33q44 -8 78 -10zM1497 1294l129 129l131 -129l-129 -129z" />
    <glyph glyph-name="uniFEBF" unicode="&#x636;" horiz-adv-x="2033" arabic-form="initial" 
d="M346 758h113q-33 -295 -66 -439l-6 -24q26 -10 119 -45l20 -6q127 150 252 282q148 161 259 262t195.5 150.5t144 65.5t130.5 16q180 0 302 -122.5t122 -305.5q0 -269 -220 -430.5t-585 -161.5q-300 0 -665 141l-121 52q-57 -87 -147.5 -140t-192.5 -53q-20 0 -20 23v90
q0 20 20 20q118 0 181 44.5t98 154.5q48 151 67 426zM647 205l47 -12q228 -60 408 -60q212 0 371 52t246 151t87 233q0 135 -89 226.5t-220 91.5q-114 0 -244 -82t-331 -295q-173 -186 -275 -305zM834 1294l129 129l131 -129l-129 -129z" />
    <glyph glyph-name="uniFEC0" unicode="&#x636;" horiz-adv-x="2060" arabic-form="medial" 
d="M346 758h113q-33 -295 -66 -439l-6 -24q26 -10 119 -45l20 -6q127 150 252 282q148 161 259 262t195.5 150.5t144 65.5t130.5 16q180 0 302 -122.5t122 -305.5q0 -269 -220 -430.5t-585 -161.5q-300 0 -665 141l-121 52q-57 -87 -147.5 -140t-192.5 -53q-20 0 -20 23v90
q0 20 20 20q118 0 181 44.5t98 154.5q48 151 67 426zM647 205l47 -12q228 -60 408 -60q212 0 371 52t246 151t87 233q0 135 -89 226.5t-220 91.5q-114 0 -244 -82t-331 -295q-173 -186 -275 -305zM1663 184l78 78q79 -74 145.5 -101.5t173.5 -27.5q21 0 21 -20v-90
q0 -23 -21 -23q-120 0 -207.5 39.5t-189.5 144.5zM834 1294l129 129l131 -129l-129 -129z" />
    <glyph glyph-name="uniFEC2" unicode="&#x637;" horiz-adv-x="1792" arabic-form="final" 
d="M412 1485h123v-676q0 -75 -15 -195l-16 -143q107 118 108 119q236 257 379.5 353.5t270.5 96.5q173 0 293 -123t120 -305q0 -179 -99.5 -318t-283 -216.5t-422.5 -77.5q-475 0 -829 88v123q115 -25 203 -37l168 193v1118zM377 158l51 -6q217 -19 418 -19q318 0 511 126
t193 331q0 134 -87 225.5t-212 91.5q-106 0 -247 -103.5t-357 -340.5q-156 -171 -270 -305zM1395 184l78 78q79 -74 145.5 -101.5t173.5 -27.5q20 0 20 -20v-90q0 -23 -20 -23q-120 0 -207.5 39.5t-189.5 144.5z" />
    <glyph glyph-name="uniFEC3" unicode="&#x637;" horiz-adv-x="1619" arabic-form="initial" 
d="M254 1485h123v-676q0 -75 -15 -195l-16 -151q86 98 221 244q189 196 306 264.5t235 68.5q177 0 293.5 -122.5t116.5 -305.5q0 -179 -99.5 -318t-283 -216.5t-422.5 -77.5h-713q-20 0 -20 23v90q0 20 20 20h63q91 110 191 225v1127zM211 133h477q318 0 511.5 126
t193.5 331q0 135 -84.5 226t-210.5 91q-117 0 -255 -104.5t-364 -358.5q-162 -183 -268 -311z" />
    <glyph glyph-name="uniFEC4" unicode="&#x637;" horiz-adv-x="1630" arabic-form="medial" 
d="M254 1485h123v-676q0 -75 -15 -195l-16 -151q86 98 221 244q189 196 306 264.5t235 68.5q177 0 293.5 -122.5t116.5 -305.5q0 -179 -99.5 -318t-283 -216.5t-422.5 -77.5h-713q-20 0 -20 23v90q0 20 20 20h63q91 110 191 225v1127zM211 133h477q318 0 511.5 126
t193.5 331q0 135 -84.5 226t-210.5 91q-117 0 -255 -104.5t-364 -358.5q-162 -183 -268 -311zM1233 184l78 78q79 -74 145.5 -101.5t173.5 -27.5q21 0 21 -20v-90q0 -23 -21 -23q-120 0 -207.5 39.5t-189.5 144.5z" />
    <glyph glyph-name="uniFEC6" unicode="&#x638;" horiz-adv-x="1792" arabic-form="final" 
d="M412 1485h123v-676q0 -75 -15 -195l-16 -143q107 118 108 119q236 257 379.5 353.5t270.5 96.5q173 0 293 -123t120 -305q0 -179 -99.5 -318t-283 -216.5t-422.5 -77.5q-475 0 -829 88v123q115 -25 203 -37l168 193v1118zM377 158l51 -6q217 -19 418 -19q318 0 511 126
t193 331q0 134 -87 225.5t-212 91.5q-106 0 -247 -103.5t-357 -340.5q-156 -171 -270 -305zM1395 184l78 78q79 -74 145.5 -101.5t173.5 -27.5q20 0 20 -20v-90q0 -23 -20 -23q-120 0 -207.5 39.5t-189.5 144.5zM764 1294l129 129l131 -129l-129 -129z" />
    <glyph glyph-name="uniFEC7" unicode="&#x638;" horiz-adv-x="1619" arabic-form="initial" 
d="M254 1485h123v-676q0 -75 -15 -195l-16 -151q86 98 221 244q189 196 306 264.5t235 68.5q177 0 293.5 -122.5t116.5 -305.5q0 -179 -99.5 -318t-283 -216.5t-422.5 -77.5h-713q-20 0 -20 23v90q0 20 20 20h63q91 110 191 225v1127zM211 133h477q318 0 511.5 126
t193.5 331q0 135 -84.5 226t-210.5 91q-117 0 -255 -104.5t-364 -358.5q-162 -183 -268 -311zM612 1294l129 129l131 -129l-129 -129z" />
    <glyph glyph-name="uniFEC8" unicode="&#x638;" horiz-adv-x="1630" arabic-form="medial" 
d="M254 1485h123v-676q0 -75 -15 -195l-16 -151q86 98 221 244q189 196 306 264.5t235 68.5q177 0 293.5 -122.5t116.5 -305.5q0 -179 -99.5 -318t-283 -216.5t-422.5 -77.5h-713q-20 0 -20 23v90q0 20 20 20h63q91 110 191 225v1127zM211 133h477q318 0 511.5 126
t193.5 331q0 135 -84.5 226t-210.5 91q-117 0 -255 -104.5t-364 -358.5q-162 -183 -268 -311zM1233 184l78 78q79 -74 145.5 -101.5t173.5 -27.5q21 0 21 -20v-90q0 -23 -21 -23q-120 0 -207.5 39.5t-189.5 144.5zM612 1294l129 129l131 -129l-129 -129z" />
    <glyph glyph-name="uniFECA" unicode="&#x639;" horiz-adv-x="1230" arabic-form="final" 
d="M659 1061q183 0 303.5 -103.5t120.5 -259.5q0 -103 -80.5 -199.5t-207.5 -174.5l-68 -41q104 -66 223 -105q139 -45 281 -45q20 0 20 -20v-90q0 -23 -20 -23q-136 0 -269.5 44.5t-246.5 117.5q-4 3 -38 27t-50 38q-98 -54 -164 -98q-108 -74 -159.5 -149.5t-51.5 -161.5
q0 -118 120 -183t347 -65q198 0 455 76v-113q-160 -55 -256.5 -75.5t-208.5 -20.5q-283 0 -431.5 101.5t-148.5 281.5q0 263 373 469q-89 160 -183 284q-90 123 -174 215l-63 -32v112q127 84 285 138.5t292 54.5zM848 508q110 94 110 184q0 101 -95.5 169.5t-237.5 68.5
q-114 0 -250 -45q-54 -18 -127 -49q89 -96 176 -218q100 -137 176 -276q156 86 248 166z" />
    <glyph glyph-name="uniFECB" unicode="&#x639;" horiz-adv-x="1112" arabic-form="initial" 
d="M1051 219l-27 -131q-239 -43 -473 -65.5t-551 -22.5q-20 0 -20 23v90q0 20 20 20q129 0 305 4h53q-40 24 -75 51q-183 140 -183 355q0 180 129 305t320 125q72 0 148.5 -19t195.5 -67v-113q-216 68 -318 68q-161 0 -255.5 -86t-94.5 -234q0 -48 16.5 -97.5t54 -97.5
t90.5 -84.5t133 -58t175 -18.5l-8 -2q76 9 107 14q69 9 258 41z" />
    <glyph glyph-name="uniFECC" unicode="&#x639;" horiz-adv-x="1208" arabic-form="medial" 
d="M637 973q183 0 303.5 -103.5t120.5 -259.5q0 -87 -45.5 -187t-128.5 -183q-38 -41 -80 -70q94 -18 156 -25q111 -12 245 -12q21 0 21 -20v-90q0 -23 -21 -23q-192 0 -338 35q-98 23 -190 59l-100 -31q-241 -63 -580 -63q-20 3 -20 23v90q0 20 20 20q148 0 283 6
q112 6 219 25l-88 153q-97 160 -203 283q-7 8 -39 45t-49 55l-64 -32v112q127 84 285.5 138.5t292.5 54.5zM711 223q96 72 161.5 175t65.5 182q0 119 -91.5 190.5t-244.5 71.5q-114 0 -250 -45q-69 -24 -125 -47q96 -107 193 -244q97 -138 198 -336q55 25 93 53z" />
    <glyph glyph-name="uniFECE" unicode="&#x63a;" horiz-adv-x="1230" arabic-form="final" 
d="M659 1061q183 0 303.5 -103.5t120.5 -259.5q0 -103 -80.5 -199.5t-207.5 -174.5l-68 -41q104 -66 223 -105q139 -45 281 -45q20 0 20 -20v-90q0 -23 -20 -23q-136 0 -269.5 44.5t-246.5 117.5q-4 3 -38 27t-50 38q-98 -54 -164 -98q-108 -74 -159.5 -149.5t-51.5 -161.5
q0 -118 120 -183t347 -65q198 0 455 76v-113q-160 -55 -256.5 -75.5t-208.5 -20.5q-283 0 -431.5 101.5t-148.5 281.5q0 263 373 469q-89 160 -183 284q-90 123 -174 215l-63 -32v112q127 84 285 138.5t292 54.5zM848 508q110 94 110 184q0 101 -95.5 169.5t-237.5 68.5
q-114 0 -250 -45q-54 -18 -127 -49q89 -96 176 -218q100 -137 176 -276q156 86 248 166zM496 1389l129 129l131 -129l-129 -129z" />
    <glyph glyph-name="uniFECF" unicode="&#x63a;" horiz-adv-x="1112" arabic-form="initial" 
d="M1051 219l-27 -131q-239 -43 -473 -65.5t-551 -22.5q-20 0 -20 23v90q0 20 20 20q129 0 305 4h53q-40 24 -75 51q-183 140 -183 355q0 180 129 305t320 125q72 0 148.5 -19t195.5 -67v-113q-216 68 -318 68q-161 0 -255.5 -86t-94.5 -234q0 -48 16.5 -97.5t54 -97.5
t90.5 -84.5t133 -58t175 -18.5l-8 -2q76 9 107 14q69 9 258 41zM399 1298l129 129l131 -129l-129 -129z" />
    <glyph glyph-name="uniFED0" unicode="&#x63a;" horiz-adv-x="1208" arabic-form="medial" 
d="M637 973q183 0 303.5 -103.5t120.5 -259.5q0 -87 -45.5 -187t-128.5 -183q-38 -41 -80 -70q94 -18 156 -25q111 -12 245 -12q21 0 21 -20v-90q0 -23 -21 -23q-192 0 -338 35q-98 23 -190 59l-100 -31q-241 -63 -580 -63q-20 3 -20 23v90q0 20 20 20q148 0 283 6
q112 6 219 25l-88 153q-97 160 -203 283q-7 8 -39 45t-49 55l-64 -32v112q127 84 285.5 138.5t292.5 54.5zM711 223q96 72 161.5 175t65.5 182q0 119 -91.5 190.5t-244.5 71.5q-114 0 -250 -45q-69 -24 -125 -47q96 -107 193 -244q97 -138 198 -336q55 25 93 53zM477 1298
l129 129l131 -129l-129 -129z" />
    <glyph glyph-name="uniFED2" unicode="&#x641;" horiz-adv-x="1994" arabic-form="final" 
d="M1423 973q188 0 312.5 -126t124.5 -312q0 -142 -91 -259q-60 -79 -157 -133l125 -8q47 -2 137 -2h121q20 0 20 -20v-90q0 -23 -20 -23q-154 0 -332 16q-126 15 -248 50q-126 -38 -237 -50q-166 -16 -318 -16q-20 0 -20 23v90q0 20 20 20q62 0 230 4q82 4 127 8
q-84 50 -138 119q-88 113 -88 266q0 194 125.5 318.5t306.5 124.5zM1651 309q86 95 86 221q0 135 -92 222.5t-228 87.5q-131 0 -217 -86t-86 -232q0 -116 78 -217q77 -95 211 -139q163 49 248 143zM152 795h112q-37 -201 -37 -328q0 -175 96 -254.5t300 -79.5h249
q21 0 21 -20v-90q0 -23 -21 -23h-276q-233 0 -362.5 110.5t-129.5 323.5q0 143 48 361zM1290 1294l129 129l131 -129l-129 -129z" />
    <glyph glyph-name="uniFED3" unicode="&#x641;" horiz-adv-x="1062" arabic-form="initial" 
d="M530 973q183 0 307 -132.5t124 -324.5q0 -248 -145 -382t-413 -134h-403q-20 3 -20 23v90q0 20 20 20h248l-8 19q-12 26 -54 100q-53 89 -75.5 160.5t-22.5 144.5q0 83 35 159.5t94 133t141 90t172 33.5zM367 133h65q184 0 294 92.5t110 266.5q0 157 -89 251.5t-237 94.5
q-124 0 -211.5 -85.5t-87.5 -205.5q0 -104 80 -252q31 -54 49 -98zM412 1294l129 129l131 -129l-129 -129z" />
    <glyph glyph-name="uniFED4" unicode="&#x641;" horiz-adv-x="1134" arabic-form="medial" 
d="M563 973q188 0 312 -126t124 -312q0 -143 -90 -259q-60 -79 -157 -133l125 -8q47 -2 137 -2h121q20 0 20 -20v-90q0 -23 -20 -23q-154 0 -332 16q-126 15 -248 50q-125 -38 -238 -50q-166 -16 -317 -16q-20 0 -20 23v90q0 20 20 20q61 0 229 4q82 4 127 8
q-82 49 -137 119q-88 113 -88 266q0 194 125.5 318.5t306.5 124.5zM791 309q86 95 86 221q0 135 -92 222.5t-228 87.5q-131 0 -217 -86t-86 -232q0 -116 78 -217q77 -95 211 -139q163 49 248 143zM432 1294l129 129l131 -129l-129 -129z" />
    <glyph glyph-name="uniFED6" unicode="&#x642;" horiz-adv-x="1538" arabic-form="final" 
d="M1012 952q163 0 262.5 -112t111.5 -303q1 -28 9 -165.5t10 -205.5q2 -12 2 -33h131q21 0 21 -20v-90q0 -23 -21 -23h-133q-21 -185 -174 -305q-175 -135 -518 -135q-98 0 -186 19t-166.5 60.5t-135.5 103.5t-90 153.5t-33 203.5q0 209 93 484h112q-92 -234 -92 -453
q0 -212 144 -325t421 -113q172 0 296 60t181 165q23 45 31 82h-184q-250 0 -385 119t-135 346q0 213 116.5 350t311.5 137zM1290 156q-2 60 -11 189t-11 171q-11 141 -83.5 222t-189.5 81q-133 0 -210.5 -98.5t-77.5 -247.5q0 -164 102 -252t289 -88h194q0 15 -2 23z
M1018 1282l131 129l129 -129l-129 -129zM717 1282l129 129l131 -129l-131 -129z" />
    <glyph glyph-name="uniFED7" unicode="&#x642;" horiz-adv-x="1062" arabic-form="initial" 
d="M530 973q183 0 307 -132.5t124 -324.5q0 -248 -145 -382t-413 -134h-403q-20 3 -20 23v90q0 20 20 20h248l-8 19q-12 26 -54 100q-53 89 -75.5 160.5t-22.5 144.5q0 83 35 159.5t94 133t141 90t172 33.5zM367 133h65q184 0 294 92.5t110 266.5q0 157 -89 251.5t-237 94.5
q-124 0 -211.5 -85.5t-87.5 -205.5q0 -104 80 -252q31 -54 49 -98zM563 1282l131 129l129 -129l-129 -129zM262 1282l129 129l131 -129l-131 -129z" />
    <glyph glyph-name="uniFED8" unicode="&#x642;" horiz-adv-x="1134" arabic-form="medial" 
d="M563 973q188 0 312 -126t124 -312q0 -143 -90 -259q-60 -79 -157 -133l125 -8q47 -2 137 -2h121q20 0 20 -20v-90q0 -23 -20 -23q-154 0 -332 16q-126 15 -248 50q-125 -38 -238 -50q-166 -16 -317 -16q-20 0 -20 23v90q0 20 20 20q61 0 229 4q82 4 127 8
q-82 49 -137 119q-88 113 -88 266q0 194 125.5 318.5t306.5 124.5zM791 309q86 95 86 221q0 135 -92 222.5t-228 87.5q-131 0 -217 -86t-86 -232q0 -116 78 -217q77 -95 211 -139q163 49 248 143zM596 1282l131 129l129 -129l-129 -129zM295 1282l129 129l131 -129
l-131 -129z" />
    <glyph glyph-name="uniFEDA" unicode="&#x643;" horiz-adv-x="1783" arabic-form="final" 
d="M150 795h112q-37 -201 -37 -328q0 -175 96 -254.5t300 -79.5h243h6q196 0 338 29q126 28 199 71q-21 70 -21 158v1094h123v-1100q0 -128 66.5 -190t208.5 -62q20 0 20 -20v-90q0 -23 -20 -23q-208 0 -303 102q-25 30 -35 45q-112 -75 -242 -110q-139 -37 -334 -37h-276
q-233 0 -362.5 110.5t-129.5 323.5q0 143 48 361zM897 872h197l-35 -112h-240q-106 0 -217 -35v106q93 30 105 33l26 6q-43 46 -43 107q0 78 54.5 130t136.5 52q77 0 147 -37v-102q-80 27 -133 27q-44 0 -73 -23t-29 -63q0 -44 32 -66q28 -20 72 -23z" />
    <glyph glyph-name="uniFEDB" unicode="&#x643;" horiz-adv-x="1196" arabic-form="initial" 
d="M895 1628h195v-8l-807 -598l387 -170q226 -100 335 -210t109 -247q0 -173 -145 -284t-387 -111h-582q-20 0 -20 23v90q0 20 20 20h596q168 0 281.5 73t113.5 187q0 92 -86.5 169.5t-290.5 168.5l-481 213v123z" />
    <glyph glyph-name="uniFEDC" unicode="&#x643;" horiz-adv-x="1335" arabic-form="medial" 
d="M895 1628h195v-8l-807 -598l387 -170q226 -100 335 -210t109 -247q0 -173 -145 -284t-387 -111h-582q-20 0 -20 23v90q0 20 20 20h596q168 0 281.5 73t113.5 187q0 92 -86.5 169.5t-290.5 168.5l-481 213v123zM938 184l78 78q79 -74 145.5 -101.5t173.5 -27.5
q21 0 21 -20v-90q0 -23 -21 -23q-120 0 -207.5 39.5t-189.5 144.5z" />
    <glyph glyph-name="uniFEDE" unicode="&#x644;" horiz-adv-x="1396" arabic-form="final" 
d="M1026 1485h123v-1180q3 -76 68 -123q67 -49 180 -49q20 0 20 -20v-90q0 -23 -20 -23q-150 0 -234 72l-20 22q-8 -67 -25 -139q-45 -188 -172 -291.5t-344 -103.5q-241 0 -370.5 141t-129.5 399q0 209 93 484h112q-92 -234 -92 -453q0 -438 403 -438q214 0 311 125t97 395
v1272z" />
    <glyph glyph-name="uniFEDF" unicode="&#x644;" horiz-adv-x="581" arabic-form="initial" 
d="M274 1485h123v-1094q0 -391 -397 -391q-20 0 -20 23v90q0 20 20 20q142 0 208 62t66 190v1100z" />
    <glyph glyph-name="uniFEE0" unicode="&#x644;" horiz-adv-x="649" arabic-form="medial" 
d="M252 1485h123v-1100q0 -128 66 -190t208 -62q21 0 21 -20v-90q0 -23 -21 -23q-209 0 -303 102q-16 16 -31 37l-39 -37q-56 -51 -118.5 -76.5t-157.5 -25.5q-20 0 -20 23v90q0 20 20 20q85 0 158 31q65 27 112 74q-18 68 -18 153v1094z" />
    <glyph glyph-name="uniFEE2" unicode="&#x645;" horiz-adv-x="1386" arabic-form="final" 
d="M764 944q121 0 194.5 -71t124.5 -234l72 -229q51 -162 101 -219.5t130 -57.5q21 0 21 -20v-90q0 -23 -21 -23q-126 0 -202 88l-15 16l-28 -104q-504 0 -699 131q-66 44 -92 98q-68 -15 -102 -57q-43 -52 -43 -180q0 -94 15.5 -209.5t55.5 -345.5h-122q-41 228 -56.5 354
t-15.5 232q0 166 80 249q66 72 176 90q10 75 29 140q31 114 86 211.5t138 164t173 66.5zM1049 354l-72 219q-42 128 -90.5 183t-126.5 55q-95 0 -186.5 -134.5t-137.5 -393.5q126 -71 301 -111q162 -36 412 -39q-51 76 -100 221z" />
    <glyph glyph-name="uniFEE3" unicode="&#x645;" horiz-adv-x="1122" arabic-form="initial" 
d="M631 922q68 0 124 -25.5t97 -77t72 -117.5t53 -157.5t37 -186.5t26 -215l-106 -170q-304 0 -610 88q-73 22 -146 56q-9 -18 -14 -23q-32 -50 -70.5 -72t-93.5 -22q-20 3 -20 23v90q0 20 20 20q24 0 45.5 13.5t36.5 32.5t33.5 56t30.5 67.5t33.5 85t37.5 91.5
q100 246 193.5 344.5t220.5 98.5zM377 186q189 -57 377 -71q92 -9 178 -9q-20 329 -101 508q-76 174 -206 174q-58 0 -102.5 -29t-96.5 -111t-113 -232q-64 -155 -75 -178q96 -40 139 -52z" />
    <glyph glyph-name="uniFEE4" unicode="&#x645;" horiz-adv-x="1191" arabic-form="medial" 
d="M569 944q121 0 195 -71.5t125 -233.5l72 -229q51 -162 101 -219.5t130 -57.5q20 0 20 -20v-90q0 -23 -20 -23q-127 0 -203 88l-14 16l-29 -104q-248 0 -422 33q-148 28 -237 73q-43 -33 -105 -65q-80 -41 -182 -41q-20 0 -20 23v90q0 20 20 20q86 0 156 25q36 16 37 16
q-52 58 -52 129q0 72 19.5 158t58 171t89 155t119 113.5t142.5 43.5zM854 354l-72 219q-42 128 -90.5 183t-126.5 55q-95 0 -186 -134.5t-137 -393.5q126 -71 301 -111q162 -36 411 -39q-51 76 -100 221z" />
    <glyph glyph-name="uniFEE6" unicode="&#x646;" horiz-adv-x="1366" arabic-form="final" 
d="M950 901h123q68 -451 68 -698q0 -30 -4 -88q-43 70 -43 184v182h28l15 -123q7 -63 26 -108t40.5 -67t55 -34t54.5 -14t53 -2q20 0 20 -20v-90q0 -23 -20 -23q-118 0 -195 74q-12 10 -34 41q-6 -92 -27 -168q-44 -184 -173 -285.5t-345 -101.5q-234 0 -362 141.5
t-128 398.5q0 209 93 484h112q-92 -234 -92 -453q0 -438 393 -438q218 0 318 121.5t100 388.5q0 118 -17 266.5t-59 431.5zM510 963l129 129l131 -129l-129 -129z" />
    <glyph glyph-name="uniFEE7" unicode="&#x646;" horiz-adv-x="520" arabic-form="initial" 
d="M213 993h123q61 -418 61 -602q0 -391 -397 -391q-20 0 -20 23v90q0 20 20 20q285 0 285 252q0 83 -15 207.5t-57 400.5zM125 1294l129 129l131 -129l-129 -129z" />
    <glyph glyph-name="uniFEE8" unicode="&#x646;" horiz-adv-x="614" arabic-form="medial" 
d="M287 758h112q0 -236 -20 -367q-11 -92 -41 -170l31 -20q54 -38 108 -53t137 -15q21 0 21 -20v-90q0 -23 -21 -23q-92 0 -160.5 20.5t-138.5 73.5l-32 25q-39 -45 -95 -74q-80 -45 -188 -45q-20 0 -20 23v90q0 20 20 20q78 0 137 30.5t90 86.5q34 63 47 172t13 336z
M205 1079l129 129l131 -129l-129 -129z" />
    <glyph glyph-name="uniFEE9" unicode="&#x647;" horiz-adv-x="1656" arabic-form="isolated" 
d="M625 1219l2 133q180 0 331.5 -38t260.5 -105t185 -158.5t113 -200t37 -227.5q0 -217 -122 -533l-127 -117q-145 0 -320 31q-128 22 -274 66l-52 -17q-151 -53 -342 -53q-124 0 -276 47v123q139 -37 266 -37q70 0 127 8l49 9q-73 44 -127 114q-88 113 -88 266
q0 195 121 319t301 124q188 0 307 -125.5t119 -312.5q0 -146 -88 -259q-56 -74 -151 -131q135 -21 206 -28q132 -15 228 -15q50 102 85.5 246t35.5 256q0 56 -12 113.5t-40 118.5t-70 116t-107 104.5t-146 85t-192 56.5t-240 21zM907 309q86 95 86 221q0 137 -86.5 223.5
t-222.5 86.5q-129 0 -211 -86t-82 -232q0 -119 76 -217q77 -96 203 -139q156 51 237 143z" />
    <glyph glyph-name="uniFEEA" unicode="&#x647;" horiz-adv-x="1099" arabic-form="final" 
d="M772 1102h123v-758q0 -108 47.5 -159.5t157.5 -51.5q20 0 20 -20v-90q0 -23 -20 -23q-171 0 -250 88l-8 10q-92 -47 -166 -71q-86 -27 -172 -27q-178 0 -290 106t-112 277q0 66 19.5 130.5t60 129t112.5 124t169 103.5q128 59 309 80v152zM575 791q-162 -57 -256 -161.5
t-94 -236.5q0 -117 77 -188.5t206 -71.5q146 0 283 64q-19 68 -19 149v490q-114 -13 -197 -45z" />
    <glyph glyph-name="uniFEEB" unicode="&#x647;" horiz-adv-x="1519" arabic-form="initial" 
d="M487 1219l2 133q180 0 332 -38t260.5 -105t185 -158.5t113.5 -200t37 -227.5q0 -215 -123 -533l-127 -117q-144 0 -319 31q-138 23 -279 68l-96 -29q-193 -43 -473 -43q-20 0 -20 23v90q0 20 20 20q65 0 217 4q89 4 131 10q-76 49 -129 117q-88 113 -88 266
q0 195 121 319t301 124q188 0 307 -125.5t119 -312.5q0 -146 -88 -259q-55 -72 -152 -131q133 -21 207 -28q132 -15 228 -15q50 101 85 245.5t35 256.5q0 56 -12 113.5t-40 118.5t-70 116t-107 104.5t-146 85t-192 56.5t-240 21zM770 309q86 95 86 221q0 137 -86.5 223.5
t-222.5 86.5q-129 0 -211 -86t-82 -232q0 -119 76 -217q78 -96 202 -139q158 51 238 143z" />
    <glyph glyph-name="uniFEEC" unicode="&#x647;" horiz-adv-x="1132" arabic-form="medial" 
d="M578 1126h96q134 -116 220.5 -269.5t86.5 -297.5q0 -135 -72 -242q-48 -72 -123 -127q129 -57 347 -57q20 0 20 -22v-91q0 -20 -20 -20q-73 0 -138 12q-24 5 -77 21q33 -45 51 -84q30 -70 30 -137q0 -115 -89.5 -183.5t-237.5 -68.5q-164 0 -293.5 103t-190.5 276l-20 65
q-110 -4 -168 -4q-20 0 -20 23v90q0 20 20 20q56 0 150 4v53q0 94 19.5 198.5t64.5 229t133.5 258t210.5 250.5zM639 248q219 115 219 305q0 197 -166 385q-34 44 -69 78q-101 -95 -162 -191q-102 -158 -149.5 -322t-47.5 -290q0 -46 2 -66q227 24 373 101zM401 35l-114 -19
q5 -20 16 -51q37 -97 101.5 -160t135 -87.5t152.5 -24.5q88 0 141.5 37t53.5 98q0 76 -51 147q-56 78 -146 156q-114 -60 -289 -96z" />
    <glyph glyph-name="uniFEEE" unicode="&#x648;" horiz-adv-x="1056" arabic-form="final" 
d="M530 952q163 0 263 -112t112 -303q1 -24 9 -165t10 -212l2 -27h131q20 0 20 -20v-90q0 -23 -20 -23h-131q-9 -89 -47 -160q-68 -138 -233.5 -209t-409.5 -71v123q281 0 430 96q120 79 141 221h-184q-250 0 -385.5 119t-135.5 346q0 213 116.5 350t311.5 137zM809 156
q-2 60 -11.5 189t-11.5 171q-11 141 -83 222t-189 81q-133 0 -211 -98.5t-78 -247.5q0 -164 102 -252t289 -88h195q0 15 -2 23z" />
    <glyph glyph-name="uniFEF0" unicode="&#x649;" horiz-adv-x="1396" arabic-form="final" 
d="M1006 70v123q139 -36 219.5 -48t171.5 -12q20 0 20 -20v-90q0 -23 -20 -23h-31q-102 -209 -252 -317q-169 -123 -420 -123q-592 0 -592 540q0 209 93 484h112q-92 -234 -92 -453q0 -224 120.5 -331t381.5 -107q296 0 463 213q38 44 67 106l-24 4q-93 16 -217 54z" />
    <glyph glyph-name="uniFEF2" unicode="&#x64a;" horiz-adv-x="1396" arabic-form="final" 
d="M1006 70v123q139 -36 219.5 -48t171.5 -12q20 0 20 -20v-90q0 -23 -20 -23h-31q-102 -209 -252 -317q-169 -123 -420 -123q-592 0 -592 540q0 209 93 484h112q-92 -234 -92 -453q0 -224 120.5 -331t381.5 -107q296 0 463 213q38 44 67 106l-24 4q-93 16 -217 54z
M836 -713l131 129l129 -129l-129 -129zM535 -713l129 129l131 -129l-131 -129z" />
    <glyph glyph-name="uniFEF3" unicode="&#x64a;" horiz-adv-x="667" arabic-form="initial" 
d="M367 993h122q62 -425 62 -602q0 -391 -397 -391h-154q-20 0 -20 23v90q0 20 20 20h154q284 0 284 252q0 84 -15 210.5t-56 397.5zM276 -313l132 129l129 -129l-129 -129zM-25 -313l129 129l132 -129l-132 -129z" />
    <glyph glyph-name="uniFEF4" unicode="&#x64a;" horiz-adv-x="757" arabic-form="medial" 
d="M342 758h113q0 -345 -41 -486q79 -67 151 -102q81 -37 193 -37q20 0 20 -20v-90q0 -23 -20 -23q-115 0 -221 47q-89 39 -170 117q-49 -74 -138 -117q-100 -47 -229 -47q-20 0 -20 23v90q0 20 20 20q116 0 182 28t101 91q36 61 47.5 161t11.5 345zM373 -311l131 129
l129 -129l-129 -129zM72 -311l129 129l131 -129l-131 -129z" />
    <glyph glyph-name=".notdef" horiz-adv-x="1024" 
d="M0 0v1485h1024v-1485h-1024zM489 741l-450 684v-1366zM532 741l453 -682v1366zM512 709l-444 -670h886zM68 1446l444 -672l442 672h-886z" />
    <glyph glyph-name=".null" 
 />
    <glyph glyph-name="nonmarkingreturn" horiz-adv-x="682" 
 />
    <glyph glyph-name="space" unicode=" " horiz-adv-x="485" 
 />
    <glyph glyph-name="exclam" unicode="!" horiz-adv-x="444" 
d="M152 1044v441h141v-441l-31 -626h-80zM311 0h-178v193h178v-193z" />
    <glyph glyph-name="quotedbl" unicode="&#x22;" horiz-adv-x="647" 
d="M414 1485h147l-41 -492h-65zM86 1485h147l-40 -492h-66z" />
    <glyph glyph-name="numbersign" unicode="#" horiz-adv-x="1277" 
d="M94 1055h279l61 430h127l-61 -430h356l62 430h129l-62 -430h281l-17 -121h-280l-49 -352h280l-18 -121h-279l-63 -461h-129l63 461h-356l-64 -461h-129l64 461h-279l19 121h278l49 352h-280zM483 934l-49 -352h357l49 352h-357z" />
    <glyph glyph-name="dollar" unicode="$" horiz-adv-x="1183" 
d="M530 1692h107v-185q196 -17 318 -140t126 -316h-137q-4 159 -89.5 245t-217.5 99v-576l20 -6q51 -15 87.5 -27.5t87.5 -34t87 -43.5t75 -55t63 -69.5t39.5 -85.5t15.5 -105q0 -99 -39 -178.5t-106 -129.5t-151 -78t-179 -32v-184h-107v186q-198 18 -325 136t-144 331h138
q6 -154 91.5 -246.5t239.5 -109.5v629l-69 20q-57 16 -106.5 37.5t-99.5 55.5t-85.5 76.5t-57.5 102t-22 128.5q0 149 122.5 254.5t317.5 117.5v183zM983 373q0 54 -19 98.5t-47.5 74.5t-77.5 57.5t-92.5 44.5t-109.5 38v-598q163 11 254.5 84t91.5 201zM219 1143
q0 -110 70.5 -175.5t204.5 -103.5l36 -12v545q-139 -12 -225 -80t-86 -174z" />
    <glyph glyph-name="percent" unicode="%" horiz-adv-x="2066" 
d="M414 635q-163 0 -244.5 114t-81.5 318t81.5 318t244.5 114t244 -114t81 -318t-81 -318t-244 -114zM414 725q100 0 154.5 86t54.5 256t-54.5 256t-154.5 86t-155.5 -86t-55.5 -256t55.5 -256t155.5 -86zM592 0h-141l1024 1485h141zM1653 -14q-163 0 -244.5 114t-81.5 318
t81.5 318t244.5 114t244 -114t81 -318t-81 -318t-244 -114zM1653 76q100 0 154.5 86t54.5 256t-54.5 256t-154.5 86t-155.5 -86t-55.5 -256t55.5 -256t155.5 -86z" />
    <glyph glyph-name="ampersand" unicode="&#x26;" horiz-adv-x="1429" 
d="M551 -27q-224 0 -354.5 119t-130.5 311q0 162 98.5 271t294.5 176q-98 109 -142.5 191t-44.5 167q0 137 107 220t276 83q68 0 130 -18t115.5 -54t85.5 -99.5t32 -145.5q0 -131 -83 -226.5t-261 -162.5l375 -402q95 169 118 390h129q-36 -267 -168 -476l297 -317h-172
l-200 215q-212 -242 -502 -242zM549 86q256 0 426 211l-436 469q-338 -101 -338 -363q0 -142 97 -229.5t251 -87.5zM408 1212q0 -41 13 -80.5t44 -83t51.5 -68.5t65.5 -75l12 -14q156 55 225.5 124.5t69.5 176.5q0 96 -65.5 151.5t-170.5 55.5q-104 0 -174.5 -47.5
t-70.5 -139.5z" />
    <glyph glyph-name="quotesingle" unicode="'" horiz-adv-x="319" 
d="M86 1485h147l-40 -492h-66z" />
    <glyph glyph-name="parenleft" unicode="(" horiz-adv-x="456" 
d="M88 563q0 273 78.5 518.5t185.5 403.5h105q-244 -440 -244 -922q0 -497 244 -921h-105q-108 158 -186 403.5t-78 517.5z" />
    <glyph glyph-name="parenright" unicode=")" horiz-adv-x="456" 
d="M369 563q0 -271 -78.5 -513t-186.5 -408h-104q242 420 242 921q0 493 -242 922h104q49 -75 93 -168.5t84 -210.5t64 -258.5t24 -284.5z" />
    <glyph glyph-name="asterisk" unicode="*" horiz-adv-x="776" 
d="M440 1485v-242l248 80l33 -102l-246 -80l152 -207l-86 -64l-154 207l-149 -205l-88 62l149 205l-242 82l31 104l246 -82v242h106z" />
    <glyph glyph-name="plus" unicode="+" horiz-adv-x="1388" 
d="M760 0h-129v496h-496v120h496v474h129v-474h495v-120h-495v-496z" />
    <glyph glyph-name="comma" unicode="," horiz-adv-x="444" 
d="M133 0v193h178v-209l-102 -267h-94l88 283h-70z" />
    <glyph glyph-name="hyphen" unicode="-" horiz-adv-x="749" 
d="M662 489h-574v144h574v-144z" />
    <glyph glyph-name="period" unicode="." horiz-adv-x="444" 
d="M311 0h-178v193h178v-193z" />
    <glyph glyph-name="slash" unicode="/" horiz-adv-x="722" 
d="M129 0h-129l592 1485h131z" />
    <glyph glyph-name="zero" unicode="0" horiz-adv-x="1361" 
d="M682 -27q-193 0 -322 95t-189 264.5t-60 410.5q0 178 34.5 318t103.5 241.5t178.5 155t254.5 53.5q284 0 426.5 -203t142.5 -565q0 -179 -34.5 -320t-103.5 -242t-178 -154.5t-253 -53.5zM682 86q206 0 321 164.5t115 492.5q0 325 -115.5 490.5t-320.5 165.5
q-206 0 -321 -165t-115 -491q0 -329 114.5 -493t321.5 -164z" />
    <glyph glyph-name="one" unicode="1" horiz-adv-x="665" 
d="M467 0h-127v1202h-340v86q83 0 135 4.5t95 16.5t69 36.5t45.5 59.5t36.5 92h86v-1497z" />
    <glyph glyph-name="two" unicode="2" horiz-adv-x="1165" 
d="M594 1511q206 0 327 -102t121 -281q0 -220 -191 -453.5t-613 -551.5h849v-123h-1026v127q172 131 299 236.5t234 210.5t173.5 194t103 176.5t36.5 169.5q0 136 -89.5 210.5t-223.5 74.5q-74 0 -135 -19t-113 -60t-82.5 -116t-32.5 -178h-135q10 235 142 360t356 125z" />
    <glyph glyph-name="three" unicode="3" horiz-adv-x="1167" 
d="M555 86q173 0 281 86t108 238q0 319 -450 319h-13v113h13q206 0 308.5 72.5t102.5 209.5q0 120 -90.5 197.5t-249.5 77.5q-61 0 -118.5 -17.5t-110 -53t-89 -98.5t-48.5 -145h-136q25 195 159.5 310.5t352.5 115.5q214 0 339.5 -100.5t125.5 -273.5q0 -116 -62 -210.5
t-181 -135.5q282 -77 282 -379q0 -107 -42.5 -192.5t-115.5 -138.5t-166 -80.5t-198 -27.5q-218 0 -359.5 125.5t-162.5 319.5h135q31 -164 137.5 -248t247.5 -84z" />
    <glyph glyph-name="four" unicode="4" horiz-adv-x="1257" 
d="M821 1309l-647 -795h647v795zM1237 514v-125h-289v-389h-127v389h-798v115l800 981h125v-971h289z" />
    <glyph glyph-name="five" unicode="5" horiz-adv-x="1214" 
d="M608 86q163 0 273 106.5t110 292.5q0 100 -33.5 178.5t-90 124t-123.5 68.5t-140 23q-121 0 -218.5 -56t-131.5 -135l-125 12l96 785h840v-123h-729l-66 -508q54 62 155.5 100.5t209.5 38.5q139 0 249 -57t176 -173.5t66 -275.5q0 -123 -42.5 -222.5t-115.5 -162
t-165 -96t-195 -33.5q-216 0 -357.5 125.5t-162.5 319.5h135q31 -164 137.5 -248t247.5 -84z" />
    <glyph glyph-name="six" unicode="6" horiz-adv-x="1222" 
d="M242 471q0 -170 106.5 -277.5t272.5 -107.5q167 0 272.5 107.5t105.5 277.5q0 183 -103 292t-275 109t-275.5 -109t-103.5 -292zM645 1399q-199 0 -313.5 -168t-114.5 -483q52 107 163 172t255 65q220 0 360 -143t140 -365q0 -140 -62.5 -254t-180.5 -182t-271 -68
q-270 0 -401.5 183.5t-131.5 527.5q0 144 18.5 265.5t62 227t109 178.5t164.5 114.5t224 41.5q193 0 308 -101t136 -267h-135q-20 127 -107.5 191.5t-222.5 64.5z" />
    <glyph glyph-name="seven" unicode="7" horiz-adv-x="1036" 
d="M10 1362v123h1014v-123q-637 -469 -670 -1362h-141q14 245 68.5 457.5t142.5 379t198 295.5t246 230h-858z" />
    <glyph glyph-name="eight" unicode="8" horiz-adv-x="1239" 
d="M618 1511q223 0 355.5 -103t132.5 -267q0 -128 -60 -215.5t-163 -130.5q268 -111 268 -383q0 -204 -149 -321.5t-384 -117.5q-233 0 -381.5 117.5t-148.5 321.5q0 273 266 383q-102 43 -161.5 130.5t-59.5 215.5q0 164 131.5 267t353.5 103zM618 743q-180 0 -287.5 -90.5
t-107.5 -240.5q0 -149 107.5 -237.5t287.5 -88.5q183 0 290.5 88.5t107.5 237.5q0 150 -108.5 240.5t-289.5 90.5zM975 1120q0 132 -95.5 205.5t-261.5 73.5q-163 0 -258.5 -73.5t-95.5 -205.5q0 -130 96 -204t258 -74q165 0 261 74t96 204z" />
    <glyph glyph-name="nine" unicode="9" horiz-adv-x="1196" 
d="M954 1014q0 170 -106.5 277.5t-272.5 107.5q-167 0 -272.5 -107.5t-105.5 -277.5q0 -182 103.5 -292t274.5 -110q172 0 275.5 110t103.5 292zM551 86q200 0 314 167.5t114 483.5q-52 -107 -163 -172t-255 -65q-220 0 -360 143t-140 365q0 140 62.5 254t180.5 181.5
t271 67.5q270 0 401.5 -183t131.5 -525q0 -144 -18.5 -265.5t-62 -227.5t-109 -179.5t-164.5 -115.5t-224 -42q-192 0 -307.5 103t-136.5 266h137q18 -127 105.5 -191.5t222.5 -64.5z" />
    <glyph glyph-name="colon" unicode=":" horiz-adv-x="444" 
d="M311 909h-178v193h178v-193zM311 0h-178v193h178v-193z" />
    <glyph glyph-name="semicolon" unicode=";" horiz-adv-x="444" 
d="M311 909h-178v193h178v-193zM133 0v193h178v-209l-102 -267h-94l88 283h-70z" />
    <glyph glyph-name="less" unicode="&#x3c;" horiz-adv-x="1388" 
d="M160 616l1050 484v-139l-903 -406l903 -403v-140l-1050 484v120z" />
    <glyph glyph-name="equal" unicode="=" horiz-adv-x="1388" 
d="M1174 713h-959v121h959v-121zM1174 293h-959v121h959v-121z" />
    <glyph glyph-name="greater" unicode="&#x3e;" horiz-adv-x="1388" 
d="M1229 616v-120l-1051 -484v140l903 403l-903 406v139z" />
    <glyph glyph-name="question" unicode="?" horiz-adv-x="968" 
d="M487 1511q123 0 222.5 -37.5t163 -119.5t63.5 -197q0 -69 -23 -134t-62.5 -118t-84.5 -94.5t-98 -77.5q-47 -33 -69 -49.5t-51.5 -45t-42.5 -53t-22.5 -61.5t-9.5 -82v-92h-129v92q0 42 6.5 79t15.5 65t29 57t35.5 48t48 46t54 43t63.5 47q207 142 207 326
q0 118 -89.5 182t-236.5 64q-90 0 -158.5 -28.5t-109 -77.5t-60.5 -109.5t-20 -130.5h-133q0 114 38.5 203t106.5 144t156 83t190 28zM500 0h-178v193h178v-193z" />
    <glyph glyph-name="at" unicode="@" horiz-adv-x="1699" 
d="M1278 324q-96 0 -151 61t-60 162q-48 -101 -132 -156t-198 -55q-126 0 -208.5 88.5t-82.5 261.5q0 125 52 233.5t151 177t223 68.5q97 0 158.5 -53t81.5 -137l23 153h102l-68 -464q-8 -38 -4 -79t15.5 -75.5t40 -57t69.5 -22.5q98 0 164 107t66 292q0 180 -81 307
t-218 187.5t-318 60.5q-152 0 -280.5 -52t-217.5 -142.5t-138.5 -214.5t-49.5 -266q0 -183 73 -324t214.5 -222t331.5 -81q107 0 214 24.5t185 61.5l41 -105q-88 -40 -207 -65t-233 -25q-221 0 -389.5 95.5t-258.5 263.5t-90 383q0 161 61 304t167 246t256.5 162.5
t322.5 59.5q157 0 289.5 -42.5t230 -123t152.5 -205t55 -280.5q0 -120 -30 -218.5t-80.5 -161.5t-113 -97.5t-130.5 -34.5zM872 1057q-131 0 -217 -109t-86 -264q0 -121 53 -182.5t146 -61.5q87 0 156.5 54.5t106 141.5t36.5 187q0 115 -50.5 174.5t-144.5 59.5z" />
    <glyph glyph-name="A" unicode="A" horiz-adv-x="1284" 
d="M0 0l563 1485h156l565 -1485h-149l-142 373h-706l-140 -373h-147zM637 1315l-303 -815h610z" />
    <glyph glyph-name="B" unicode="B" horiz-adv-x="1335" 
d="M176 0v1485h506q85 0 155.5 -10t136.5 -35.5t111 -67t72 -108t27 -154.5q0 -116 -53 -202.5t-140 -125.5q254 -73 254 -354q0 -112 -39.5 -196t-110.5 -134t-162.5 -74t-203.5 -24h-553zM313 713v-588h424q181 0 272 76.5t91 224.5q0 151 -90.5 219t-284.5 68h-412z
M313 1360v-529h396q162 0 246.5 62t84.5 209q0 131 -85 194.5t-240 63.5h-402z" />
    <glyph glyph-name="C" unicode="C" horiz-adv-x="1431" 
d="M1227 477h143q-51 -231 -212 -367.5t-417 -136.5q-208 0 -358.5 99.5t-225.5 272t-75 398.5q0 170 44.5 311t128 242.5t210 158t283.5 56.5q246 0 405.5 -135.5t210.5 -367.5h-143q-44 180 -173.5 276t-304.5 96q-110 0 -204 -42.5t-163.5 -122t-109 -201t-39.5 -271.5
q0 -293 142.5 -466t373.5 -173q104 0 189.5 30.5t144 84t95.5 118.5t55 140z" />
    <glyph glyph-name="D" unicode="D" horiz-adv-x="1423" 
d="M1196 743q0 115 -19.5 207t-52.5 155.5t-83.5 110.5t-104.5 74t-125 43.5t-135 21.5t-144 5h-219v-1235h219q80 0 144 5t135 21.5t125 44t104.5 74t83.5 110.5t52.5 156t19.5 207zM176 1485h361q147 0 265.5 -22.5t221 -76t171 -137.5t107.5 -211.5t39 -294.5
q0 -168 -39 -296.5t-107.5 -212t-171 -137t-221 -75.5t-265.5 -22h-361v1485z" />
    <glyph glyph-name="E" unicode="E" horiz-adv-x="1200" 
d="M176 0v1485h952v-127h-815v-524h766v-129h-766v-578h815v-127h-952z" />
    <glyph glyph-name="F" unicode="F" horiz-adv-x="1083" 
d="M176 0v1485h907v-127h-770v-524h723v-129h-723v-705h-137z" />
    <glyph glyph-name="G" unicode="G" horiz-adv-x="1525" 
d="M758 1511q240 0 402.5 -122.5t211.5 -350.5h-143q-22 90 -70.5 157.5t-113.5 107t-138 58.5t-153 19q-111 0 -207 -42.5t-167 -121.5t-112 -201t-41 -272q0 -293 142.5 -466t373.5 -173q71 0 136 11.5t132.5 42.5t116.5 79.5t80 128.5t31 183v55h-416v127h547v-731h-121
l-2 209q-151 -236 -506 -236q-208 0 -358.5 99.5t-225.5 272t-75 398.5q0 169 46.5 311t132 243t213.5 157.5t284 56.5z" />
    <glyph glyph-name="H" unicode="H" horiz-adv-x="1501" 
d="M1188 1485h137v-1485h-137v705h-875v-705h-137v1485h137v-651h875v651z" />
    <glyph glyph-name="I" unicode="I" horiz-adv-x="489" 
d="M313 1485v-1485h-137v1485h137z" />
    <glyph glyph-name="J" unicode="J" horiz-adv-x="1052" 
d="M739 389v1096h138v-1098q0 -100 -34.5 -180.5t-93.5 -130.5t-135.5 -76.5t-162.5 -26.5q-195 0 -311.5 116.5t-116.5 334.5h127q2 -90 26 -156.5t65.5 -105.5t93.5 -57.5t116 -18.5q51 0 97.5 14t91.5 46t72 94.5t27 148.5z" />
    <glyph glyph-name="K" unicode="K" horiz-adv-x="1261" 
d="M313 1485v-762l750 762h176l-627 -637l650 -848h-168l-578 750l-203 -207v-543h-137v1485h137z" />
    <glyph glyph-name="L" unicode="L" horiz-adv-x="1099" 
d="M313 1485v-1358h787v-127h-924v1485h137z" />
    <glyph glyph-name="M" unicode="M" horiz-adv-x="1773" 
d="M956 0h-139l-504 1354v-1354h-137v1485h221l492 -1329l489 1329h219v-1485h-137v1354z" />
    <glyph glyph-name="N" unicode="N" horiz-adv-x="1501" 
d="M1325 0h-199l-813 1337v-1337h-137v1485h199l813 -1340v1340h137v-1485z" />
    <glyph glyph-name="O" unicode="O" horiz-adv-x="1523" 
d="M227 743q0 -150 41 -271.5t113 -201.5t169.5 -123t211.5 -43q234 0 384 170.5t150 468.5q0 150 -41 271.5t-112.5 201t-169 122t-211.5 42.5t-211.5 -42.5t-169.5 -122t-113 -201t-41 -271.5zM1442 743q0 -226 -81.5 -400t-236.5 -272t-362 -98t-362 98t-236.5 272
t-81.5 400t81.5 399.5t236.5 271t362 97.5t362 -97.5t236.5 -271t81.5 -399.5z" />
    <glyph glyph-name="P" unicode="P" horiz-adv-x="1263" 
d="M176 1485h445q112 0 199.5 -11.5t166.5 -41t130.5 -78t81.5 -126t30 -181.5q0 -76 -15.5 -137t-43 -105.5t-70 -78t-91.5 -55t-113 -34.5t-129.5 -18t-145.5 -5h-308v-614h-137v1485zM639 1360h-326v-619h326q83 0 141 5t120 23.5t99.5 50.5t61.5 89.5t24 137.5t-24 138
t-62 91.5t-99 52.5t-120 25t-141 6z" />
    <glyph glyph-name="Q" unicode="Q" horiz-adv-x="1523" 
d="M1442 743q0 -333 -172 -542l198 -199l-90 -88l-196 197q-177 -138 -420 -138q-207 0 -362 98t-236.5 272t-81.5 400t81.5 399.5t236.5 271t362 97.5t362 -97.5t236.5 -271t81.5 -399.5zM227 743q0 -150 41 -271.5t113 -201.5t169.5 -123t211.5 -43q185 0 319 107
l-133 135l90 88l131 -133q127 173 127 442q0 150 -41 271.5t-112.5 201t-169 122t-211.5 42.5t-211.5 -42.5t-169.5 -122t-113 -201t-41 -271.5z" />
    <glyph glyph-name="R" unicode="R" horiz-adv-x="1314" 
d="M1087 0l-350 659q-36 -4 -61 -4h-363v-655h-137v1485h436q95 0 168.5 -6.5t145.5 -22.5t123 -46t90.5 -74t59.5 -109.5t20 -149.5q0 -180 -87 -275t-251 -126l360 -676h-154zM631 1360h-318v-580h318q68 0 119 3.5t105 14t91 31t68 52t46 80t15 112.5q0 55 -12 98.5
t-32.5 73t-53.5 51t-67.5 34t-83.5 19.5t-92.5 9t-102.5 2z" />
    <glyph glyph-name="S" unicode="S" horiz-adv-x="1245" 
d="M94 1120q0 79 30.5 145t81.5 110.5t118.5 76t139.5 45.5t146 14q221 0 366.5 -103.5t186.5 -293.5h-143q-38 130 -146 198t-278 68q-61 0 -120 -13t-115 -40.5t-90.5 -79.5t-34.5 -121q0 -106 75 -168t211 -94l176 -39q54 -13 95 -24t96.5 -30.5t95.5 -40.5t82.5 -53.5
t69.5 -70t44 -88.5t17 -110q0 -104 -45 -188t-121.5 -137t-174.5 -81.5t-208 -28.5q-267 0 -424.5 131.5t-183.5 341.5h143q73 -342 459 -342q67 0 133.5 13.5t132 43.5t106 88t40.5 136q0 228 -385 311l-187 41q-389 86 -389 383z" />
    <glyph glyph-name="T" unicode="T" horiz-adv-x="1136" 
d="M500 0v1358h-500v127h1137v-127h-500v-1358h-137z" />
    <glyph glyph-name="U" unicode="U" horiz-adv-x="1449" 
d="M154 1485h137v-910q0 -244 100 -357.5t332 -113.5q234 0 335 123t101 373v885h137v-869q0 -332 -132.5 -487.5t-440.5 -155.5q-205 0 -328 61t-182 198t-59 368v885z" />
    <glyph glyph-name="V" unicode="V" horiz-adv-x="1247" 
d="M10 1485h152l467 -1315l458 1315h148l-533 -1485h-157z" />
    <glyph glyph-name="W" unicode="W" horiz-adv-x="1900" 
d="M1028 1485l334 -1305l371 1305h147l-444 -1485h-158l-328 1245l-325 -1245h-158l-447 1485h152l379 -1305l323 1305h154z" />
    <glyph glyph-name="X" unicode="X" horiz-adv-x="1310" 
d="M20 0l551 764l-512 721h170l428 -600l435 600h163l-516 -715l551 -770h-172l-465 649l-469 -649h-164z" />
    <glyph glyph-name="Y" unicode="Y" horiz-adv-x="1177" 
d="M-20 1485h153l447 -787l460 787h158l-555 -928v-557h-137v561z" />
    <glyph glyph-name="Z" unicode="Z" horiz-adv-x="1265" 
d="M1186 1485v-123l-942 -1235h962v-127h-1128v123l944 1235h-870v127h1034z" />
    <glyph glyph-name="bracketleft" unicode="[" horiz-adv-x="526" 
d="M154 1485h352v-121h-225v-1602h225v-120h-352v1843z" />
    <glyph glyph-name="backslash" unicode="\" horiz-adv-x="722" 
d="M129 1485l594 -1485h-131l-592 1485h129z" />
    <glyph glyph-name="bracketright" unicode="]" horiz-adv-x="526" 
d="M20 1485h353v-1843h-353v120h226v1602h-226v121z" />
    <glyph glyph-name="asciicircum" unicode="^" horiz-adv-x="849" 
d="M494 1485l399 -793h-145l-324 633l-324 -633h-145l401 793h138z" />
    <glyph glyph-name="underscore" unicode="_" horiz-adv-x="821" 
d="M801 -129h-778v129h778v-129z" />
    <glyph glyph-name="grave" unicode="`" horiz-adv-x="468" 
d="M311 1247l-266 238h195l184 -238h-113z" />
    <glyph glyph-name="a" unicode="a" horiz-adv-x="1083" 
d="M209 276q0 -87 70 -138.5t182 -51.5q64 0 119.5 13.5t106 44.5t86 78t56.5 119t21 163v53q-349 -38 -495 -98t-146 -183zM852 0l-6 168q-56 -91 -160.5 -143t-253.5 -52q-158 0 -261 83t-103 218q0 75 30.5 132.5t89 99.5t155.5 73.5t216 52.5t285 38v39q0 73 -17 128
t-45 88.5t-69 53.5t-83 27.5t-93 7.5q-138 0 -220 -68.5t-90 -179.5h-133q23 165 144.5 262.5t306.5 97.5q100 0 175.5 -22t133 -71.5t87.5 -135t30 -205.5q0 -85 -1 -194.5t-1 -145.5q0 -110 12 -352h-129z" />
    <glyph glyph-name="b" unicode="b" horiz-adv-x="1179" 
d="M1114 547q0 -266 -131.5 -420t-329.5 -154q-121 0 -216 53.5t-156 153.5v-180h-127v1485h127v-574q61 101 155.5 155t216.5 54q198 0 329.5 -153.5t131.5 -419.5zM272 547q0 -95 21 -173.5t56 -130.5t81.5 -87.5t96 -51.5t100.5 -16q157 0 253.5 122t96.5 337t-96.5 337
t-253.5 122q-51 0 -100.5 -16t-96 -51.5t-81.5 -87.5t-56 -130.5t-21 -173.5z" />
    <glyph glyph-name="c" unicode="c" horiz-adv-x="1087" 
d="M573 1120q181 0 304 -108t149 -264h-133q-30 122 -119 189t-213 67q-150 0 -254 -119.5t-104 -335.5q0 -114 29.5 -203.5t79.5 -144t114 -83t137 -28.5q134 0 222.5 74t115.5 184h135q-32 -170 -161 -272.5t-312 -102.5q-230 0 -362.5 158t-132.5 416q0 261 133.5 417
t371.5 156z" />
    <glyph glyph-name="d" unicode="d" horiz-adv-x="1179" 
d="M907 547q0 95 -21 173.5t-55.5 130.5t-81 87.5t-96 51.5t-100.5 16q-157 0 -253.5 -122t-96.5 -337t96.5 -337t253.5 -122q51 0 100.5 16t96 51.5t81 87.5t55.5 130.5t21 173.5zM66 547q0 134 36 243.5t98.5 181t146 110t179.5 38.5q122 0 217 -54t156 -155v574h127
v-1485h-127v180q-61 -99 -156 -153t-217 -54q-96 0 -179.5 38.5t-146 110t-98.5 181.5t-36 244z" />
    <glyph glyph-name="e" unicode="e" horiz-adv-x="1142" 
d="M588 -27q-239 0 -379.5 157.5t-140.5 416.5q0 130 39 238.5t108 181.5t164 113t205 40q152 0 267 -79.5t173.5 -217.5t50.5 -309h-876q4 -197 114.5 -310.5t282.5 -113.5q129 0 216.5 62.5t119.5 177.5h133q-41 -171 -167 -264t-310 -93zM582 1006q-157 0 -258 -97
t-121 -278h733q0 95 -41.5 179.5t-124 140t-188.5 55.5z" />
    <glyph glyph-name="f" unicode="f" horiz-adv-x="563" 
d="M184 1102v137q0 71 10.5 115t39 75t78 43.5t128.5 12.5h90v-117h-63q-57 0 -84 -3.5t-45.5 -20t-22.5 -43t-4 -80.5v-119h219v-111h-219v-991h-127v991h-151v111h151z" />
    <glyph glyph-name="g" unicode="g" horiz-adv-x="1173" 
d="M891 25v200q-57 -100 -153.5 -153.5t-219.5 -53.5q-196 0 -327.5 150t-131.5 401q0 250 131.5 400.5t327.5 150.5q123 0 219.5 -54.5t153.5 -154.5v191h129v-1063q0 -143 -63 -240t-166 -140.5t-238 -43.5q-173 0 -291 88t-135 236h133q11 -93 87.5 -153t209.5 -60
q159 0 246.5 74.5t87.5 224.5zM901 569q0 109 -31.5 195.5t-83.5 137.5t-113.5 77.5t-127.5 26.5q-156 0 -252 -118.5t-96 -318.5q0 -202 96 -320t252 -118q66 0 127.5 26.5t113.5 77.5t83.5 137.5t31.5 196.5z" />
    <glyph glyph-name="h" unicode="h" horiz-adv-x="1138" 
d="M281 1485v-570q108 205 366 205q371 0 371 -426v-694h-127v659q0 82 -12.5 142t-42.5 108t-85.5 72.5t-136.5 24.5q-144 0 -238.5 -110.5t-94.5 -283.5v-612h-127v1485h127z" />
    <glyph glyph-name="i" unicode="i" horiz-adv-x="434" 
d="M154 1102h127v-1102h-127v1102zM154 1485h127v-203h-127v203z" />
    <glyph glyph-name="j" unicode="j" horiz-adv-x="434" 
d="M154 -68v1170h127v-1172q0 -88 -8.5 -139t-34 -87t-70 -49t-119.5 -13h-67v116h24q43 0 68.5 5t42.5 14t24.5 32t10 49t2.5 74zM154 1485h127v-203h-127v203z" />
    <glyph glyph-name="k" unicode="k" horiz-adv-x="978" 
d="M154 1485h127v-934l503 551h156l-408 -443l445 -659h-148l-378 569l-170 -184v-385h-127v1485z" />
    <glyph glyph-name="l" unicode="l" horiz-adv-x="434" 
d="M281 1485v-1485h-127v1485h127z" />
    <glyph glyph-name="m" unicode="m" horiz-adv-x="1794" 
d="M281 612v-612h-127v1102h127v-187q108 205 346 205q130 0 208.5 -55t114.5 -164q66 109 154.5 164t218.5 55q181 0 265.5 -108.5t84.5 -317.5v-694h-127v659q0 84 -10.5 142.5t-37.5 107.5t-78.5 73t-129.5 24q-136 0 -224.5 -110t-88.5 -284v-612h-127v659
q0 84 -10.5 142.5t-37.5 107.5t-78.5 73t-129.5 24q-136 0 -224.5 -110t-88.5 -284z" />
    <glyph glyph-name="n" unicode="n" horiz-adv-x="1138" 
d="M281 1102v-187q108 205 366 205q371 0 371 -426v-694h-127v659q0 82 -12.5 142t-42.5 108t-85.5 72.5t-136.5 24.5q-144 0 -238.5 -110.5t-94.5 -283.5v-612h-127v1102h127z" />
    <glyph glyph-name="o" unicode="o" horiz-adv-x="1132" 
d="M203 547q0 -229 97.5 -343t264.5 -114q166 0 265.5 114.5t99.5 342.5t-99.5 342.5t-265.5 114.5q-167 0 -264.5 -114t-97.5 -343zM68 547q0 145 40.5 257.5t110.5 180t157.5 101.5t188.5 34q102 0 190 -34t158.5 -101.5t111 -180t40.5 -257.5t-40.5 -258t-111 -180.5
t-158.5 -101.5t-190 -34q-101 0 -188.5 34t-157.5 101.5t-110.5 180.5t-40.5 258z" />
    <glyph glyph-name="p" unicode="p" horiz-adv-x="1179" 
d="M272 547q0 -95 21 -173.5t56 -130.5t81.5 -87.5t96 -51.5t100.5 -16q157 0 253.5 122t96.5 337t-96.5 337t-253.5 122q-51 0 -100.5 -16t-96 -51.5t-81.5 -87.5t-56 -130.5t-21 -173.5zM1114 547q0 -266 -131.5 -420t-329.5 -154q-122 0 -216.5 54t-155.5 155v-540h-127
v1460h127v-189q61 100 156 153.5t216 53.5q198 0 329.5 -153.5t131.5 -419.5z" />
    <glyph glyph-name="q" unicode="q" horiz-adv-x="1179" 
d="M66 547q0 134 36 243.5t98.5 181t146 110t179.5 38.5q122 0 217 -54t156 -153v189h127v-1460h-127v540q-61 -101 -156 -155t-217 -54q-96 0 -179.5 38.5t-146 110t-98.5 181.5t-36 244zM907 547q0 95 -21 173.5t-55.5 130.5t-81 87.5t-96 51.5t-100.5 16
q-157 0 -253.5 -122t-96.5 -337t96.5 -337t253.5 -122q51 0 100.5 16t96 51.5t81 87.5t55.5 130.5t21 173.5z" />
    <glyph glyph-name="r" unicode="r" horiz-adv-x="638" 
d="M637 1108v-135q-10 2 -31 2h-26q-161 0 -231 -104.5t-70 -292.5v-578h-125v1102h120v-201q36 94 130 151.5t196 57.5h16q15 0 21 -2z" />
    <glyph glyph-name="s" unicode="s" horiz-adv-x="1067" 
d="M946 801h-133q-20 97 -102.5 153t-200.5 56q-48 0 -95.5 -10t-90 -30t-69 -57t-26.5 -84q0 -149 207 -188l156 -29q62 -11 109.5 -24t101.5 -37t89 -54.5t58 -79t23 -108.5q0 -158 -125 -247t-313 -89q-181 0 -307 92.5t-150 272.5h133q17 -124 109 -188t225 -64
q53 0 103.5 11.5t95.5 34.5t72.5 63.5t27.5 93.5q0 38 -14.5 68t-38 51t-60 37.5t-74 26.5t-86.5 20l-172 32q-84 18 -148.5 52t-107.5 97t-43 146q0 131 118.5 217t303.5 86q172 0 287.5 -92.5t136.5 -228.5z" />
    <glyph glyph-name="t" unicode="t" horiz-adv-x="616" 
d="M205 1102v248h129v-248h217v-111h-217v-704q0 -42 1 -62.5t5.5 -44t13.5 -33t26.5 -18.5t42 -11.5t62.5 -2.5h66v-115h-105q-103 0 -152 20.5t-69 74.5t-20 167v729h-182v111h182z" />
    <glyph glyph-name="u" unicode="u" horiz-adv-x="1114" 
d="M834 0v178q-47 -89 -135 -147t-220 -58q-358 0 -358 426v703h127v-668q0 -66 6.5 -116t24.5 -95t47 -73.5t76 -45t110 -16.5q134 0 228 111t94 282v621h127v-1102h-127z" />
    <glyph glyph-name="v" unicode="v" horiz-adv-x="954" 
d="M143 1102l342 -926l332 926h137l-409 -1102h-123l-422 1102h143z" />
    <glyph glyph-name="w" unicode="w" horiz-adv-x="1464" 
d="M395 201l273 901h127l282 -903l236 903h141l-319 -1102h-119l-289 926l-281 -926h-116l-320 1102h142z" />
    <glyph glyph-name="x" unicode="x" horiz-adv-x="980" 
d="M938 1102l-377 -531l408 -571h-150l-334 465l-327 -465h-148l404 567l-381 535h151l305 -428l306 428h143z" />
    <glyph glyph-name="y" unicode="y" horiz-adv-x="954" 
d="M172 -358h-72v110h74q48 0 72 3.5t51.5 19t47 47.5t42.5 90l35 88l-422 1102h143l342 -926l332 926h137l-452 -1213q-29 -83 -55 -129t-65 -74t-85 -36t-125 -8z" />
    <glyph glyph-name="z" unicode="z" horiz-adv-x="983" 
d="M66 0v111l677 880h-632v111h784v-111l-680 -880h690v-111h-839z" />
    <glyph glyph-name="braceleft" unicode="{" horiz-adv-x="501" 
d="M481 -358h-47q-79 0 -128 12.5t-78 45t-39.5 80t-10.5 124.5v375q0 42 -3 71.5t-12.5 59t-26 48t-45 31t-68.5 15.5v121q40 2 68.5 14.5t45 31.5t26 49t12.5 59.5t3 70.5v373q0 77 10.5 124.5t39.5 80t78 45t128 12.5h47v-117h-20q-54 0 -83 -5t-46 -23t-21 -43.5
t-4 -75.5v-375q0 -136 -39.5 -198.5t-124.5 -80.5v-6q85 -18 124.5 -80t39.5 -198v-377q0 -51 4 -76.5t21 -43.5t46 -23t83 -5h20v-116z" />
    <glyph glyph-name="bar" unicode="|" horiz-adv-x="479" 
d="M176 1485h127v-1669h-127v1669z" />
    <glyph glyph-name="braceright" unicode="}" horiz-adv-x="501" 
d="M20 -358v116h21q71 0 102 12t41.5 40.5t10.5 95.5v377q0 136 39 198t124 80v6q-85 18 -124 80.5t-39 198.5v375q0 94 -26.5 120.5t-127.5 26.5h-21v117h48q79 0 128 -12.5t77.5 -45t38.5 -79.5t10 -125v-373q0 -52 5.5 -87.5t21.5 -68t48 -50t82 -19.5v-121
q-95 -7 -126 -62t-31 -163v-375q0 -78 -10 -125t-38.5 -79.5t-77.5 -45t-128 -12.5h-48z" />
    <glyph glyph-name="asciitilde" unicode="~" horiz-adv-x="1388" 
d="M926 530q60 0 98.5 37.5t42.5 112.5h131q-10 -131 -83 -198.5t-189 -67.5q-55 0 -122 23.5t-119.5 51t-114.5 51t-107 23.5q-59 0 -97 -37t-44 -112h-129q7 131 80 198.5t190 67.5q66 0 137 -23.5t121 -51.5t107 -51.5t98 -23.5z" />
    <glyph glyph-name="uni00A0" unicode="&#xa0;" horiz-adv-x="485" 
 />
    <glyph glyph-name="exclamdown" unicode="&#xa1;" horiz-adv-x="444" 
d="M293 82v-440h-141v440l30 627h80zM311 909h-178v193h178v-193z" />
    <glyph glyph-name="cent" unicode="&#xa2;" horiz-adv-x="1056" 
d="M498 1282h110v-164q167 -12 279.5 -116.5t138.5 -253.5h-133q-29 110 -103.5 174.5t-181.5 76.5v-907q117 11 192.5 82t100.5 174h135q-32 -160 -147 -260.5t-281 -112.5v-184h-110v186q-202 25 -316 177.5t-114 392.5q0 237 114 389.5t316 177.5v168zM203 549
q0 -200 81.5 -316t213.5 -137v901q-132 -26 -213.5 -140t-81.5 -308z" />
    <glyph glyph-name="sterling" unicode="&#xa3;" horiz-adv-x="1226" 
d="M637 1399q-64 0 -121 -11t-112.5 -36.5t-88 -77t-32.5 -123.5q0 -42 10.5 -85.5t37.5 -101t40.5 -83t52.5 -95.5h414v-92h-369q43 -101 43 -176q0 -114 -59 -215.5t-144 -155.5l2 -2q85 27 150 27q63 0 188 -42t195 -42q121 0 241 49l48 -117q-133 -57 -269 -57
q-77 0 -223 42t-229 42q-167 0 -303 -72l-46 103q37 17 74 40t82 61.5t78.5 82.5t56.5 106t23 128q0 94 -49 198h-269v92h224q-6 10 -27 49t-28 53l-24 48t-24 54t-16.5 49.5t-13 56t-3.5 53.5q0 76 28.5 138t76.5 103t112.5 69t133.5 40t143 12q221 0 356 -128t140 -336
h-138q-2 92 -31 161t-79.5 110t-113.5 61t-138 20z" />
    <glyph glyph-name="currency" unicode="&#xa4;" horiz-adv-x="1302" 
d="M162 709q0 159 92 288l-139 144l92 90l139 -137q129 104 299 104q174 0 307 -108l144 141l92 -90l-146 -148q93 -131 93 -284q0 -152 -93 -283l146 -147l-92 -93l-146 144q-134 -105 -305 -105q-166 0 -297 101l-141 -140l-92 93l141 143q-94 127 -94 287zM289 709
q0 -157 101 -264t253 -107q162 0 265.5 106.5t103.5 264.5q0 162 -103.5 271.5t-265.5 109.5q-153 0 -253.5 -110t-100.5 -271z" />
    <glyph glyph-name="yen" unicode="&#xa5;" horiz-adv-x="1218" 
d="M999 205h-340v-205h-129v205h-313v121h313v120h-313v123h297l-510 916h143l453 -826l467 826h147l-534 -916h319v-123h-340v-120h340v-121z" />
    <glyph glyph-name="brokenbar" unicode="&#xa6;" horiz-adv-x="434" 
d="M154 1485h127v-625h-127v625zM154 440h127v-624h-127v624z" />
    <glyph glyph-name="section" unicode="&#xa7;" horiz-adv-x="1153" 
d="M571 -266q119 0 189.5 47t70.5 135q0 70 -48 129t-173 125l-274 147q-136 72 -203 152.5t-67 196.5q0 106 79 190.5t191 128.5q-80 56 -118 116.5t-38 143.5q0 85 55 147t138.5 90.5t181.5 28.5q176 0 288.5 -87t129.5 -246h-135q-38 221 -291 221q-108 0 -173 -39.5
t-65 -110.5q0 -64 43 -111.5t146 -103.5l293 -160q148 -77 221 -154t73 -190q0 -109 -67.5 -199t-190.5 -151q138 -104 138 -243q0 -149 -112.5 -232.5t-283.5 -83.5q-172 0 -285.5 91t-136.5 253h138q37 -231 286 -231zM717 772l-277 150q-245 -108 -245 -250
q0 -71 40 -124.5t146 -111.5l293 -157l59 -35q104 58 161.5 118t57.5 142q0 79 -54.5 139.5t-180.5 128.5z" />
    <glyph glyph-name="dieresis" unicode="&#xa8;" horiz-adv-x="628" 
d="M45 1282v203h127v-203h-127zM455 1485h129v-203h-129v203z" />
    <glyph glyph-name="copyright" unicode="&#xa9;" horiz-adv-x="1689" 
d="M76 741q0 168 60.5 312.5t164.5 244.5t245.5 156.5t299.5 56.5t299 -56.5t244.5 -156.5t164 -244.5t60.5 -312.5t-60.5 -313t-164.5 -244t-244.5 -155t-298.5 -56q-159 0 -300 56t-245 155t-164.5 244t-60.5 313zM201 741q0 -144 50.5 -267.5t137 -208.5t205 -133
t252.5 -48q182 0 328.5 82t230.5 232.5t84 342.5q0 146 -49 269.5t-134.5 209t-204.5 133.5t-255 48q-134 0 -252.5 -48t-205 -133.5t-137 -209.5t-50.5 -269zM840 434q82 0 149 40.5t90 121.5l119 -35q-35 -105 -126 -172t-232 -67q-180 0 -280.5 112.5t-100.5 313.5
q0 197 104.5 309t284.5 112q139 0 226 -69t118 -182l-117 -39q-19 83 -86 129.5t-149 46.5q-107 0 -180.5 -80t-73.5 -227t74 -230.5t180 -83.5z" />
    <glyph glyph-name="ordfeminine" unicode="&#xaa;" horiz-adv-x="700" 
d="M498 897v90q-64 -104 -222 -104q-90 0 -148 46.5t-58 129.5q0 54 27.5 92.5t85 63.5t128.5 39.5t176 25.5v27q0 135 -141 135q-139 0 -149 -121h-113q7 98 84 153.5t180 55.5q131 0 193 -60t61 -188v-20q0 -15 -1 -51.5t-1 -53.5v-22q-3 -154 10 -238h-112zM305 969
q83 0 137 48t54 161v14q-60 -6 -102.5 -12t-84 -16.5t-66.5 -23.5t-40 -33t-15 -46q0 -43 31.5 -67.5t85.5 -24.5z" />
    <glyph glyph-name="guillemotleft" unicode="&#xab;" horiz-adv-x="960" 
d="M774 117l-323 463l321 464h135l-307 -462l307 -465h-133zM356 117l-323 463l321 464h135l-307 -462l307 -465h-133z" />
    <glyph glyph-name="logicalnot" unicode="&#xac;" horiz-adv-x="1388" 
d="M1059 760h-940v121h1069v-680h-129v559z" />
    <glyph glyph-name="uni00AD" unicode="&#xad;" horiz-adv-x="749" 
d="M662 489h-574v144h574v-144z" />
    <glyph glyph-name="registered" unicode="&#xae;" horiz-adv-x="1689" 
d="M76 741q0 168 60.5 312.5t164.5 244.5t245.5 156.5t299.5 56.5t299 -56.5t244.5 -156.5t164 -244.5t60.5 -312.5t-60.5 -313t-164.5 -244t-244.5 -155t-298.5 -56q-159 0 -300 56t-245 155t-164.5 244t-60.5 313zM201 741q0 -144 50.5 -267.5t137 -208.5t205 -133
t252.5 -48q182 0 328.5 82t230.5 232.5t84 342.5q0 146 -49 269.5t-134.5 209t-204.5 133.5t-255 48q-134 0 -252.5 -48t-205 -133.5t-137 -209.5t-50.5 -269zM1081 358l-170 320q-6 -2 -22 -2h-213v-318h-119v816h246q77 0 132 -5.5t105 -21t80.5 -43t48 -72t17.5 -106.5
q0 -72 -39 -131t-115 -90l187 -347h-138zM1057 924q0 73 -53.5 101t-153.5 28h-174v-260h184q102 0 149.5 32t47.5 99z" />
    <glyph glyph-name="macron" unicode="&#xaf;" horiz-adv-x="659" 
d="M614 1331h-569v103h569v-103z" />
    <glyph glyph-name="degree" unicode="&#xb0;" horiz-adv-x="690" 
d="M45 1210q0 127 87.5 214t211.5 87q128 0 215.5 -87t87.5 -214q0 -126 -88 -213.5t-215 -87.5q-124 0 -211.5 87.5t-87.5 213.5zM178 1210q0 -81 45 -134.5t121 -53.5q78 0 125 54t47 134t-47 134.5t-125 54.5q-76 0 -121 -54t-45 -135z" />
    <glyph glyph-name="plusminus" unicode="&#xb1;" horiz-adv-x="1388" 
d="M631 721v369h129v-369h495v-121h-495v-379h-129v379h-496v121h496zM1255 0h-1120v121h1120v-121z" />
    <glyph glyph-name="twosuperior" unicode="&#xb2;" horiz-adv-x="727" 
d="M371 1747q120 0 193 -57.5t73 -161.5q0 -58 -25 -117t-61.5 -107t-99.5 -106.5t-115 -99.5t-133 -101h456v-100h-604v96q238 174 352.5 295.5t114.5 224.5q0 65 -40.5 104.5t-112.5 39.5q-48 0 -86.5 -16.5t-65 -59.5t-27.5 -108h-112q-2 123 78 198.5t215 75.5z" />
    <glyph glyph-name="threesuperior" unicode="&#xb3;" horiz-adv-x="720" 
d="M358 973q84 0 135.5 41.5t51.5 115.5q0 158 -240 158h-18v101h14q112 0 166.5 31.5t54.5 103.5q0 65 -45 99t-115 34q-82 0 -127 -44t-51 -116h-112q11 114 87 182t206 68q55 0 102 -11.5t86 -35.5t61.5 -66t22.5 -98q0 -135 -135 -195q157 -51 157 -208
q0 -121 -87 -185.5t-216 -64.5q-140 0 -214.5 74t-82.5 188h113q8 -80 53.5 -126t132.5 -46z" />
    <glyph glyph-name="acute" unicode="&#xb4;" horiz-adv-x="468" 
d="M424 1485l-266 -238h-113l184 238h195z" />
    <glyph glyph-name="mu" unicode="&#xb5;" horiz-adv-x="1142" 
d="M262 -358h-125q19 90 19 313v1147h127v-598q0 -201 77 -310.5t213 -109.5t212.5 109.5t76.5 310.5v598h127v-1102h-127v176q-82 -203 -289 -203q-208 0 -290 203v-203q0 -217 -21 -331z" />
    <glyph glyph-name="mu" unicode="&#x3bc;" horiz-adv-x="1142" 
d="M262 -358h-125q19 90 19 313v1147h127v-598q0 -201 77 -310.5t213 -109.5t212.5 109.5t76.5 310.5v598h127v-1102h-127v176q-82 -203 -289 -203q-208 0 -290 203v-203q0 -217 -21 -331z" />
    <glyph glyph-name="paragraph" unicode="&#xb6;" horiz-adv-x="1007" 
d="M0 1100q0 183 125.5 284t368.5 101h358v-1667h-127v1546h-236v-1546h-129v919q-71 9 -133 34.5t-114 68.5t-82.5 110t-30.5 150z" />
    <glyph glyph-name="periodcentered" unicode="&#xb7;" horiz-adv-x="442" 
d="M311 455h-178v192h178v-192z" />
    <glyph glyph-name="cedilla" unicode="&#xb8;" horiz-adv-x="448" 
d="M45 -371l29 82q56 -18 98 -18q50 0 83.5 15.5t33.5 49.5q0 30 -25 46t-63 16q-47 0 -78 -19l-43 31l108 174h86l-65 -104q20 4 27 4h24q62 0 102.5 -36.5t40.5 -100.5q0 -77 -60.5 -117.5t-147.5 -40.5q-86 0 -150 18z" />
    <glyph glyph-name="onesuperior" unicode="&#xb9;" horiz-adv-x="458" 
d="M334 897h-109v651h-194v74q96 5 145 26t84 85h74v-836z" />
    <glyph glyph-name="ordmasculine" unicode="&#xba;" horiz-adv-x="716" 
d="M537 1204q0 116 -50.5 173t-130.5 57t-130 -55t-50 -175q0 -116 50.5 -171.5t129.5 -55.5t130 58t51 169zM653 1204q0 -157 -87 -239t-210 -82q-57 0 -108.5 19.5t-94 57t-67.5 101t-25 143.5q0 158 87 241t208 83q123 0 210 -83t87 -241z" />
    <glyph glyph-name="guillemotright" unicode="&#xbb;" horiz-adv-x="960" 
d="M510 580l-324 -463h-133l307 465l-307 462h135zM928 580l-324 -463h-133l307 465l-307 462h135z" />
    <glyph glyph-name="onequarter" unicode="&#xbc;" horiz-adv-x="1634" 
d="M334 649h-109v651h-194v74q96 5 145 26t84 85h74v-836zM223 0h-141l1024 1485h141zM1321 686l-291 -379h291v379zM1583 307v-102h-153v-205h-109v205h-412v102l410 529h111v-529h153z" />
    <glyph glyph-name="onehalf" unicode="&#xbd;" horiz-adv-x="1597" 
d="M334 649h-109v651h-194v74q96 5 145 26t84 85h74v-836zM223 0h-141l1024 1485h141zM1241 850q120 0 193 -57.5t73 -161.5q0 -58 -25 -117t-61.5 -107t-99.5 -106.5t-115 -99.5t-133 -101h457v-100h-604v96q238 174 352.5 295.5t114.5 224.5q0 64 -41 104t-113 40
q-75 0 -126 -44.5t-52 -140.5h-113q-2 124 78.5 199.5t214.5 75.5z" />
    <glyph glyph-name="threequarters" unicode="&#xbe;" horiz-adv-x="1896" 
d="M358 725q83 0 135 42t52 116q0 157 -240 157h-18v101h14q112 0 166.5 31.5t54.5 103.5q0 65 -45 99t-115 34q-82 0 -127 -44t-51 -116h-112q11 114 87 182t206 68q55 0 102 -11.5t86 -35.5t61.5 -66t22.5 -98q0 -134 -135 -194q157 -51 157 -209q0 -121 -87 -185.5
t-216 -64.5q-140 0 -214.5 74t-82.5 188h113q8 -80 53.5 -126t132.5 -46zM485 0h-141l1024 1485h141zM1583 686l-291 -379h291v379zM1845 307v-102h-153v-205h-109v205h-412v102l410 529h111v-529h153z" />
    <glyph glyph-name="questiondown" unicode="&#xbf;" horiz-adv-x="968" 
d="M451 -375q-86 0 -165 22.5t-143.5 64.5t-103.5 111.5t-39 156.5q0 56 16.5 108t40 90.5t62 78t71 65.5t78.5 59q47 33 69 49.5t51.5 45t42.5 53t22.5 61.5t9.5 82v49h129v-49q0 -72 -13 -123t-53.5 -99t-67.5 -71t-102 -79q-9 -7 -14 -11q-43 -32 -63 -47t-53.5 -47.5
t-49 -59t-28.5 -66.5t-13 -85q0 -119 88 -182.5t238 -63.5q71 0 129.5 19t96.5 49.5t65 71t39.5 80.5t15.5 81l129 -2q-5 -122 -70.5 -216.5t-174 -145t-240.5 -50.5zM612 909h-178v193h178v-193z" />
    <glyph glyph-name="Agrave" unicode="&#xc0;" horiz-adv-x="1284" 
d="M0 0l563 1485h156l565 -1485h-149l-142 373h-706l-140 -373h-147zM637 1315l-303 -815h610zM575 1583l-313 232h221l224 -232h-132z" />
    <glyph glyph-name="Aacute" unicode="&#xc1;" horiz-adv-x="1284" 
d="M0 0l563 1485h156l565 -1485h-149l-142 373h-706l-140 -373h-147zM637 1315l-303 -815h610zM1018 1815l-311 -232h-134l226 232h219z" />
    <glyph glyph-name="Acircumflex" unicode="&#xc2;" horiz-adv-x="1284" 
d="M0 0l563 1485h156l565 -1485h-149l-142 373h-706l-140 -373h-147zM637 1315l-303 -815h610zM729 1815l270 -232h-153l-205 158l-207 -158h-151l276 232h170z" />
    <glyph glyph-name="Atilde" unicode="&#xc3;" horiz-adv-x="1284" 
d="M0 0l563 1485h156l565 -1485h-149l-142 373h-706l-140 -373h-147zM637 1315l-303 -815h610zM768 1702q79 0 102 98h111q-17 -95 -71.5 -150t-133.5 -55q-39 0 -79.5 16t-68.5 35.5t-60 35.5t-56 16q-74 0 -98 -103h-111q13 98 71 151.5t136 53.5q48 0 97.5 -24.5
t90.5 -49t70 -24.5z" />
    <glyph glyph-name="Adieresis" unicode="&#xc4;" horiz-adv-x="1284" 
d="M0 0l563 1485h156l565 -1485h-149l-142 373h-706l-140 -373h-147zM637 1315l-303 -815h610zM373 1800h137v-203h-137v203zM774 1800h137v-203h-137v203z" />
    <glyph glyph-name="Aring" unicode="&#xc5;" horiz-adv-x="1284" 
d="M0 0l563 1485h156l565 -1485h-149l-142 373h-706l-140 -373h-147zM637 1315l-303 -815h610zM641 1839q-38 0 -68 -26.5t-30 -71.5q0 -44 30 -70t68 -26q40 0 70 25.5t30 70.5t-30 71.5t-70 26.5zM641 1915q79 0 132.5 -48.5t53.5 -125.5q0 -75 -53.5 -124.5t-132.5 -49.5
q-78 0 -131 49.5t-53 124.5q0 76 53.5 125t130.5 49z" />
    <glyph glyph-name="AE" unicode="&#xc6;" horiz-adv-x="1935" 
d="M909 1485h953v-127h-815v-524h768v-129h-768v-578h815v-127h-953v373h-536l-226 -373h-147zM909 1255l-458 -755h458v755z" />
    <glyph glyph-name="Ccedilla" unicode="&#xc7;" horiz-adv-x="1431" 
d="M1227 477h143q-51 -231 -212 -367.5t-417 -136.5q-208 0 -358.5 99.5t-225.5 272t-75 398.5q0 170 44.5 311t128 242.5t210 158t283.5 56.5q246 0 405.5 -135.5t210.5 -367.5h-143q-44 180 -173.5 276t-304.5 96q-110 0 -204 -42.5t-163.5 -122t-109 -201t-39.5 -271.5
q0 -293 142.5 -466t373.5 -173q104 0 189.5 30.5t144 84t95.5 118.5t55 140zM547 -371l28 82q56 -18 99 -18q50 0 83.5 15.5t33.5 49.5q0 30 -25 46t-64 16q-46 0 -77 -19l-43 31l108 174h86l-65 -104q20 4 26 4h25q62 0 102.5 -36.5t40.5 -100.5q0 -77 -61 -117.5
t-148 -40.5q-85 0 -149 18z" />
    <glyph glyph-name="Egrave" unicode="&#xc8;" horiz-adv-x="1200" 
d="M176 0v1485h952v-127h-815v-524h766v-129h-766v-578h815v-127h-952zM627 1583l-314 232h222l223 -232h-131z" />
    <glyph glyph-name="Eacute" unicode="&#xc9;" horiz-adv-x="1200" 
d="M176 0v1485h952v-127h-815v-524h766v-129h-766v-578h815v-127h-952zM987 1815l-311 -232h-133l225 232h219z" />
    <glyph glyph-name="Ecircumflex" unicode="&#xca;" horiz-adv-x="1200" 
d="M176 0v1485h952v-127h-815v-524h766v-129h-766v-578h815v-127h-952zM739 1815l271 -232h-154l-205 158l-207 -158h-151l276 232h170z" />
    <glyph glyph-name="Edieresis" unicode="&#xcb;" horiz-adv-x="1200" 
d="M176 0v1485h952v-127h-815v-524h766v-129h-766v-578h815v-127h-952zM403 1800h138v-203h-138v203zM805 1800h137v-203h-137v203z" />
    <glyph glyph-name="Igrave" unicode="&#xcc;" horiz-adv-x="489" 
d="M313 1485v-1485h-137v1485h137zM180 1583l-313 232h221l223 -232h-131z" />
    <glyph glyph-name="Iacute" unicode="&#xcd;" horiz-adv-x="489" 
d="M313 1485v-1485h-137v1485h137zM621 1815l-312 -232h-133l225 232h220z" />
    <glyph glyph-name="Icircumflex" unicode="&#xce;" horiz-adv-x="489" 
d="M313 1485v-1485h-137v1485h137zM334 1815l270 -232h-153l-205 158l-207 -158h-152l277 232h170z" />
    <glyph glyph-name="Idieresis" unicode="&#xcf;" horiz-adv-x="489" 
d="M313 1485v-1485h-137v1485h137zM-23 1800h138v-203h-138v203zM379 1800h137v-203h-137v203z" />
    <glyph glyph-name="Eth" unicode="&#xd0;" horiz-adv-x="1445" 
d="M197 1485h360q147 0 266 -22.5t221.5 -76t171 -137.5t107.5 -211.5t39 -294.5q0 -168 -39 -296.5t-107.5 -212t-171.5 -137t-221.5 -75.5t-265.5 -22h-360v694h-174v127h174v664zM1217 743q0 115 -19.5 207t-52.5 155.5t-83.5 110.5t-104.5 74t-125 43.5t-135 21.5
t-144 5h-219v-539h348v-127h-348v-569h219q80 0 144 5t135 21.5t125 44t104.5 74t83.5 110.5t52.5 156t19.5 207z" />
    <glyph glyph-name="Ntilde" unicode="&#xd1;" horiz-adv-x="1501" 
d="M1325 0h-199l-813 1337v-1337h-137v1485h199l813 -1340v1340h137v-1485zM905 1702q80 0 103 98h110q-17 -95 -71.5 -150t-133.5 -55q-39 0 -79.5 16t-68.5 35.5t-60 35.5t-56 16q-74 0 -98 -103h-111q13 98 71 151.5t136 53.5q48 0 97.5 -24.5t90.5 -49t70 -24.5z" />
    <glyph glyph-name="Ograve" unicode="&#xd2;" horiz-adv-x="1523" 
d="M227 743q0 -150 41 -271.5t113 -201.5t169.5 -123t211.5 -43q234 0 384 170.5t150 468.5q0 150 -41 271.5t-112.5 201t-169 122t-211.5 42.5t-211.5 -42.5t-169.5 -122t-113 -201t-41 -271.5zM1442 743q0 -226 -81.5 -400t-236.5 -272t-362 -98t-362 98t-236.5 272
t-81.5 400t81.5 399.5t236.5 271t362 97.5t362 -97.5t236.5 -271t81.5 -399.5zM696 1583l-313 232h221l223 -232h-131z" />
    <glyph glyph-name="Oacute" unicode="&#xd3;" horiz-adv-x="1523" 
d="M227 743q0 -150 41 -271.5t113 -201.5t169.5 -123t211.5 -43q234 0 384 170.5t150 468.5q0 150 -41 271.5t-112.5 201t-169 122t-211.5 42.5t-211.5 -42.5t-169.5 -122t-113 -201t-41 -271.5zM1442 743q0 -226 -81.5 -400t-236.5 -272t-362 -98t-362 98t-236.5 272
t-81.5 400t81.5 399.5t236.5 271t362 97.5t362 -97.5t236.5 -271t81.5 -399.5zM1139 1815l-312 -232h-133l226 232h219z" />
    <glyph glyph-name="Ocircumflex" unicode="&#xd4;" horiz-adv-x="1523" 
d="M227 743q0 -150 41 -271.5t113 -201.5t169.5 -123t211.5 -43q234 0 384 170.5t150 468.5q0 150 -41 271.5t-112.5 201t-169 122t-211.5 42.5t-211.5 -42.5t-169.5 -122t-113 -201t-41 -271.5zM1442 743q0 -226 -81.5 -400t-236.5 -272t-362 -98t-362 98t-236.5 272
t-81.5 400t81.5 399.5t236.5 271t362 97.5t362 -97.5t236.5 -271t81.5 -399.5zM850 1815l270 -232h-153l-205 158l-207 -158h-152l277 232h170z" />
    <glyph glyph-name="Otilde" unicode="&#xd5;" horiz-adv-x="1523" 
d="M227 743q0 -150 41 -271.5t113 -201.5t169.5 -123t211.5 -43q234 0 384 170.5t150 468.5q0 150 -41 271.5t-112.5 201t-169 122t-211.5 42.5t-211.5 -42.5t-169.5 -122t-113 -201t-41 -271.5zM1442 743q0 -226 -81.5 -400t-236.5 -272t-362 -98t-362 98t-236.5 272
t-81.5 400t81.5 399.5t236.5 271t362 97.5t362 -97.5t236.5 -271t81.5 -399.5zM889 1702q79 0 102 98h111q-17 -95 -71.5 -150t-133.5 -55q-39 0 -79.5 16t-68.5 35.5t-60 35.5t-56 16q-74 0 -98 -103h-111q13 98 71 151.5t136 53.5q48 0 97.5 -24.5t90.5 -49t70 -24.5z" />
    <glyph glyph-name="Odieresis" unicode="&#xd6;" horiz-adv-x="1523" 
d="M227 743q0 -150 41 -271.5t113 -201.5t169.5 -123t211.5 -43q234 0 384 170.5t150 468.5q0 150 -41 271.5t-112.5 201t-169 122t-211.5 42.5t-211.5 -42.5t-169.5 -122t-113 -201t-41 -271.5zM1442 743q0 -226 -81.5 -400t-236.5 -272t-362 -98t-362 98t-236.5 272
t-81.5 400t81.5 399.5t236.5 271t362 97.5t362 -97.5t236.5 -271t81.5 -399.5zM494 1800h137v-203h-137v203zM895 1800h137v-203h-137v203z" />
    <glyph glyph-name="multiply" unicode="&#xd7;" horiz-adv-x="1388" 
d="M1167 172l-92 -90l-381 381l-381 -381l-90 90l381 381l-381 381l90 90l381 -381l381 381l92 -90l-383 -381z" />
    <glyph glyph-name="Oslash" unicode="&#xd8;" horiz-adv-x="1523" 
d="M1442 743q0 -226 -81.5 -400t-236.5 -272t-362 -98q-257 0 -438 154l-134 -156l-81 74l139 164q-166 208 -166 534q0 226 81.5 399.5t236.5 271t362 97.5q273 0 455 -168l129 152l81 -72l-139 -163q154 -206 154 -517zM227 743q0 -262 115 -424l782 916
q-145 145 -362 145q-114 0 -211.5 -42.5t-169.5 -122t-113 -201t-41 -271.5zM1296 743q0 240 -104 404l-778 -911q141 -132 348 -132q234 0 384 170.5t150 468.5z" />
    <glyph glyph-name="Ugrave" unicode="&#xd9;" horiz-adv-x="1449" 
d="M154 1485h137v-910q0 -244 100 -357.5t332 -113.5q234 0 335 123t101 373v885h137v-869q0 -332 -132.5 -487.5t-440.5 -155.5q-205 0 -328 61t-182 198t-59 368v885zM719 1583l-313 232h221l223 -232h-131z" />
    <glyph glyph-name="Uacute" unicode="&#xda;" horiz-adv-x="1449" 
d="M154 1485h137v-910q0 -244 100 -357.5t332 -113.5q234 0 335 123t101 373v885h137v-869q0 -332 -132.5 -487.5t-440.5 -155.5q-205 0 -328 61t-182 198t-59 368v885zM1059 1815l-311 -232h-134l226 232h219z" />
    <glyph glyph-name="Ucircumflex" unicode="&#xdb;" horiz-adv-x="1449" 
d="M154 1485h137v-910q0 -244 100 -357.5t332 -113.5q234 0 335 123t101 373v885h137v-869q0 -332 -132.5 -487.5t-440.5 -155.5q-205 0 -328 61t-182 198t-59 368v885zM811 1815l270 -232h-153l-205 158l-207 -158h-151l276 232h170z" />
    <glyph glyph-name="Udieresis" unicode="&#xdc;" horiz-adv-x="1449" 
d="M154 1485h137v-910q0 -244 100 -357.5t332 -113.5q234 0 335 123t101 373v885h137v-869q0 -332 -132.5 -487.5t-440.5 -155.5q-205 0 -328 61t-182 198t-59 368v885zM455 1800h137v-203h-137v203zM856 1800h137v-203h-137v203z" />
    <glyph glyph-name="Yacute" unicode="&#xdd;" horiz-adv-x="1177" 
d="M-20 1485h153l447 -787l460 787h158l-555 -928v-557h-137v561zM924 1815l-312 -232h-133l226 232h219z" />
    <glyph glyph-name="Thorn" unicode="&#xde;" horiz-adv-x="1228" 
d="M313 1212h287q112 0 200 -12t166.5 -43.5t130 -81.5t81.5 -129t30 -184q0 -106 -30 -184.5t-81.5 -127.5t-130.5 -78.5t-166 -41t-200 -11.5h-287v-319h-137v1485h137v-273zM616 1083h-303v-637h303q82 0 142 6t121 26t99.5 53.5t62.5 92t24 138.5t-24 139t-62.5 93.5
t-99 55t-121.5 27t-142 6.5z" />
    <glyph glyph-name="germandbls" unicode="&#xdf;" horiz-adv-x="1253" 
d="M281 0h-127v993q0 135 18.5 216t58.5 137q113 165 408 165q197 0 317.5 -94t120.5 -252q0 -124 -58.5 -206.5t-162.5 -120.5q152 -30 241 -136t89 -278q0 -93 -27.5 -169t-75.5 -128t-115 -87t-144.5 -51t-166.5 -16q-131 0 -208 17l22 123q95 -21 199 -21q60 0 113 9.5
t103 33t86 59.5t57.5 93.5t21.5 130.5q0 89 -33 155.5t-93.5 107.5t-140 61t-176.5 20h-18v125h20q161 0 247.5 70.5t86.5 191.5q0 116 -83 183t-224 67q-105 0 -176.5 -25t-116.5 -88q-63 -88 -63 -305v-981z" />
    <glyph glyph-name="agrave" unicode="&#xe0;" horiz-adv-x="1083" 
d="M209 276q0 -87 70 -138.5t182 -51.5q64 0 119.5 13.5t106 44.5t86 78t56.5 119t21 163v53q-349 -38 -495 -98t-146 -183zM852 0l-6 168q-56 -91 -160.5 -143t-253.5 -52q-158 0 -261 83t-103 218q0 75 30.5 132.5t89 99.5t155.5 73.5t216 52.5t285 38v39q0 73 -17 128
t-45 88.5t-69 53.5t-83 27.5t-93 7.5q-138 0 -220 -68.5t-90 -179.5h-133q23 165 144.5 262.5t306.5 97.5q100 0 175.5 -22t133 -71.5t87.5 -135t30 -205.5q0 -85 -1 -194.5t-1 -145.5q0 -110 12 -352h-129zM510 1247l-266 238h194l185 -238h-113z" />
    <glyph glyph-name="aacute" unicode="&#xe1;" horiz-adv-x="1083" 
d="M209 276q0 -87 70 -138.5t182 -51.5q64 0 119.5 13.5t106 44.5t86 78t56.5 119t21 163v53q-349 -38 -495 -98t-146 -183zM852 0l-6 168q-56 -91 -160.5 -143t-253.5 -52q-158 0 -261 83t-103 218q0 75 30.5 132.5t89 99.5t155.5 73.5t216 52.5t285 38v39q0 73 -17 128
t-45 88.5t-69 53.5t-83 27.5t-93 7.5q-138 0 -220 -68.5t-90 -179.5h-133q23 165 144.5 262.5t306.5 97.5q100 0 175.5 -22t133 -71.5t87.5 -135t30 -205.5q0 -85 -1 -194.5t-1 -145.5q0 -110 12 -352h-129zM848 1485l-266 -238h-113l184 238h195z" />
    <glyph glyph-name="acircumflex" unicode="&#xe2;" horiz-adv-x="1083" 
d="M209 276q0 -87 70 -138.5t182 -51.5q64 0 119.5 13.5t106 44.5t86 78t56.5 119t21 163v53q-349 -38 -495 -98t-146 -183zM852 0l-6 168q-56 -91 -160.5 -143t-253.5 -52q-158 0 -261 83t-103 218q0 75 30.5 132.5t89 99.5t155.5 73.5t216 52.5t285 38v39q0 73 -17 128
t-45 88.5t-69 53.5t-83 27.5t-93 7.5q-138 0 -220 -68.5t-90 -179.5h-133q23 165 144.5 262.5t306.5 97.5q100 0 175.5 -22t133 -71.5t87.5 -135t30 -205.5q0 -85 -1 -194.5t-1 -145.5q0 -110 12 -352h-129zM621 1485l253 -238h-131l-198 156l-201 -156h-129l260 238h146z
" />
    <glyph glyph-name="atilde" unicode="&#xe3;" horiz-adv-x="1083" 
d="M209 276q0 -87 70 -138.5t182 -51.5q64 0 119.5 13.5t106 44.5t86 78t56.5 119t21 163v53q-349 -38 -495 -98t-146 -183zM852 0l-6 168q-56 -91 -160.5 -143t-253.5 -52q-158 0 -261 83t-103 218q0 75 30.5 132.5t89 99.5t155.5 73.5t216 52.5t285 38v39q0 73 -17 128
t-45 88.5t-69 53.5t-83 27.5t-93 7.5q-138 0 -220 -68.5t-90 -179.5h-133q23 165 144.5 262.5t306.5 97.5q100 0 175.5 -22t133 -71.5t87.5 -135t30 -205.5q0 -85 -1 -194.5t-1 -145.5q0 -110 12 -352h-129zM672 1378q79 0 102 99h111q-17 -95 -71.5 -150t-133.5 -55
q-49 0 -100 25t-93 50t-71 25q-75 0 -99 -100h-110q13 96 71.5 150.5t135.5 54.5q38 0 77.5 -15.5t67 -34t58.5 -34t55 -15.5z" />
    <glyph glyph-name="adieresis" unicode="&#xe4;" horiz-adv-x="1083" 
d="M209 276q0 -87 70 -138.5t182 -51.5q64 0 119.5 13.5t106 44.5t86 78t56.5 119t21 163v53q-349 -38 -495 -98t-146 -183zM852 0l-6 168q-56 -91 -160.5 -143t-253.5 -52q-158 0 -261 83t-103 218q0 75 30.5 132.5t89 99.5t155.5 73.5t216 52.5t285 38v39q0 73 -17 128
t-45 88.5t-69 53.5t-83 27.5t-93 7.5q-138 0 -220 -68.5t-90 -179.5h-133q23 165 144.5 262.5t306.5 97.5q100 0 175.5 -22t133 -71.5t87.5 -135t30 -205.5q0 -85 -1 -194.5t-1 -145.5q0 -110 12 -352h-129zM276 1282v203h127v-203h-127zM686 1485h129v-203h-129v203z" />
    <glyph glyph-name="aring" unicode="&#xe5;" horiz-adv-x="1083" 
d="M209 276q0 -87 70 -138.5t182 -51.5q64 0 119.5 13.5t106 44.5t86 78t56.5 119t21 163v53q-349 -38 -495 -98t-146 -183zM852 0l-6 168q-56 -91 -160.5 -143t-253.5 -52q-158 0 -261 83t-103 218q0 75 30.5 132.5t89 99.5t155.5 73.5t216 52.5t285 38v39q0 73 -17 128
t-45 88.5t-69 53.5t-83 27.5t-93 7.5q-138 0 -220 -68.5t-90 -179.5h-133q23 165 144.5 262.5t306.5 97.5q100 0 175.5 -22t133 -71.5t87.5 -135t30 -205.5q0 -85 -1 -194.5t-1 -145.5q0 -110 12 -352h-129zM545 1599q79 0 132.5 -48.5t53.5 -125.5q0 -75 -53.5 -124.5
t-132.5 -49.5q-78 0 -131.5 49.5t-53.5 124.5q0 76 54 125t131 49zM545 1524q-38 0 -68.5 -27t-30.5 -72q0 -44 30 -70t69 -26q40 0 70 25.5t30 70.5t-30.5 72t-69.5 27z" />
    <glyph glyph-name="ae" unicode="&#xe6;" horiz-adv-x="1886" 
d="M1337 -27q-157 0 -271 68.5t-171 189.5q-119 -258 -463 -258q-160 0 -262 79.5t-102 217.5q0 44 9 80t25 66.5t45.5 55.5t62 45t84 37.5t103 31.5t126.5 28t146 25t171 25v45q0 73 -17.5 128t-45 88.5t-69 53.5t-83.5 27.5t-93 7.5q-138 0 -217.5 -68t-87.5 -180h-133
q23 165 142.5 262.5t304.5 97.5q156 0 252 -57t133 -186q126 237 407 237q153 0 267.5 -78t171.5 -214.5t49 -307.5l-869 4q0 -201 109.5 -317.5t284.5 -116.5q129 0 214 62t117 178h133q-41 -171 -165 -264t-308 -93zM1331 1006q-157 0 -257 -97t-118 -278h725
q0 95 -40.5 179.5t-122 140t-187.5 55.5zM846 504v49q-390 -63 -513.5 -110t-123.5 -164q0 -92 69.5 -142.5t182.5 -50.5q64 0 119 13.5t105 44.5t85 78t55.5 119t20.5 163z" />
    <glyph glyph-name="ccedilla" unicode="&#xe7;" horiz-adv-x="1087" 
d="M573 1120q181 0 304 -108t149 -264h-133q-30 122 -119 189t-213 67q-150 0 -254 -119.5t-104 -335.5q0 -114 29.5 -203.5t79.5 -144t114 -83t137 -28.5q134 0 222.5 74t115.5 184h135q-32 -170 -161 -272.5t-312 -102.5q-230 0 -362.5 158t-132.5 416q0 261 133.5 417
t371.5 156zM373 -371l28 82q56 -18 99 -18q50 0 83 15.5t33 49.5q0 30 -25 46t-63 16q-46 0 -77 -19l-43 31l108 174h86l-65 -104q20 4 26 4h25q62 0 102.5 -36.5t40.5 -100.5q0 -77 -61 -117.5t-148 -40.5q-85 0 -149 18z" />
    <glyph glyph-name="egrave" unicode="&#xe8;" horiz-adv-x="1142" 
d="M588 -27q-239 0 -379.5 157.5t-140.5 416.5q0 130 39 238.5t108 181.5t164 113t205 40q152 0 267 -79.5t173.5 -217.5t50.5 -309h-876q4 -197 114.5 -310.5t282.5 -113.5q129 0 216.5 62.5t119.5 177.5h133q-41 -171 -167 -264t-310 -93zM582 1006q-157 0 -258 -97
t-121 -278h733q0 95 -41.5 179.5t-124 140t-188.5 55.5zM516 1247l-266 238h194l185 -238h-113z" />
    <glyph glyph-name="eacute" unicode="&#xe9;" horiz-adv-x="1142" 
d="M588 -27q-239 0 -379.5 157.5t-140.5 416.5q0 130 39 238.5t108 181.5t164 113t205 40q152 0 267 -79.5t173.5 -217.5t50.5 -309h-876q4 -197 114.5 -310.5t282.5 -113.5q129 0 216.5 62.5t119.5 177.5h133q-41 -171 -167 -264t-310 -93zM582 1006q-157 0 -258 -97
t-121 -278h733q0 95 -41.5 179.5t-124 140t-188.5 55.5zM895 1485l-266 -238h-113l184 238h195z" />
    <glyph glyph-name="ecircumflex" unicode="&#xea;" horiz-adv-x="1142" 
d="M588 -27q-239 0 -379.5 157.5t-140.5 416.5q0 130 39 238.5t108 181.5t164 113t205 40q152 0 267 -79.5t173.5 -217.5t50.5 -309h-876q4 -197 114.5 -310.5t282.5 -113.5q129 0 216.5 62.5t119.5 177.5h133q-41 -171 -167 -264t-310 -93zM582 1006q-157 0 -258 -97
t-121 -278h733q0 95 -41.5 179.5t-124 140t-188.5 55.5zM664 1485l254 -238h-132l-198 156l-201 -156h-129l260 238h146z" />
    <glyph glyph-name="edieresis" unicode="&#xeb;" horiz-adv-x="1142" 
d="M588 -27q-239 0 -379.5 157.5t-140.5 416.5q0 130 39 238.5t108 181.5t164 113t205 40q152 0 267 -79.5t173.5 -217.5t50.5 -309h-876q4 -197 114.5 -310.5t282.5 -113.5q129 0 216.5 62.5t119.5 177.5h133q-41 -171 -167 -264t-310 -93zM582 1006q-157 0 -258 -97
t-121 -278h733q0 95 -41.5 179.5t-124 140t-188.5 55.5zM309 1282v203h127v-203h-127zM719 1485h129v-203h-129v203z" />
    <glyph glyph-name="igrave" unicode="&#xec;" horiz-adv-x="434" 
d="M154 1102h127v-1102h-127v1102zM162 1247l-266 238h194l184 -238h-112z" />
    <glyph glyph-name="iacute" unicode="&#xed;" horiz-adv-x="434" 
d="M154 1102h127v-1102h-127v1102zM539 1485l-267 -238h-112l184 238h195z" />
    <glyph glyph-name="icircumflex" unicode="&#xee;" horiz-adv-x="434" 
d="M154 1102h127v-1102h-127v1102zM293 1485l254 -238h-131l-199 156l-201 -156h-129l260 238h146z" />
    <glyph glyph-name="idieresis" unicode="&#xef;" horiz-adv-x="434" 
d="M154 1102h127v-1102h-127v1102zM-51 1282v203h127v-203h-127zM358 1485h129v-203h-129v203z" />
    <glyph glyph-name="eth" unicode="&#xf0;" horiz-adv-x="1095" 
d="M602 1407l166 104l94 -53l-180 -108q158 -123 252 -307t94 -427q0 -163 -36.5 -288t-102.5 -201.5t-153.5 -115t-194.5 -38.5q-213 0 -344 156.5t-131 419.5q0 259 132.5 415t338.5 156q99 0 181 -48.5t134 -121.5l2 2q-89 193 -283 328l-172 -104l-92 49l176 110
q-40 25 -69 37l-70 33l53 106q109 -43 205 -104zM541 88q66 0 127.5 29t112 83.5t80.5 145t30 203.5q0 112 -29.5 201.5t-79.5 144t-111.5 83t-129.5 28.5q-153 0 -245.5 -124.5t-92.5 -332.5q0 -213 92 -337t246 -124z" />
    <glyph glyph-name="ntilde" unicode="&#xf1;" horiz-adv-x="1138" 
d="M281 1102v-187q108 205 366 205q371 0 371 -426v-694h-127v659q0 82 -12.5 142t-42.5 108t-85.5 72.5t-136.5 24.5q-144 0 -238.5 -110.5t-94.5 -283.5v-612h-127v1102h127zM719 1378q79 0 102 99h111q-17 -95 -71.5 -150t-133.5 -55q-49 0 -100 25t-93 50t-71 25
q-74 0 -98 -100h-111q13 96 71.5 150.5t135.5 54.5q38 0 77.5 -15.5t67 -34t58.5 -34t55 -15.5z" />
    <glyph glyph-name="ograve" unicode="&#xf2;" horiz-adv-x="1132" 
d="M203 547q0 -229 97.5 -343t264.5 -114q166 0 265.5 114.5t99.5 342.5t-99.5 342.5t-265.5 114.5q-167 0 -264.5 -114t-97.5 -343zM68 547q0 145 40.5 257.5t110.5 180t157.5 101.5t188.5 34q102 0 190 -34t158.5 -101.5t111 -180t40.5 -257.5t-40.5 -258t-111 -180.5
t-158.5 -101.5t-190 -34q-101 0 -188.5 34t-157.5 101.5t-110.5 180.5t-40.5 258zM510 1247l-266 238h194l185 -238h-113z" />
    <glyph glyph-name="oacute" unicode="&#xf3;" horiz-adv-x="1132" 
d="M203 547q0 -229 97.5 -343t264.5 -114q166 0 265.5 114.5t99.5 342.5t-99.5 342.5t-265.5 114.5q-167 0 -264.5 -114t-97.5 -343zM68 547q0 145 40.5 257.5t110.5 180t157.5 101.5t188.5 34q102 0 190 -34t158.5 -101.5t111 -180t40.5 -257.5t-40.5 -258t-111 -180.5
t-158.5 -101.5t-190 -34q-101 0 -188.5 34t-157.5 101.5t-110.5 180.5t-40.5 258zM889 1485l-266 -238h-113l184 238h195z" />
    <glyph glyph-name="ocircumflex" unicode="&#xf4;" horiz-adv-x="1132" 
d="M203 547q0 -229 97.5 -343t264.5 -114q166 0 265.5 114.5t99.5 342.5t-99.5 342.5t-265.5 114.5q-167 0 -264.5 -114t-97.5 -343zM68 547q0 145 40.5 257.5t110.5 180t157.5 101.5t188.5 34q102 0 190 -34t158.5 -101.5t111 -180t40.5 -257.5t-40.5 -258t-111 -180.5
t-158.5 -101.5t-190 -34q-101 0 -188.5 34t-157.5 101.5t-110.5 180.5t-40.5 258zM641 1485l254 -238h-131l-199 156l-200 -156h-129l260 238h145z" />
    <glyph glyph-name="otilde" unicode="&#xf5;" horiz-adv-x="1132" 
d="M203 547q0 -229 97.5 -343t264.5 -114q166 0 265.5 114.5t99.5 342.5t-99.5 342.5t-265.5 114.5q-167 0 -264.5 -114t-97.5 -343zM68 547q0 145 40.5 257.5t110.5 180t157.5 101.5t188.5 34q102 0 190 -34t158.5 -101.5t111 -180t40.5 -257.5t-40.5 -258t-111 -180.5
t-158.5 -101.5t-190 -34q-101 0 -188.5 34t-157.5 101.5t-110.5 180.5t-40.5 258zM692 1378q80 0 103 99h110q-17 -95 -71.5 -150t-133.5 -55q-49 0 -100 25t-93 50t-71 25q-74 0 -98 -100h-111q13 96 71.5 150.5t135.5 54.5q38 0 77.5 -15.5t67 -34t58.5 -34t55 -15.5z" />
    <glyph glyph-name="odieresis" unicode="&#xf6;" horiz-adv-x="1132" 
d="M203 547q0 -229 97.5 -343t264.5 -114q166 0 265.5 114.5t99.5 342.5t-99.5 342.5t-265.5 114.5q-167 0 -264.5 -114t-97.5 -343zM68 547q0 145 40.5 257.5t110.5 180t157.5 101.5t188.5 34q102 0 190 -34t158.5 -101.5t111 -180t40.5 -257.5t-40.5 -258t-111 -180.5
t-158.5 -101.5t-190 -34q-101 0 -188.5 34t-157.5 101.5t-110.5 180.5t-40.5 258zM297 1282v203h127v-203h-127zM707 1485h129v-203h-129v203z" />
    <glyph glyph-name="divide" unicode="&#xf7;" horiz-adv-x="1388" 
d="M608 143v193h178v-193h-178zM608 778v191h178v-191h-178zM1210 496h-1032v120h1032v-120z" />
    <glyph glyph-name="oslash" unicode="&#xf8;" horiz-adv-x="1132" 
d="M68 547q0 145 40.5 257.5t110.5 180t157.5 101.5t188.5 34q197 0 328 -116l82 96l84 -72l-92 -108q98 -140 98 -373q0 -145 -40.5 -258t-111 -180.5t-158.5 -101.5t-190 -34q-193 0 -319 109l-92 -109l-82 74l100 117q-104 142 -104 383zM203 547q0 -173 57 -281l551 643
q-95 95 -246 95q-167 0 -264.5 -114t-97.5 -343zM930 547q0 152 -53 268l-549 -639q92 -86 237 -86q166 0 265.5 114.5t99.5 342.5z" />
    <glyph glyph-name="ugrave" unicode="&#xf9;" horiz-adv-x="1114" 
d="M834 0v178q-47 -89 -135 -147t-220 -58q-358 0 -358 426v703h127v-668q0 -66 6.5 -116t24.5 -95t47 -73.5t76 -45t110 -16.5q134 0 228 111t94 282v621h127v-1102h-127zM537 1247l-267 238h195l184 -238h-112z" />
    <glyph glyph-name="uacute" unicode="&#xfa;" horiz-adv-x="1114" 
d="M834 0v178q-47 -89 -135 -147t-220 -58q-358 0 -358 426v703h127v-668q0 -66 6.5 -116t24.5 -95t47 -73.5t76 -45t110 -16.5q134 0 228 111t94 282v621h127v-1102h-127zM846 1485l-266 -238h-113l184 238h195z" />
    <glyph glyph-name="ucircumflex" unicode="&#xfb;" horiz-adv-x="1114" 
d="M834 0v178q-47 -89 -135 -147t-220 -58q-358 0 -358 426v703h127v-668q0 -66 6.5 -116t24.5 -95t47 -73.5t76 -45t110 -16.5q134 0 228 111t94 282v621h127v-1102h-127zM627 1485l254 -238h-131l-199 156l-201 -156h-129l260 238h146z" />
    <glyph glyph-name="udieresis" unicode="&#xfc;" horiz-adv-x="1114" 
d="M834 0v178q-47 -89 -135 -147t-220 -58q-358 0 -358 426v703h127v-668q0 -66 6.5 -116t24.5 -95t47 -73.5t76 -45t110 -16.5q134 0 228 111t94 282v621h127v-1102h-127zM283 1282v203h127v-203h-127zM692 1485h129v-203h-129v203z" />
    <glyph glyph-name="yacute" unicode="&#xfd;" horiz-adv-x="954" 
d="M172 -358h-72v110h74q48 0 72 3.5t51.5 19t47 47.5t42.5 90l35 88l-422 1102h143l342 -926l332 926h137l-452 -1213q-29 -83 -55 -129t-65 -74t-85 -36t-125 -8zM778 1485l-266 -238h-113l185 238h194z" />
    <glyph glyph-name="thorn" unicode="&#xfe;" horiz-adv-x="1179" 
d="M1114 547q0 -266 -131.5 -420t-329.5 -154q-121 0 -216 53.5t-156 153.5v-538h-127v1843h127v-574q61 101 155.5 155t216.5 54q198 0 329.5 -153.5t131.5 -419.5zM272 547q0 -95 21 -173.5t56 -130.5t81.5 -87.5t96 -51.5t100.5 -16q157 0 253.5 122t96.5 337t-96.5 337
t-253.5 122q-51 0 -100.5 -16t-96 -51.5t-81.5 -87.5t-56 -130.5t-21 -173.5z" />
    <glyph glyph-name="ydieresis" unicode="&#xff;" horiz-adv-x="954" 
d="M172 -358h-72v110h74q48 0 72 3.5t51.5 19t47 47.5t42.5 90l35 88l-422 1102h143l342 -926l332 926h137l-452 -1213q-29 -83 -55 -129t-65 -74t-85 -36t-125 -8zM209 1282v203h127v-203h-127zM618 1485h130v-203h-130v203z" />
    <glyph glyph-name="Amacron" unicode="&#x100;" horiz-adv-x="1284" 
d="M0 0l563 1485h156l565 -1485h-149l-142 373h-706l-140 -373h-147zM637 1315l-303 -815h610zM948 1649h-614v120h614v-120z" />
    <glyph glyph-name="amacron" unicode="&#x101;" horiz-adv-x="1083" 
d="M209 276q0 -87 70 -138.5t182 -51.5q64 0 119.5 13.5t106 44.5t86 78t56.5 119t21 163v53q-349 -38 -495 -98t-146 -183zM852 0l-6 168q-56 -91 -160.5 -143t-253.5 -52q-158 0 -261 83t-103 218q0 75 30.5 132.5t89 99.5t155.5 73.5t216 52.5t285 38v39q0 73 -17 128
t-45 88.5t-69 53.5t-83 27.5t-93 7.5q-138 0 -220 -68.5t-90 -179.5h-133q23 165 144.5 262.5t306.5 97.5q100 0 175.5 -22t133 -71.5t87.5 -135t30 -205.5q0 -85 -1 -194.5t-1 -145.5q0 -110 12 -352h-129zM846 1331h-570v103h570v-103z" />
    <glyph glyph-name="Abreve" unicode="&#x102;" horiz-adv-x="1284" 
d="M0 0l563 1485h156l565 -1485h-149l-142 373h-706l-140 -373h-147zM637 1315l-303 -815h610zM838 1815h120q-11 -108 -96 -176t-223 -68q-133 0 -217.5 68t-95.5 176h120q10 -71 64 -106.5t131 -35.5t132 36t65 106z" />
    <glyph glyph-name="abreve" unicode="&#x103;" horiz-adv-x="1083" 
d="M209 276q0 -87 70 -138.5t182 -51.5q64 0 119.5 13.5t106 44.5t86 78t56.5 119t21 163v53q-349 -38 -495 -98t-146 -183zM852 0l-6 168q-56 -91 -160.5 -143t-253.5 -52q-158 0 -261 83t-103 218q0 75 30.5 132.5t89 99.5t155.5 73.5t216 52.5t285 38v39q0 73 -17 128
t-45 88.5t-69 53.5t-83 27.5t-93 7.5q-138 0 -220 -68.5t-90 -179.5h-133q23 165 144.5 262.5t306.5 97.5q100 0 175.5 -22t133 -71.5t87.5 -135t30 -205.5q0 -85 -1 -194.5t-1 -145.5q0 -110 12 -352h-129zM743 1485h115q-13 -106 -92 -175t-215 -69q-132 0 -211.5 70
t-87.5 174h115q7 -62 54 -105t132 -43q86 0 134.5 43.5t55.5 104.5z" />
    <glyph glyph-name="Aogonek" unicode="&#x104;" horiz-adv-x="1284" 
d="M0 0l563 1485h156l565 -1485q-91 -41 -138.5 -87t-47.5 -91q0 -48 28 -75.5t78 -27.5q35 0 80 15v-99q-44 -20 -117 -20q-85 0 -150 50.5t-65 133.5q0 73 52 122.5t131 78.5l-142 373h-706l-140 -373h-147zM637 1315l-303 -815h610z" />
    <glyph glyph-name="aogonek" unicode="&#x105;" horiz-adv-x="1083" 
d="M852 0l-6 168q-56 -91 -160.5 -143t-253.5 -52q-158 0 -261 83t-103 218q0 75 30.5 132.5t89 99.5t155.5 73.5t216 52.5t285 38v39q0 73 -17 128t-45 88.5t-69 53.5t-83 27.5t-93 7.5q-138 0 -220 -68.5t-90 -179.5h-133q23 165 144.5 262.5t306.5 97.5q100 0 175.5 -22
t133 -71.5t87.5 -135t30 -205.5q0 -85 -1 -194.5t-1 -145.5q0 -110 12 -352q-94 -41 -140 -81t-46 -91q0 -53 30.5 -81t85.5 -28q33 0 70 11v-97q-43 -18 -107 -18q-85 0 -150 51t-65 133q0 80 52.5 125.5t140.5 75.5zM209 276q0 -87 70 -138.5t182 -51.5q64 0 119.5 13.5
t106 44.5t86 78t56.5 119t21 163v53q-349 -38 -495 -98t-146 -183z" />
    <glyph glyph-name="Cacute" unicode="&#x106;" horiz-adv-x="1431" 
d="M1227 477h143q-51 -231 -212 -367.5t-417 -136.5q-208 0 -358.5 99.5t-225.5 272t-75 398.5q0 170 44.5 311t128 242.5t210 158t283.5 56.5q246 0 405.5 -135.5t210.5 -367.5h-143q-44 180 -173.5 276t-304.5 96q-110 0 -204 -42.5t-163.5 -122t-109 -201t-39.5 -271.5
q0 -293 142.5 -466t373.5 -173q104 0 189.5 30.5t144 84t95.5 118.5t55 140zM1102 1815l-311 -232h-134l226 232h219z" />
    <glyph glyph-name="cacute" unicode="&#x107;" horiz-adv-x="1087" 
d="M573 1120q181 0 304 -108t149 -264h-133q-30 122 -119 189t-213 67q-150 0 -254 -119.5t-104 -335.5q0 -114 29.5 -203.5t79.5 -144t114 -83t137 -28.5q134 0 222.5 74t115.5 184h135q-32 -170 -161 -272.5t-312 -102.5q-230 0 -362.5 158t-132.5 416q0 261 133.5 417
t371.5 156zM874 1485l-266 -238h-112l184 238h194z" />
    <glyph glyph-name="Ccircumflex" unicode="&#x108;" horiz-adv-x="1431" 
d="M1227 477h143q-51 -231 -212 -367.5t-417 -136.5q-208 0 -358.5 99.5t-225.5 272t-75 398.5q0 170 44.5 311t128 242.5t210 158t283.5 56.5q246 0 405.5 -135.5t210.5 -367.5h-143q-44 180 -173.5 276t-304.5 96q-110 0 -204 -42.5t-163.5 -122t-109 -201t-39.5 -271.5
q0 -293 142.5 -466t373.5 -173q104 0 189.5 30.5t144 84t95.5 118.5t55 140zM831 1815l271 -232h-154l-205 158l-206 -158h-152l277 232h169z" />
    <glyph glyph-name="ccircumflex" unicode="&#x109;" horiz-adv-x="1087" 
d="M573 1120q181 0 304 -108t149 -264h-133q-30 122 -119 189t-213 67q-150 0 -254 -119.5t-104 -335.5q0 -114 29.5 -203.5t79.5 -144t114 -83t137 -28.5q134 0 222.5 74t115.5 184h135q-32 -170 -161 -272.5t-312 -102.5q-230 0 -362.5 158t-132.5 416q0 261 133.5 417
t371.5 156zM653 1485l254 -238h-131l-198 156l-201 -156h-129l260 238h145z" />
    <glyph glyph-name="Cdotaccent" unicode="&#x10a;" horiz-adv-x="1431" 
d="M1227 477h143q-51 -231 -212 -367.5t-417 -136.5q-208 0 -358.5 99.5t-225.5 272t-75 398.5q0 170 44.5 311t128 242.5t210 158t283.5 56.5q246 0 405.5 -135.5t210.5 -367.5h-143q-44 180 -173.5 276t-304.5 96q-110 0 -204 -42.5t-163.5 -122t-109 -201t-39.5 -271.5
q0 -293 142.5 -466t373.5 -173q104 0 189.5 30.5t144 84t95.5 118.5t55 140zM676 1800h137v-203h-137v203z" />
    <glyph glyph-name="cdotaccent" unicode="&#x10b;" horiz-adv-x="1087" 
d="M573 1120q181 0 304 -108t149 -264h-133q-30 122 -119 189t-213 67q-150 0 -254 -119.5t-104 -335.5q0 -114 29.5 -203.5t79.5 -144t114 -83t137 -28.5q134 0 222.5 74t115.5 184h135q-32 -170 -161 -272.5t-312 -102.5q-230 0 -362.5 158t-132.5 416q0 261 133.5 417
t371.5 156zM514 1485h127v-203h-127v203z" />
    <glyph glyph-name="Ccaron" unicode="&#x10c;" horiz-adv-x="1431" 
d="M1227 477h143q-51 -231 -212 -367.5t-417 -136.5q-208 0 -358.5 99.5t-225.5 272t-75 398.5q0 170 44.5 311t128 242.5t210 158t283.5 56.5q246 0 405.5 -135.5t210.5 -367.5h-143q-44 180 -173.5 276t-304.5 96q-110 0 -204 -42.5t-163.5 -122t-109 -201t-39.5 -271.5
q0 -293 142.5 -466t373.5 -173q104 0 189.5 30.5t144 84t95.5 118.5t55 140zM653 1583l-268 232h152l204 -158l207 158h154l-277 -232h-172z" />
    <glyph glyph-name="ccaron" unicode="&#x10d;" horiz-adv-x="1087" 
d="M573 1120q181 0 304 -108t149 -264h-133q-30 122 -119 189t-213 67q-150 0 -254 -119.5t-104 -335.5q0 -114 29.5 -203.5t79.5 -144t114 -83t137 -28.5q134 0 222.5 74t115.5 184h135q-32 -170 -161 -272.5t-312 -102.5q-230 0 -362.5 158t-132.5 416q0 261 133.5 417
t371.5 156zM502 1247l-254 238h129l198 -154l201 154h131l-260 -238h-145z" />
    <glyph glyph-name="Dcaron" unicode="&#x10e;" horiz-adv-x="1423" 
d="M1196 743q0 115 -19.5 207t-52.5 155.5t-83.5 110.5t-104.5 74t-125 43.5t-135 21.5t-144 5h-219v-1235h219q80 0 144 5t135 21.5t125 44t104.5 74t83.5 110.5t52.5 156t19.5 207zM176 1485h361q147 0 265.5 -22.5t221 -76t171 -137.5t107.5 -211.5t39 -294.5
q0 -168 -39 -296.5t-107.5 -212t-171 -137t-221 -75.5t-265.5 -22h-361v1485zM614 1583l-268 232h152l204 -158l207 158h154l-277 -232h-172z" />
    <glyph glyph-name="dcaron" unicode="&#x10f;" horiz-adv-x="1267" 
d="M907 547q0 95 -21 173.5t-55.5 130.5t-81 87.5t-96 51.5t-100.5 16q-157 0 -253.5 -122t-96.5 -337t96.5 -337t253.5 -122q51 0 100.5 16t96 51.5t81 87.5t55.5 130.5t21 173.5zM66 547q0 134 36 243.5t98.5 181t146 110t179.5 38.5q122 0 217 -54t156 -155v574h127
v-1485h-127v180q-61 -99 -156 -153t-217 -54q-96 0 -179.5 38.5t-146 110t-98.5 181.5t-36 244zM1329 1485l-143 -348h-74l62 348h155z" />
    <glyph glyph-name="Dcroat" unicode="&#x110;" horiz-adv-x="1445" 
d="M197 1485h360q147 0 266 -22.5t221.5 -76t171 -137.5t107.5 -211.5t39 -294.5q0 -168 -39 -296.5t-107.5 -212t-171.5 -137t-221.5 -75.5t-265.5 -22h-360v694h-174v127h174v664zM1217 743q0 115 -19.5 207t-52.5 155.5t-83.5 110.5t-104.5 74t-125 43.5t-135 21.5
t-144 5h-219v-539h348v-127h-348v-569h219q80 0 144 5t135 21.5t125 44t104.5 74t83.5 110.5t52.5 156t19.5 207z" />
    <glyph glyph-name="dcroat" unicode="&#x111;" horiz-adv-x="1179" 
d="M66 547q0 134 36 243.5t98.5 181t146 110t179.5 38.5q122 0 217 -54t156 -155v301h-289v111h289v162h127v-162h143v-111h-143v-1212h-127v180q-61 -99 -156 -153t-217 -54q-96 0 -179.5 38.5t-146 110t-98.5 181.5t-36 244zM907 547q0 95 -21 173.5t-55.5 130.5t-81 87.5
t-96 51.5t-100.5 16q-157 0 -253.5 -122t-96.5 -337t96.5 -337t253.5 -122q51 0 100.5 16t96 51.5t81 87.5t55.5 130.5t21 173.5z" />
    <glyph glyph-name="Emacron" unicode="&#x112;" horiz-adv-x="1200" 
d="M176 0v1485h952v-127h-815v-524h766v-129h-766v-578h815v-127h-952zM979 1649h-614v120h614v-120z" />
    <glyph glyph-name="emacron" unicode="&#x113;" horiz-adv-x="1142" 
d="M588 -27q-239 0 -379.5 157.5t-140.5 416.5q0 130 39 238.5t108 181.5t164 113t205 40q152 0 267 -79.5t173.5 -217.5t50.5 -309h-876q4 -197 114.5 -310.5t282.5 -113.5q129 0 216.5 62.5t119.5 177.5h133q-41 -171 -167 -264t-310 -93zM582 1006q-157 0 -258 -97
t-121 -278h733q0 95 -41.5 179.5t-124 140t-188.5 55.5zM872 1331h-569v103h569v-103z" />
    <glyph glyph-name="Ebreve" unicode="&#x114;" horiz-adv-x="1200" 
d="M176 0v1485h952v-127h-815v-524h766v-129h-766v-578h815v-127h-952zM854 1815h121q-11 -108 -96.5 -176t-223.5 -68q-133 0 -217.5 68t-95.5 176h121q10 -71 63.5 -106.5t130.5 -35.5t132 36t65 106z" />
    <glyph glyph-name="ebreve" unicode="&#x115;" horiz-adv-x="1142" 
d="M588 -27q-239 0 -379.5 157.5t-140.5 416.5q0 130 39 238.5t108 181.5t164 113t205 40q152 0 267 -79.5t173.5 -217.5t50.5 -309h-876q4 -197 114.5 -310.5t282.5 -113.5q129 0 216.5 62.5t119.5 177.5h133q-41 -171 -167 -264t-310 -93zM582 1006q-157 0 -258 -97
t-121 -278h733q0 95 -41.5 179.5t-124 140t-188.5 55.5zM776 1485h115q-13 -106 -92 -175t-215 -69q-132 0 -211.5 70t-87.5 174h114q7 -61 54.5 -104.5t132.5 -43.5q86 0 134.5 43.5t55.5 104.5z" />
    <glyph glyph-name="Edotaccent" unicode="&#x116;" horiz-adv-x="1200" 
d="M176 0v1485h952v-127h-815v-524h766v-129h-766v-578h815v-127h-952zM584 1800h137v-203h-137v203z" />
    <glyph glyph-name="edotaccent" unicode="&#x117;" horiz-adv-x="1142" 
d="M588 -27q-239 0 -379.5 157.5t-140.5 416.5q0 130 39 238.5t108 181.5t164 113t205 40q152 0 267 -79.5t173.5 -217.5t50.5 -309h-876q4 -197 114.5 -310.5t282.5 -113.5q129 0 216.5 62.5t119.5 177.5h133q-41 -171 -167 -264t-310 -93zM582 1006q-157 0 -258 -97
t-121 -278h733q0 95 -41.5 179.5t-124 140t-188.5 55.5zM520 1485h127v-203h-127v203z" />
    <glyph glyph-name="Eogonek" unicode="&#x118;" horiz-adv-x="1200" 
d="M176 0v1485h952v-127h-815v-524h766v-129h-766v-578h815v-127h-952zM991 0h137q-97 -43 -142.5 -84.5t-45.5 -93.5q0 -47 29 -75t80 -28q34 0 79 15v-99q-44 -20 -116 -20q-85 0 -150 50.5t-65 133.5q0 42 15.5 75.5t45.5 57t61 39t72 29.5z" />
    <glyph glyph-name="eogonek" unicode="&#x119;" horiz-adv-x="1142" 
d="M582 1006q-157 0 -258 -97t-119 -278h731q0 95 -41.5 179.5t-124 140t-188.5 55.5zM901 -270v-97q-44 -18 -106 -18q-85 0 -150 51t-65 133q0 81 77 178q-46 -4 -69 -4q-239 0 -379.5 157.5t-140.5 416.5q0 130 39 238.5t108 181.5t164 113t205 40q152 0 267 -79.5
t173.5 -217.5t50.5 -309h-874q4 -195 114.5 -309.5t280.5 -114.5q129 0 216.5 62.5t119.5 177.5h133q-43 -183 -201 -295q-72 -52 -110.5 -107t-38.5 -100q0 -53 30.5 -81t85.5 -28q33 0 70 11z" />
    <glyph glyph-name="Ecaron" unicode="&#x11a;" horiz-adv-x="1200" 
d="M176 0v1485h952v-127h-815v-524h766v-129h-766v-578h815v-127h-952zM569 1583l-268 232h152l204 -158l207 158h154l-277 -232h-172z" />
    <glyph glyph-name="ecaron" unicode="&#x11b;" horiz-adv-x="1142" 
d="M588 -27q-239 0 -379.5 157.5t-140.5 416.5q0 130 39 238.5t108 181.5t164 113t205 40q152 0 267 -79.5t173.5 -217.5t50.5 -309h-876q4 -197 114.5 -310.5t282.5 -113.5q129 0 216.5 62.5t119.5 177.5h133q-41 -171 -167 -264t-310 -93zM582 1006q-157 0 -258 -97
t-121 -278h733q0 95 -41.5 179.5t-124 140t-188.5 55.5zM516 1247l-254 238h129l199 -154l201 154h131l-260 -238h-146z" />
    <glyph glyph-name="Gcircumflex" unicode="&#x11c;" horiz-adv-x="1525" 
d="M758 1511q240 0 402.5 -122.5t211.5 -350.5h-143q-22 90 -70.5 157.5t-113.5 107t-138 58.5t-153 19q-111 0 -207 -42.5t-167 -121.5t-112 -201t-41 -272q0 -293 142.5 -466t373.5 -173q71 0 136 11.5t132.5 42.5t116.5 79.5t80 128.5t31 183v55h-416v127h547v-731h-121
l-2 209q-151 -236 -506 -236q-208 0 -358.5 99.5t-225.5 272t-75 398.5q0 169 46.5 311t132 243t213.5 157.5t284 56.5zM842 1815l270 -232h-154l-204 158l-207 -158h-152l277 232h170z" />
    <glyph glyph-name="gcircumflex" unicode="&#x11d;" horiz-adv-x="1173" 
d="M891 25v200q-57 -100 -153.5 -153.5t-219.5 -53.5q-196 0 -327.5 150t-131.5 401q0 250 131.5 400.5t327.5 150.5q123 0 219.5 -54.5t153.5 -154.5v191h129v-1063q0 -143 -63 -240t-166 -140.5t-238 -43.5q-173 0 -291 88t-135 236h133q11 -93 87.5 -153t209.5 -60
q159 0 246.5 74.5t87.5 224.5zM901 569q0 109 -31.5 195.5t-83.5 137.5t-113.5 77.5t-127.5 26.5q-156 0 -252 -118.5t-96 -318.5q0 -202 96 -320t252 -118q66 0 127.5 26.5t113.5 77.5t83.5 137.5t31.5 196.5zM641 1485l254 -238h-131l-199 156l-200 -156h-129l260 238h145
z" />
    <glyph glyph-name="Gbreve" unicode="&#x11e;" horiz-adv-x="1525" 
d="M758 1511q240 0 402.5 -122.5t211.5 -350.5h-143q-22 90 -70.5 157.5t-113.5 107t-138 58.5t-153 19q-111 0 -207 -42.5t-167 -121.5t-112 -201t-41 -272q0 -293 142.5 -466t373.5 -173q71 0 136 11.5t132.5 42.5t116.5 79.5t80 128.5t31 183v55h-416v127h547v-731h-121
l-2 209q-151 -236 -506 -236q-208 0 -358.5 99.5t-225.5 272t-75 398.5q0 169 46.5 311t132 243t213.5 157.5t284 56.5zM944 1815h121q-11 -108 -96.5 -176t-223.5 -68q-133 0 -217.5 68t-95.5 176h121q10 -71 64 -106.5t131 -35.5t131.5 36t64.5 106z" />
    <glyph glyph-name="gbreve" unicode="&#x11f;" horiz-adv-x="1173" 
d="M891 25v200q-57 -100 -153.5 -153.5t-219.5 -53.5q-196 0 -327.5 150t-131.5 401q0 250 131.5 400.5t327.5 150.5q123 0 219.5 -54.5t153.5 -154.5v191h129v-1063q0 -143 -63 -240t-166 -140.5t-238 -43.5q-173 0 -291 88t-135 236h133q11 -93 87.5 -153t209.5 -60
q159 0 246.5 74.5t87.5 224.5zM901 569q0 109 -31.5 195.5t-83.5 137.5t-113.5 77.5t-127.5 26.5q-156 0 -252 -118.5t-96 -318.5q0 -202 96 -320t252 -118q66 0 127.5 26.5t113.5 77.5t83.5 137.5t31.5 196.5zM752 1485h114q-13 -106 -92 -175t-215 -69q-132 0 -211.5 70
t-87.5 174h115q7 -62 54 -105t132 -43q86 0 135 43.5t56 104.5z" />
    <glyph glyph-name="Gdotaccent" unicode="&#x120;" horiz-adv-x="1525" 
d="M758 1511q240 0 402.5 -122.5t211.5 -350.5h-143q-22 90 -70.5 157.5t-113.5 107t-138 58.5t-153 19q-111 0 -207 -42.5t-167 -121.5t-112 -201t-41 -272q0 -293 142.5 -466t373.5 -173q71 0 136 11.5t132.5 42.5t116.5 79.5t80 128.5t31 183v55h-416v127h547v-731h-121
l-2 209q-151 -236 -506 -236q-208 0 -358.5 99.5t-225.5 272t-75 398.5q0 169 46.5 311t132 243t213.5 157.5t284 56.5zM684 1800h137v-203h-137v203z" />
    <glyph glyph-name="gdotaccent" unicode="&#x121;" horiz-adv-x="1173" 
d="M891 25v200q-57 -100 -153.5 -153.5t-219.5 -53.5q-196 0 -327.5 150t-131.5 401q0 250 131.5 400.5t327.5 150.5q123 0 219.5 -54.5t153.5 -154.5v191h129v-1063q0 -143 -63 -240t-166 -140.5t-238 -43.5q-173 0 -291 88t-135 236h133q11 -93 87.5 -153t209.5 -60
q159 0 246.5 74.5t87.5 224.5zM901 569q0 109 -31.5 195.5t-83.5 137.5t-113.5 77.5t-127.5 26.5q-156 0 -252 -118.5t-96 -318.5q0 -202 96 -320t252 -118q66 0 127.5 26.5t113.5 77.5t83.5 137.5t31.5 196.5zM496 1485h127v-203h-127v203z" />
    <glyph glyph-name="uni0122" unicode="&#x122;" horiz-adv-x="1525" 
d="M758 1511q240 0 402.5 -122.5t211.5 -350.5h-143q-22 90 -70.5 157.5t-113.5 107t-138 58.5t-153 19q-111 0 -207 -42.5t-167 -121.5t-112 -201t-41 -272q0 -293 142.5 -466t373.5 -173q71 0 136 11.5t132.5 42.5t116.5 79.5t80 128.5t31 183v55h-416v127h547v-731h-121
l-2 209q-151 -236 -506 -236q-208 0 -358.5 99.5t-225.5 272t-75 398.5q0 169 46.5 311t132 243t213.5 157.5t284 56.5zM670 -268v194h127v-194l-70 -185h-76l70 185h-51z" />
    <glyph glyph-name="uni0123" unicode="&#x123;" horiz-adv-x="1173" 
d="M627 1425v-182h-172v197l90 182h88l-80 -197h74zM891 25v200q-57 -100 -153.5 -153.5t-219.5 -53.5q-196 0 -327.5 150t-131.5 401q0 250 131.5 400.5t327.5 150.5q123 0 219.5 -54.5t153.5 -154.5v191h129v-1063q0 -143 -63 -240t-166 -140.5t-238 -43.5q-173 0 -291 88
t-135 236h133q11 -93 87.5 -153t209.5 -60q159 0 246.5 74.5t87.5 224.5zM901 569q0 109 -31.5 195.5t-83.5 137.5t-113.5 77.5t-127.5 26.5q-156 0 -252 -118.5t-96 -318.5q0 -202 96 -320t252 -118q66 0 127.5 26.5t113.5 77.5t83.5 137.5t31.5 196.5z" />
    </font>
</defs>
</svg>
