<svg width="69" height="72" viewBox="0 0 69 72" fill="none" xmlns="http://www.w3.org/2000/svg">
<g clip-path="url(#clip0_2132_546)">
<path d="M56.8603 0.947754H11.8994C9.36436 0.947754 7.31128 3.11492 7.31128 5.78441V53.1807C7.31128 55.8531 9.36709 58.0174 11.8994 58.0174H56.8603C59.3954 58.0174 61.4485 55.8502 61.4485 53.1807V5.78441C61.4485 3.11205 59.3927 0.947754 56.8603 0.947754ZM18.7094 50.3849C16.4658 50.3849 14.6468 48.4675 14.6468 46.1023C14.6468 43.737 16.4658 41.8196 18.7094 41.8196C20.9531 41.8196 22.772 43.737 22.772 46.1023C22.772 48.4675 20.9531 50.3849 18.7094 50.3849ZM50.053 50.3849C47.8093 50.3849 45.9904 48.4675 45.9904 46.1023C45.9904 43.737 47.8093 41.8196 50.053 41.8196C52.2967 41.8196 54.1156 43.737 54.1156 46.1023C54.1156 48.4675 52.2967 50.3849 50.053 50.3849ZM56.6316 9.08538L54.3934 27.2264C54.2327 28.5181 53.1898 29.4854 51.9536 29.4854H16.8551C15.5999 29.4854 14.5461 28.4894 14.4099 27.1719L12.542 9.03085C12.3841 7.49804 13.5223 6.16043 14.9872 6.16043H54.1919C55.6759 6.16043 56.8222 7.53536 56.6316 9.08825V9.08538Z" fill="#888063"/>
<path d="M62.0567 71.9327H68.7633L61.4522 59.7134H54.7456L56.8259 63.1895H11.9385L14.0161 59.7134H7.31227L0.0012207 71.9327H6.70506L8.78538 68.4595H59.9791L62.0567 71.9327Z" fill="#888063"/>
</g>
<defs>
<clipPath id="clip0_2132_546">
<rect width="68.762" height="70.9854" fill="white" transform="translate(0 0.947266)"/>
</clipPath>
</defs>
</svg>
