<svg width="73" height="72" viewBox="0 0 73 72" fill="none" xmlns="http://www.w3.org/2000/svg">
<g clip-path="url(#clip0_2132_552)">
<path d="M62.8188 3.99544C62.1525 1.67902 60.0355 0.0859375 57.6255 0.0859375H16.0359C13.626 0.0859375 11.5061 1.68189 10.8426 3.99544L4.72437 25.2882H68.9371L62.8188 3.99544Z" fill="#888063"/>
<path d="M68.2458 27.21H5.41755C2.80941 27.21 0.695312 29.3226 0.695312 31.9289V52.4409C0.695312 55.0473 2.80941 57.1599 5.41755 57.1599H68.2486C70.8568 57.1599 72.9709 55.0473 72.9709 52.4409V31.9289C72.9709 29.3226 70.8568 27.21 68.2486 27.21H68.2458ZM11.0417 51.2353C8.67487 51.2353 6.7561 49.3179 6.7561 46.9527C6.7561 44.5875 8.67487 42.67 11.0417 42.67C13.4086 42.67 15.3274 44.5875 15.3274 46.9527C15.3274 49.3179 13.4086 51.2353 11.0417 51.2353ZM62.5211 51.2353C60.1542 51.2353 58.2354 49.3179 58.2354 46.9527C58.2354 44.5875 60.1542 42.67 62.5211 42.67C64.8879 42.67 66.8067 44.5875 66.8067 46.9527C66.8067 49.3179 64.8879 51.2353 62.5211 51.2353Z" fill="#888063"/>
<path d="M68.9368 58.8511H58.6191V71.0704H68.9368V58.8511Z" fill="#888063"/>
<path d="M15.0421 59.0815H4.72437V71.3009H15.0421V59.0815Z" fill="#888063"/>
</g>
<defs>
<clipPath id="clip0_2132_552">
<rect width="72.2727" height="71.2122" fill="white" transform="translate(0.694092 0.0859375)"/>
</clipPath>
</defs>
</svg>
