<?xml version="1.0" encoding="utf-8"?>
<!-- Generator: Adobe Illustrator 28.0.0, SVG Export Plug-In . SVG Version: 6.00 Build 0)  -->
<svg version="1.1" id="Слой_1" xmlns="http://www.w3.org/2000/svg" xmlns:xlink="http://www.w3.org/1999/xlink" x="0px" y="0px"
	 viewBox="0 0 50 50" style="enable-background:new 0 0 50 50;" xml:space="preserve">
<style type="text/css">
	.st0{clip-path:url(#SVGID_00000114778155770413995150000002240294161756891573_);}
	.st1{fill:#888063;}
</style>
<g>
	<defs>
		<rect id="SVGID_1_" x="4.4" y="1.5" width="41.1" height="40.6"/>
	</defs>
	<clipPath id="SVGID_00000095331632594625201850000018302324323294335882_">
		<use xlink:href="#SVGID_1_"  style="overflow:visible;"/>
	</clipPath>
	<g style="clip-path:url(#SVGID_00000095331632594625201850000018302324323294335882_);">
		<path class="st1" d="M39.8,3.7c-0.4-1.3-1.6-2.2-3-2.2H13.2c-1.4,0-2.6,0.9-3,2.2L6.7,15.8h36.5L39.8,3.7z"/>
		<path class="st1" d="M42.9,16.9H7.1c-1.5,0-2.7,1.2-2.7,2.7v11.7c0,1.5,1.2,2.7,2.7,2.7h35.8c1.5,0,2.7-1.2,2.7-2.7V19.6
			C45.6,18.1,44.4,16.9,42.9,16.9L42.9,16.9z M10.3,30.6c-1.3,0-2.4-1.1-2.4-2.4c0-1.3,1.1-2.4,2.4-2.4s2.4,1.1,2.4,2.4
			C12.8,29.5,11.7,30.6,10.3,30.6z M39.6,30.6c-1.3,0-2.4-1.1-2.4-2.4c0-1.3,1.1-2.4,2.4-2.4c1.3,0,2.4,1.1,2.4,2.4
			C42.1,29.5,41,30.6,39.6,30.6z"/>
		<path class="st1" d="M43.3,34.9h-5.9v7h5.9V34.9z"/>
		<path class="st1" d="M12.6,35.1H6.7v7h5.9V35.1z"/>
	</g>
</g>
<rect x="6.7" y="46" class="st1" width="36.6" height="3.4"/>
</svg>
