<?xml version="1.0" encoding="utf-8"?>
<!-- Generator: Adobe Illustrator 28.0.0, SVG Export Plug-In . SVG Version: 6.00 Build 0)  -->
<svg version="1.1" id="Слой_1" xmlns="http://www.w3.org/2000/svg" xmlns:xlink="http://www.w3.org/1999/xlink" x="0px" y="0px"
	 viewBox="0 0 50 50" style="enable-background:new 0 0 50 50;" xml:space="preserve">
<style type="text/css">
	.st0{fill:#888063;}
</style>
<path class="st0" d="M26.4,19l-0.9,3.8l6.1,4.5c0.4,0.4,0.6,0.9,0.7,1.4c0.5,3.3-0.3,7.7,0.1,11.1c-0.3,3.2-4.6,3.4-5.1,0.2l0-9.6
	l-4.5-3.3c-0.1,0.1-0.1,0.2-0.2,0.3c-0.3,1.5-0.2,3.2-0.8,4.6c-1.4,3.1-4.3,6.3-5.8,9.5c-2,2.5-5.8,0.3-4.4-2.7
	c1.4-2.9,4-5.9,5.4-8.9c0.5-4.1,1.2-8.2,2.3-12.3l-1.1,0.4c-1.2,1.5-2.4,5.4-4.2,6c-2,0.6-3.8-1.1-3.4-3.1c0.2-0.8,2.3-4.3,2.9-5.3
	c0.4-0.7,0.8-1.4,1.5-1.9c3.4-1.3,6.9-3.9,10.7-2.9c0.7,0.2,1.1,0.6,1.6,1.1c0.9,1,2.5,3.5,3.4,4.1c1.3,0.9,4.2,1.2,5.6,2.1
	c2.3,1.5,1,5.1-1.9,4.7c-0.7-0.1-6.3-2.2-6.8-2.6C27.1,19.8,26.8,19.3,26.4,19L26.4,19z"/>
<path class="st0" d="M24.9,9.4c2.3,0,4.2-1.9,4.2-4.2S27.2,1,24.9,1s-4.2,1.9-4.2,4.2S22.5,9.4,24.9,9.4z"/>
<rect x="6.9" y="45.6" class="st0" width="34.4" height="3.2"/>
</svg>
