<svg width="74" height="70" viewBox="0 0 74 70" fill="none" xmlns="http://www.w3.org/2000/svg">
<g clip-path="url(#clip0_2132_560)">
<path d="M73.1351 64.6797H0.598145V69.9498H73.1351V64.6797Z" fill="#888063"/>
<path d="M73.1351 47.3945H0.598145V52.6646H73.1351V47.3945Z" fill="#888063"/>
<path d="M18.881 56.0371H0.598145V61.3072H18.881V56.0371Z" fill="#888063"/>
<path d="M73.1359 56.0371H54.853V61.3072H73.1359V56.0371Z" fill="#888063"/>
<path d="M46.0075 56.0371H27.7246V61.3072H46.0075V56.0371Z" fill="#888063"/>
<path d="M69.8485 13.7018L58.0228 10.5989C57.3823 10.4296 56.7044 10.4497 56.0753 10.6563L42.4572 15.1227L11.6018 0.446267C9.87261 -0.377543 7.79873 0.32858 6.93414 2.03935C6.25625 3.37696 6.5004 4.99875 7.54021 6.07802L22.5486 21.6529L11.5271 25.2668L8.2813 20.5995C7.39085 19.3193 5.76507 18.7739 4.2829 19.2618L4.033 19.3451C2.1803 19.9536 1.17208 21.9457 1.78103 23.7971L5.25378 34.3717C5.564 35.3161 6.37689 36.0079 7.35925 36.16L16.4246 37.5808C16.8382 37.6469 17.2633 37.6124 17.6597 37.4804L70.0467 20.3038C71.8535 19.7125 72.8387 17.7664 72.2441 15.9609C71.8793 14.85 70.9774 14.0004 69.8457 13.7047L69.8485 13.7018Z" fill="#888063"/>
</g>
<defs>
<clipPath id="clip0_2132_560">
<rect width="72.537" height="69.8487" fill="white" transform="translate(0.598145 0.101074)"/>
</clipPath>
</defs>
</svg>
